<svg width="80" height="80" viewBox="0 0 80 80" fill="none" xmlns="http://www.w3.org/2000/svg">
<path d="M40.0008 6.66748C46.4679 6.6663 52.7958 8.54641 58.2131 12.0787C63.6304 15.6109 67.9031 20.6428 70.5107 26.5609C73.1182 32.4791 73.9478 39.028 72.8985 45.4094C71.8492 51.7909 68.9661 57.7292 64.6008 62.5008M40.0008 26.6675V53.3341M53.3341 40.0008H26.6675M8.33415 29.5841C7.27198 32.813 6.70992 36.1853 6.66748 39.5841M9.43441 53.3341C11.3061 57.6402 14.0663 61.5023 17.5344 64.6675M15.4549 17.4506C16.3851 16.438 17.3769 15.484 18.4249 14.5939M28.8143 71.4009C37.1266 74.3622 46.2739 73.9067 54.251 70.1343" stroke="#1F0806" stroke-width="4" stroke-linecap="round" stroke-linejoin="round"/>
</svg>
