<svg width="92" height="172" viewBox="0 0 92 172" fill="none" xmlns="http://www.w3.org/2000/svg">
<path d="M91.4705 43.8071C91.6005 38.7571 90.9605 33.6371 89.0605 28.9471C88.4605 26.9771 87.7205 25.0371 86.7905 23.1671C80.1305 9.7571 66.2505 1.7871 51.6805 0.277097C37.8405 -1.1629 22.5005 3.0371 12.6005 13.1671C7.46051 18.4271 4.49052 24.9871 3.49052 32.2471C2.34052 40.6071 2.59052 49.2571 3.05052 57.6671C3.16052 59.7071 5.76051 72.0571 6.51051 76.2371C7.61051 82.4471 8.80053 88.8571 9.09053 95.1571C9.55053 105.317 7.4305 114.977 3.1905 123.957C3.1905 123.967 3.1905 123.987 3.1905 123.997C1.7305 127.017 0.0805036 130.097 0.130504 133.537C0.180504 136.607 1.57052 139.487 3.96052 141.407C8.72052 145.217 15.5005 145.307 20.6005 142.107C25.2305 139.197 28.2805 134.587 31.1105 129.907C31.3405 131.097 31.5205 132.307 31.6105 133.537C31.8805 137.177 31.5205 140.707 30.8705 144.277C29.6605 150.917 28.7705 159.207 34.6305 164.087C39.9605 168.537 47.3905 166.927 52.0805 162.337C57.2605 157.267 57.8505 149.687 57.6905 142.847C57.6005 138.627 57.3305 134.427 57.3905 130.197C57.4205 127.827 57.5505 125.477 57.7505 123.117C58.4505 125.407 59.1305 127.667 60.1805 129.847C62.4605 134.607 66.5505 138.807 71.9005 139.797C77.1805 140.767 82.7905 138.787 85.1205 133.677C87.5605 128.307 85.9105 122.417 84.7505 116.937C83.4305 110.697 82.4105 104.407 82.4605 98.0171C82.5205 91.9871 83.4805 86.0471 84.7405 80.1571C87.3205 68.1571 91.1405 56.1771 91.4705 43.8071Z" fill="#D90429"/>
<path d="M41.5705 93.0868C41.2005 90.1368 40.7605 87.1868 40.2505 84.2568C40.0005 82.8068 39.7305 81.3568 39.4405 79.9168C39.1605 78.4868 38.9805 76.9468 38.1705 75.7068C37.7705 75.0968 36.5505 75.0568 36.4205 75.9368C36.1105 77.9868 36.8505 80.1268 37.2305 82.1368C37.6405 84.3468 38.0205 86.5768 38.3505 88.8068C38.9805 93.0468 40.0605 97.8768 39.0805 102.127C38.3305 105.377 35.6805 108.787 31.9705 107.967C28.2005 107.137 26.2905 102.947 25.1805 99.6468C23.5905 94.9468 22.2305 90.1468 20.7405 85.4168C20.2405 83.8468 17.8405 84.4868 18.2605 86.0968C19.5605 91.0268 20.7105 96.0368 22.3105 100.877C23.6405 104.897 25.8005 108.997 29.9405 110.657C33.9205 112.257 38.0005 110.077 40.1705 106.647C42.7205 102.627 42.1405 97.5468 41.5705 93.0768V93.0868Z" fill="white"/>
<path d="M72.6406 81.4967C72.4706 80.1467 70.3306 79.5167 70.0206 81.1367C69.5406 83.6767 69.5606 86.2867 69.0406 88.8267C68.5206 91.3667 67.7706 93.8667 66.8006 96.2667C65.3206 99.9367 62.2706 106.877 57.1306 105.517C52.7606 104.367 53.5106 97.1867 53.6306 93.8767C53.8306 88.3067 54.6306 82.8067 56.0506 77.4167C56.3906 76.1167 54.4106 75.5667 54.0306 76.8567C52.6006 81.7267 51.6206 86.7467 51.2106 91.8167C50.8806 95.8067 50.4006 100.547 52.1006 104.317C53.8206 108.117 58.0106 109.337 61.7206 107.637C65.7106 105.817 67.7806 101.297 69.3606 97.4667C70.4106 94.9167 71.2306 92.2767 71.7906 89.5767C72.3206 87.0367 72.9706 84.0667 72.6406 81.4767V81.4967Z" fill="white"/>
<path d="M18.9804 146.917C17.7304 146.617 16.3604 147.027 15.4804 147.977C14.6904 148.837 14.2804 150.007 14.6004 151.167C14.7804 151.807 15.1904 152.417 15.7204 152.837C16.3404 153.457 17.2204 153.827 18.0804 153.857C19.2904 153.897 20.4504 153.257 21.0804 152.237C22.3004 150.267 21.2904 147.467 18.9804 146.917Z" fill="#D90429"/>
<path d="M11.0104 151.927C10.9404 151.617 10.8004 151.357 10.5904 151.127C10.4204 150.867 10.2004 150.667 9.93039 150.517C9.74039 150.437 9.56039 150.357 9.37039 150.277C9.12039 150.207 8.86038 150.197 8.61038 150.207C8.59038 150.207 8.56037 150.207 8.54037 150.197C8.51037 150.197 8.48039 150.197 8.46039 150.197C8.23039 150.217 8.00039 150.247 7.77039 150.287C7.74039 150.287 7.71037 150.297 7.69037 150.307C7.48037 150.387 7.26039 150.467 7.06039 150.577C7.04039 150.587 7.01039 150.607 6.99039 150.617C6.91039 150.677 6.82039 150.747 6.74039 150.817C6.65039 150.877 6.57039 150.947 6.49039 151.017C6.48039 151.027 6.46038 151.037 6.45038 151.057C6.43038 151.077 6.40037 151.107 6.38037 151.137C6.24037 151.307 6.10038 151.477 5.98038 151.657C5.97038 151.667 5.96038 151.687 5.95038 151.697C5.81038 151.927 5.70038 152.247 5.61038 152.457C5.58038 152.527 5.56037 152.587 5.54037 152.657C5.53037 152.687 5.52038 152.727 5.51038 152.767C5.48038 152.897 5.48038 152.967 5.45038 153.147C5.43038 153.297 5.41039 153.407 5.40039 153.537C5.40039 153.997 5.5204 154.427 5.7504 154.817C5.9804 155.197 6.28037 155.507 6.66037 155.727C6.68037 155.737 6.69039 155.747 6.71039 155.757C6.71039 155.757 6.73039 155.757 6.74039 155.767C6.92039 155.847 7.18038 155.957 7.36038 156.027C7.40038 156.047 7.44038 156.057 7.48038 156.057C7.60038 156.077 7.75039 156.097 7.84039 156.107C7.92039 156.117 8.08038 156.147 8.20038 156.157C8.22038 156.157 8.24038 156.157 8.26038 156.157C8.28038 156.157 8.30037 156.157 8.32037 156.157C8.44037 156.157 8.59039 156.117 8.68039 156.107C8.78039 156.097 8.93038 156.077 9.05038 156.057C9.07038 156.057 9.09038 156.057 9.11038 156.047C9.11038 156.047 9.13038 156.047 9.14038 156.047C9.34038 155.967 9.54039 155.877 9.74039 155.797C9.91039 155.667 10.0804 155.537 10.2504 155.407C10.2904 155.367 10.6204 154.937 10.6504 154.887C10.6704 154.857 10.9004 154.307 10.9104 154.277C10.9104 154.267 10.9104 154.257 10.9104 154.247C10.9104 154.247 10.9104 154.237 10.9104 154.227C10.9304 154.127 10.9904 153.677 11.0004 153.577C11.0004 153.567 11.0004 153.557 11.0004 153.547C11.0004 153.537 11.0004 153.527 11.0004 153.517C11.0004 153.477 10.9904 153.417 10.9804 153.357C11.0304 153.207 11.0704 153.047 11.0704 152.877C11.1404 152.567 11.1304 152.247 11.0304 151.937L11.0104 151.927Z" fill="#D90429"/>
<path d="M31.5604 166.347C31.5404 166.217 31.5304 166.067 31.5004 165.927C31.5004 165.897 31.4803 165.867 31.4703 165.837C31.4003 165.637 31.3003 165.377 31.1903 165.187C31.0703 164.957 30.8904 164.747 30.7104 164.557C30.6904 164.537 30.6704 164.517 30.6504 164.497C30.5004 164.357 30.2703 164.187 30.1003 164.077C30.0503 164.037 29.9904 164.017 29.9304 163.987C29.9404 163.987 29.9504 163.987 29.9604 163.997C29.9504 163.997 29.9404 163.997 29.9304 163.987C29.7504 163.897 29.5603 163.827 29.3803 163.757L29.5604 163.827C29.2104 163.687 28.9503 163.617 28.4403 163.597C28.1703 163.587 27.8904 163.657 27.6204 163.697C27.5504 163.707 27.4904 163.717 27.4204 163.737C26.7704 163.937 26.1004 164.287 25.6704 164.827C25.4404 165.117 25.2104 165.377 25.0504 165.707C24.8804 166.057 24.7104 166.427 24.6104 166.807C24.5004 167.187 24.4604 167.597 24.4204 167.977C24.4204 168.027 24.4103 168.077 24.4103 168.117C24.4003 168.257 24.4104 168.387 24.4504 168.517C24.4504 168.657 24.4803 168.787 24.5103 168.917C24.5203 168.957 24.5404 169.007 24.5504 169.047C24.7004 169.487 24.9004 169.887 25.2504 170.227C25.4204 170.407 25.6103 170.537 25.8203 170.637C26.1003 170.867 26.4304 171.007 26.7704 171.127C27.0704 171.237 27.4103 171.267 27.7203 171.277C28.0403 171.277 28.3704 171.237 28.6704 171.147C28.9004 171.077 29.1904 170.947 29.3704 170.867C29.4404 170.837 29.5003 170.807 29.5703 170.757C29.8203 170.577 30.1004 170.377 30.3104 170.137C30.5204 169.887 30.7404 169.617 30.9004 169.327C31.1304 168.907 31.3204 168.447 31.4504 167.987C31.5504 167.657 31.5804 167.287 31.6104 166.947C31.6104 166.887 31.6104 166.817 31.6104 166.757C31.6104 166.627 31.5804 166.477 31.5604 166.357V166.347Z" fill="#D90429"/>
<path d="M67.5303 143.757C67.5003 143.517 67.4803 143.267 67.4303 143.027C67.4303 142.997 67.4103 142.967 67.4003 142.927C67.3803 142.877 67.3603 142.827 67.3403 142.777C67.2803 142.607 67.2003 142.407 67.1203 142.267C67.1203 142.257 67.1103 142.247 67.1003 142.237C66.9803 142.077 66.8603 141.927 66.7403 141.767C66.6603 141.687 66.5803 141.627 66.4903 141.567C66.4103 141.497 66.3203 141.427 66.2303 141.367H66.2103C66.0203 141.277 65.8403 141.197 65.6503 141.117C65.2303 140.997 64.7003 140.967 64.2803 141.107C64.1803 141.147 64.0803 141.187 63.9803 141.237C63.8703 141.277 63.7703 141.327 63.6603 141.377C63.6303 141.397 63.6103 141.407 63.5803 141.427C63.1003 141.757 62.8203 142.037 62.5003 142.527C62.4103 142.657 62.3303 142.807 62.2603 142.947C62.1003 143.267 61.9603 143.597 61.8403 143.937C61.8103 144.007 61.8003 144.087 61.7903 144.167C61.7403 144.457 61.6603 144.747 61.6703 145.037C61.6703 145.167 61.6703 145.297 61.7103 145.427C61.7103 145.557 61.7303 145.687 61.7703 145.807C61.7703 145.837 61.7803 145.867 61.7903 145.887C61.8003 145.927 61.8103 145.967 61.8303 146.017C61.9103 146.217 62.0003 146.417 62.0803 146.607C62.2403 146.897 62.4503 147.127 62.7203 147.307C63.0203 147.537 63.1403 147.657 63.5703 147.757C63.5903 147.757 63.6203 147.757 63.6403 147.757C63.7503 147.817 63.8803 147.867 64.0103 147.897C64.5003 148.007 65.0803 147.997 65.5103 147.697C65.8403 147.467 66.1903 147.217 66.4403 146.897C66.6203 146.677 66.8003 146.457 66.9503 146.217C67.1003 145.957 67.2103 145.677 67.3203 145.397C67.3603 145.287 67.4003 145.167 67.4203 145.047C67.4803 144.747 67.5203 144.437 67.5503 144.127C67.5503 143.997 67.5503 143.867 67.5503 143.737L67.5303 143.757Z" fill="#D90429"/>
<path d="M57.0004 167.797C57.0104 167.487 56.9503 167.197 56.8003 166.927C56.7103 166.647 56.5503 166.407 56.3303 166.197C56.1203 165.977 55.8803 165.817 55.6003 165.727C55.3303 165.587 55.0403 165.517 54.7303 165.527C54.3203 165.527 53.9403 165.627 53.5803 165.837C53.4003 165.967 53.2303 166.107 53.0503 166.237C53.0203 166.257 53.0003 166.277 52.9803 166.307C52.9403 166.347 52.9003 166.387 52.8603 166.437C52.7203 166.617 52.5703 166.787 52.4503 166.977C52.4303 167.007 52.4103 167.037 52.4003 167.057C52.3203 167.197 52.2603 167.357 52.2003 167.507C52.1503 167.627 52.0903 167.747 52.0503 167.867C51.8903 168.317 51.9403 168.767 52.0403 169.227C52.0503 169.287 52.0703 169.347 52.0903 169.407C52.0903 169.407 52.0903 169.427 52.0903 169.437C52.1703 169.627 52.2503 169.817 52.3303 170.007C52.4803 170.287 52.6803 170.507 52.9403 170.677C53.0203 170.747 53.1003 170.817 53.1903 170.867C53.3803 170.947 53.5604 171.027 53.7504 171.107C53.7504 171.107 53.7603 171.107 53.7703 171.107C53.7703 171.107 53.7803 171.107 53.7903 171.107C53.9803 171.167 54.1803 171.197 54.3903 171.187C54.5903 171.157 54.7903 171.137 54.9903 171.107C55.2703 171.037 55.5203 170.907 55.7303 170.727C55.6703 170.777 55.6103 170.817 55.5503 170.867C55.5503 170.867 55.5503 170.867 55.5603 170.857C55.6503 170.787 55.9703 170.557 56.0403 170.477C56.1903 170.337 56.3103 170.177 56.4203 169.997C56.5003 169.807 56.5803 169.617 56.6603 169.427C56.6603 169.417 56.6603 169.407 56.6603 169.397C56.6703 169.347 56.6903 169.287 56.7103 169.237C56.7403 169.127 56.7603 168.907 56.7603 168.887C56.7803 168.757 56.7903 168.697 56.8003 168.657C56.9103 168.387 56.9903 168.097 56.9903 167.797H57.0004Z" fill="#D90429"/>
<path d="M69.9007 151.727C69.8407 151.467 69.7207 151.247 69.5507 151.057C69.4107 150.837 69.2307 150.677 69.0007 150.547C68.9107 150.497 68.8206 150.467 68.7306 150.437C68.6306 150.367 68.5406 150.287 68.4406 150.217C68.2606 150.097 68.0606 150.037 67.8506 150.027C67.7106 149.987 67.5707 149.987 67.4307 150.027C67.2207 150.027 67.0207 150.097 66.8407 150.217L66.5207 150.467C66.3207 150.667 66.1907 150.897 66.1107 151.167C66.0807 151.257 66.0707 151.357 66.0507 151.447C65.9807 151.577 65.8907 151.817 65.8407 151.957C65.8407 151.957 65.8407 151.977 65.8307 151.987C65.7907 152.087 65.7907 152.237 65.7807 152.317C65.7307 152.507 65.7307 152.687 65.7807 152.877C65.7807 152.977 65.8006 153.067 65.8206 153.167C65.8606 153.347 65.9307 153.517 66.0307 153.677C66.1407 153.817 66.2507 153.957 66.3607 154.097C66.3707 154.107 66.3907 154.127 66.4007 154.137C66.4907 154.217 66.7207 154.397 66.8307 154.467C66.8307 154.467 66.8406 154.467 66.8506 154.477C67.0106 154.577 67.2107 154.647 67.3707 154.697C67.3807 154.697 67.4006 154.697 67.4106 154.707C67.5006 154.717 67.5907 154.737 67.6807 154.747C67.8607 154.797 68.0307 154.797 68.2107 154.747C68.5207 154.707 68.6406 154.707 68.9506 154.507C69.0806 154.407 69.2206 154.307 69.3506 154.197C69.5406 154.017 69.6806 153.807 69.7606 153.567C69.8806 153.277 69.9507 153.177 69.9307 152.807V152.797C70.0207 152.447 70.0207 152.097 69.9307 151.747L69.9007 151.727Z" fill="#D90429"/>
<path d="M43.3106 28.0176C43.3106 28.0176 30.4306 40.7176 23.6406 40.7176C28.8306 53.7676 46.1706 51.0876 43.3106 28.0176Z" fill="#16272B"/>
<path d="M54.4003 29.627C54.4003 29.627 61.2003 40.717 69.9603 39.997C62.6303 51.797 48.1403 43.927 54.4003 29.627Z" fill="#16272B"/>
<path d="M57.8303 50.6971C55.7903 48.1971 52.0803 47.8771 49.3203 49.3071C48.6903 49.6371 48.1203 50.0971 47.6003 50.5671C47.3303 50.8071 47.0703 51.0771 46.7903 51.3071C46.7903 51.3071 46.7003 51.3471 46.6003 51.3871C46.6803 51.3471 46.6303 51.3171 46.5403 51.3771C46.5003 51.3671 46.4503 51.3571 46.4203 51.3471C46.3903 51.3371 46.3603 51.3271 46.3503 51.3171C45.8503 51.0471 45.3903 50.7371 44.9203 50.4071C42.6803 48.8171 39.9603 47.6471 37.5703 49.7471C34.2503 52.6671 36.1603 57.7971 37.8903 61.0471C38.4203 62.0471 39.8103 62.3571 40.7603 61.7971C41.8103 61.1871 42.0003 59.9571 41.5103 58.9271C40.8203 57.4771 40.2603 55.8071 40.2203 54.1871C40.2103 53.7471 40.2203 53.1871 40.3903 52.9471C40.5103 52.7771 40.6603 52.7071 40.7503 52.6771C40.3903 52.8171 41.2003 52.7871 40.8103 52.6871C40.8503 52.6971 40.8803 52.7071 40.9103 52.7171C41.0203 52.7771 41.1203 52.8371 41.2203 52.8971C41.3403 52.9671 41.4503 53.0471 41.5603 53.1271C41.4203 53.0171 41.4503 53.0371 41.6503 53.1971C42.0503 53.5071 42.4203 53.8471 42.8103 54.1671C43.9203 55.0571 45.1103 55.8471 46.5803 55.9171C48.3803 56.0071 49.6103 54.9971 50.9303 53.9271C51.1703 53.7271 51.1103 53.7571 51.4903 53.5471C51.5903 53.4971 51.6303 53.4671 51.6403 53.4571C51.6603 53.4571 51.7203 53.4471 51.8303 53.4071C51.9903 53.3571 52.1503 53.3171 52.3103 53.2871C52.3403 53.2871 52.3703 53.2871 52.4103 53.2871C52.5003 53.2871 53.0803 53.3371 53.0903 53.3171C53.2903 53.3871 53.6803 53.5371 53.6203 53.4871C53.6903 53.5271 53.7603 53.5671 53.8303 53.6171C53.8403 53.6371 53.9003 53.6871 54.0003 53.7771C54.0703 53.8971 54.2303 54.1571 54.2403 54.1971C54.1303 53.9271 54.3303 54.7171 54.3603 54.6971C54.5603 56.2671 53.6403 57.7271 53.0903 59.2471C52.0903 62.0071 56.4503 63.8071 57.8203 61.2371C59.5203 58.0271 60.2903 53.7471 57.8203 50.7171L57.8303 50.6971Z" fill="#16272B"/>
<path d="M43.6105 33.5276C43.2705 34.5776 42.8905 35.6076 42.4105 36.5976C41.2505 38.9776 39.7105 41.1376 37.6405 42.8076C34.5405 45.3176 30.1105 46.3676 26.3105 45.0976C32.4405 51.9176 43.3105 48.7976 43.6105 33.5176V33.5276Z" fill="#16272B"/>
<path d="M66.7504 43.6575C66.6904 43.6575 66.6403 43.6775 66.5803 43.6875C64.3803 43.9575 62.0803 43.5875 60.0903 42.5975C56.7503 40.9275 54.2903 37.7075 53.0403 34.1875C51.5703 43.7875 60.1504 48.8475 66.7504 43.6575Z" fill="#16272B"/>
<path d="M38.1705 58.4368C37.6605 58.2968 37.0805 58.1468 36.5205 57.9668C36.9105 59.0768 37.4105 60.1268 37.8905 61.0368C38.4205 62.0368 39.8105 62.3468 40.7605 61.7868C41.7105 61.2368 41.9505 60.1768 41.6305 59.2268C40.4705 58.9968 39.3005 58.7568 38.1705 58.4368Z" fill="#16272B"/>
<path d="M59.3704 54.6467C58.8204 55.1967 58.3604 55.8367 57.7804 56.3667C57.0304 57.0667 56.1804 57.6367 55.2704 58.1267C54.6004 58.4867 53.9004 58.7667 53.1704 59.0167C53.1404 59.0867 53.1204 59.1567 53.0904 59.2167C52.0904 61.9767 56.4504 63.7767 57.8204 61.2067C58.8604 59.2467 59.5504 56.8767 59.3604 54.6367L59.3704 54.6467Z" fill="#16272B"/>
<path d="M38.5103 22.6474C37.6203 22.1774 36.3903 22.2274 35.6703 23.0174C35.0903 23.6574 34.7403 24.4374 34.3003 25.1674C33.9303 25.7874 33.5403 26.3774 33.1203 26.9574C33.0503 27.0574 32.9703 27.1574 32.9003 27.2574C32.8903 27.2674 32.6903 27.5174 32.6603 27.5574C32.4503 27.8074 32.2403 28.0574 32.0303 28.3074C31.5303 28.8674 31.0103 29.4074 30.4703 29.9274C29.9503 30.4174 29.4103 30.8974 28.8603 31.3574C28.7403 31.4574 28.6103 31.5674 28.4803 31.6674C28.4403 31.6974 28.4303 31.7074 28.4003 31.7274C28.3803 31.7474 28.3603 31.7574 28.3203 31.7874C28.0303 31.9974 27.7403 32.2074 27.4403 32.4174C26.2303 33.2474 24.9403 33.9574 23.6003 34.5474C22.6303 34.9774 22.3603 36.3274 22.7303 37.2074C23.1103 38.1074 24.2403 38.8174 25.2403 38.4374C28.3503 37.2774 31.2803 35.6074 33.7303 33.3574C34.9403 32.2474 36.0103 31.0074 37.0103 29.7074C37.4903 29.0874 37.9303 28.4474 38.3503 27.7774C38.8103 27.0374 39.4103 26.1674 39.5703 25.3074C39.7603 24.3174 39.4503 23.1674 38.4903 22.6574L38.5103 22.6474Z" fill="white"/>
<path d="M69.6803 31.8969C69.5203 30.8169 68.4603 30.0669 67.5203 29.7369C64.3003 28.6169 61.5603 26.5569 59.4803 23.8669C57.7303 21.6169 54.2203 24.4969 55.6003 26.8569C58.0203 30.9869 61.4903 33.8669 65.8803 35.6869C66.8703 36.0969 68.1703 35.5869 68.8903 34.8969C69.8003 34.0069 69.8703 33.0869 69.6803 31.8869V31.8969Z" fill="white"/>
<path d="M32.6505 118.457C31.5605 119.917 30.9305 121.737 30.0305 123.317C29.1305 124.897 28.1205 126.427 27.0005 127.847C24.7105 130.747 22.1005 133.357 19.0905 135.507C17.9105 136.347 18.9905 138.297 20.2505 137.487C23.5805 135.337 26.6705 132.697 29.1505 129.597C30.3805 128.057 31.5105 126.447 32.5105 124.747C33.5405 122.987 34.6205 121.087 34.8705 119.037C35.0305 117.727 33.2705 117.627 32.6605 118.437L32.6505 118.457Z" fill="white"/>
<path d="M53.4504 132.017C53.3004 130.297 53.1004 128.577 52.8904 126.857C52.7004 125.287 52.7204 123.447 51.6604 122.207C51.2104 121.687 50.2004 121.817 49.9004 122.437C49.2704 123.747 49.6204 125.197 49.7904 126.597C49.9804 128.147 50.1504 129.687 50.3004 131.237C50.6004 134.407 50.7704 137.597 50.6804 140.787C50.5304 145.927 50.1204 152.747 46.0404 156.467C44.8104 157.587 46.5904 159.287 47.8404 158.267C52.5304 154.447 53.4704 147.757 53.7504 142.067C53.9104 138.717 53.7504 135.347 53.4604 132.007L53.4504 132.017Z" fill="white"/>
<path d="M68.3106 130.597C66.8706 128.587 65.7106 126.337 64.7106 124.067C64.2406 122.997 63.8506 121.887 63.4706 120.787C63.0606 119.607 62.7806 118.087 61.8906 117.167C61.2506 116.507 60.1706 116.857 59.9106 117.687C59.5106 118.947 60.0906 120.527 60.4906 121.727C60.9106 123.017 61.4706 124.267 62.0706 125.477C63.2506 127.857 64.7706 129.977 66.4306 132.037C67.2806 133.087 69.1006 131.697 68.3106 130.587V130.597Z" fill="white"/>
<path d="M43.3106 158.577C41.2506 158.577 41.2506 161.777 43.3106 161.777C45.3706 161.777 45.3706 158.577 43.3106 158.577Z" fill="white"/>
<path d="M14.7003 136.757C12.6403 136.757 12.6403 139.957 14.7003 139.957C16.7603 139.957 16.7603 136.757 14.7003 136.757Z" fill="white"/>
<path d="M72.2804 132.827C70.2204 132.827 70.2204 136.027 72.2804 136.027C74.3404 136.027 74.3404 132.827 72.2804 132.827Z" fill="white"/>
<path d="M22.3203 8.90664C16.4903 12.6566 11.9903 17.6266 9.11032 23.9666C7.69032 27.0966 6.69033 30.3866 6.18033 33.7866C5.71033 36.8966 4.97033 41.2366 6.71033 44.0366C7.45033 45.2266 9.12032 44.9166 9.57032 43.6666C10.1003 42.1766 9.96032 40.5766 9.98032 38.9966C10.0003 37.4966 10.1003 35.9966 10.3303 34.5166C10.8003 31.4866 11.6803 28.5166 12.8603 25.6966C15.2103 20.1166 19.1303 14.7166 23.9103 10.9766C25.0803 10.0566 23.5603 8.11664 22.3203 8.91664V8.90664Z" fill="white"/>
<path d="M10.0504 49.4873C7.99037 49.4873 7.99037 52.6873 10.0504 52.6873C12.1104 52.6873 12.1104 49.4873 10.0504 49.4873Z" fill="white"/>
<path d="M50.6605 67.9473C50.4405 67.2573 49.7605 66.8573 49.0505 67.0273C48.8405 67.0773 48.6305 67.1173 48.4105 67.1573C48.2605 67.1773 48.2905 67.1773 48.4905 67.1573C48.3405 67.1773 48.1905 67.1973 48.0405 67.2173L47.9505 67.2373C47.8005 67.2573 47.8305 67.2573 48.0305 67.2373C47.8705 67.3173 47.5605 67.2873 47.3805 67.2873C47.1605 67.2873 46.9505 67.2873 46.7305 67.2873C46.6405 67.2873 46.5405 67.2773 46.4505 67.2673C46.4005 67.2673 46.3405 67.2673 46.2905 67.2473C46.1005 67.1873 45.8705 67.1773 45.6905 67.1373C45.4805 67.0873 45.2705 67.0273 45.0605 66.9673C44.9705 66.9373 44.8805 66.9073 44.8005 66.8773C44.7405 66.8573 44.3705 66.6973 44.6605 66.8273C44.3505 66.6973 44.0705 66.6173 43.7405 66.7073C43.4605 66.7873 43.1605 66.9973 43.0205 67.2573C42.7305 67.8073 42.8505 68.5973 43.4505 68.8973C45.3705 69.8673 47.6705 70.2173 49.7505 69.5773C50.4005 69.3773 50.8905 68.6573 50.6705 67.9673L50.6605 67.9473Z" fill="white"/>
</svg>
