<svg width="40" height="40" viewBox="0 0 40 40" fill="none" xmlns="http://www.w3.org/2000/svg">
<g clip-path="url(#clip0_821_1018)">
<path d="M20.0416 4.32202L20.1237 4.32983L20.1676 4.33374H20.6549C21.2258 4.33374 21.5267 5.00463 21.1705 5.42261L21.0739 5.52319C19.1931 7.28478 17.9419 9.60867 17.5035 12.1394L17.4264 12.6511C17.0738 15.3956 17.6939 18.1769 19.1793 20.5115C20.5721 22.7003 22.6428 24.367 25.068 25.2615L25.5573 25.4294C28.0283 26.2199 30.6858 26.1751 33.1217 25.3103L33.6061 25.1267H33.6071C34.1187 24.9191 34.6296 25.3866 34.5035 25.8972L34.4703 25.9998C33.4499 28.4548 31.8225 30.607 29.7448 32.2566L29.3229 32.5798C27.1857 34.1614 24.6835 35.1712 22.0533 35.5183L21.525 35.5789C18.8789 35.8371 16.2135 35.418 13.7789 34.364L13.2955 34.1443C10.8928 33.0059 8.82179 31.2763 7.27502 29.1208L6.97229 28.6843C5.49621 26.4728 4.60926 23.9241 4.39026 21.28L4.3551 20.7498C4.22562 18.0943 4.77407 15.4525 5.94495 13.072L6.18811 12.5994C7.44184 10.2548 9.26972 8.27012 11.4977 6.82983L11.9489 6.54858C14.3793 5.09189 17.1594 4.32195 19.9928 4.32007L20.0416 4.32202Z" stroke="#2B2D42" stroke-width="2"/>
</g>
<defs>
<clipPath id="clip0_821_1018">
<rect width="40" height="40" fill="white"/>
</clipPath>
</defs>
</svg>
