<svg width="164" height="185" viewBox="0 0 164 185" fill="none" xmlns="http://www.w3.org/2000/svg">
<path d="M163.33 79.4435C162.69 73.527 158.86 69.8229 154.25 71.5802C149.81 73.2742 146.86 78.6217 143.33 82.0477C144.01 70.1896 143.96 58.028 141.85 46.5743C137.46 22.7063 121.65 4.50184 102.41 1.20229C91.7199 -0.630799 79.1599 2.03666 71.4799 12.3652C69.4499 15.0958 59.0199 29.7479 56.1199 58.9888C55.7999 62.2125 55.3299 65.4235 54.8899 68.6093C51.4899 64.7156 50.0099 58.3693 46.3399 54.5641C42.9499 51.0496 38.3299 51.4415 35.7999 56.2328C29.0499 69.0644 40.3899 88.1664 46.7399 97.4456C46.7399 97.4456 46.7399 97.4456 46.7499 97.4583C44.2799 101.845 41.0699 105.688 36.7999 108.748C32.4599 111.857 28.0099 117.066 30.2499 124.006C31.3399 127.369 33.2899 129.278 35.5899 130.176C26.7799 134.562 16.3399 139.177 15.4899 150.896C14.4999 164.486 28.8099 165.965 38.5799 164.246C37.7599 168.759 39.1799 174.397 42.3699 177.672C50.7899 186.344 65.7699 183.537 75.5399 181.186C87.1799 178.38 98.8199 173.095 108.31 163.955C117.12 155.472 124.93 144.625 131.14 133.033C134.73 126.32 137.41 119.266 139.32 111.857C145.53 108.33 151.68 101.908 156.7 96.1182C160.38 91.8832 164.04 86.1437 163.32 79.4308L163.33 79.4435Z" fill="white"/>
<path d="M32.2799 177.052C31.5499 175.459 30.2599 174.536 28.8199 174.41C27.3899 174.296 25.9699 174.916 24.8599 176.015C24.2099 176.673 24.0399 177.924 24.1999 178.948C24.1699 179.138 24.1599 179.34 24.1499 179.53C24.0699 183.019 26.9499 184.688 29.3199 184.169C31.9399 183.601 33.6899 180.162 32.2699 177.039L32.2799 177.052Z" fill="white"/>
<path d="M18.16 178.544C17.39 176.23 15.16 175.27 13.45 176.648C12.65 177.292 12.07 178.291 11.82 179.454C11.43 181.325 12.32 183.626 13.87 184.056C14.25 184.157 14.68 184.17 15.08 184.068C15.47 184.207 15.89 184.245 16.32 184.094C18.19 183.436 18.84 180.617 18.15 178.531L18.16 178.544Z" fill="white"/>
<path d="M21.27 168.721C20.97 168.127 20.55 167.71 20.02 167.507C19.9 167.457 19.76 167.457 19.64 167.431C19.5 167.406 19.4 167.381 19.27 167.381C19.02 167.381 18.76 167.419 18.53 167.533C18.11 167.722 17.82 167.912 17.49 168.291C17.06 168.784 16.88 169.555 16.86 170.263C16.85 170.605 16.91 170.933 17.03 171.237C17.11 171.553 17.25 171.818 17.44 172.046C17.57 172.172 17.71 172.311 17.84 172.438C18.15 172.665 18.48 172.779 18.84 172.779C19.01 172.754 19.18 172.741 19.36 172.703C19.48 172.703 19.61 172.703 19.73 172.665C20.01 172.653 20.27 172.539 20.51 172.349C20.75 172.185 20.95 171.957 21.1 171.666C21.29 171.414 21.41 171.11 21.48 170.769C21.6 170.086 21.58 169.328 21.27 168.721Z" fill="white"/>
<path d="M26.0099 124.36C25.5799 122.439 23.8099 121.415 22.3799 122.161C22.0899 122.199 21.7999 122.312 21.5199 122.489C20.6099 123.058 19.9899 124.171 19.6899 125.384C19.5199 126.067 19.6199 127.04 19.9199 127.647C20.2599 128.317 20.7099 128.722 21.3099 129C23.4999 130.024 26.7499 127.647 26.0199 124.373L26.0099 124.36Z" fill="white"/>
<path d="M7.54992 157.836C7.28992 157.381 7.00991 157.015 6.67991 156.737C5.54991 155.523 4.06992 155.232 2.66992 155.864C1.76992 156.281 0.929917 157.015 0.449917 158.089C-0.270083 159.707 -0.130086 161.642 0.899914 162.982C1.98991 164.385 3.68992 164.878 5.16992 164.271C5.88992 163.98 6.59992 163.475 7.10992 162.754C8.03992 161.427 8.44992 159.366 7.54992 157.824V157.836Z" fill="white"/>
<path d="M75.1199 47.8893L94.3699 67.8004C94.3699 67.8004 99.2699 58.951 91.5699 50.9866C83.8699 43.0222 75.1199 47.8893 75.1199 47.8893Z" fill="#262626"/>
<path d="M125.17 52.7563L107.32 68.2427C107.32 68.2427 106.27 58.0659 112.22 52.7563C118.17 47.4467 125.17 52.7563 125.17 52.7563Z" fill="#262626"/>
<path d="M102.08 70.1389C100.47 68.1036 97.47 67.9013 95.87 70.1389C92 75.5497 90.3399 82.6545 91.5299 89.8351C91.8499 91.7567 93.2799 93.4381 94.7599 93.9185C96.4399 94.4621 98.0299 94.0196 99.2599 92.4141C100.85 90.3281 100.46 88.3181 100.33 85.7265C100.18 82.9705 100.67 80.164 102.09 77.9896C103.6 75.6761 103.88 72.4018 102.09 70.1389H102.08Z" fill="#262626"/>
<g style="mix-blend-mode:soft-light">
<path d="M80.7198 46.4477C77.4298 46.612 75.1199 47.8889 75.1199 47.8889L94.3699 67.8C94.3699 67.8 95.6599 65.4612 95.8699 62.1111L80.7198 46.4351V46.4477Z" fill="#1F0806"/>
</g>
<g style="mix-blend-mode:soft-light">
<path d="M107.44 63.2743C107.11 66.1061 107.32 68.2426 107.32 68.2426L125.17 52.7561C125.17 52.7561 123.73 51.6689 121.61 50.9736L107.44 63.2743Z" fill="#1F0806"/>
</g>
<g style="mix-blend-mode:soft-light">
<path d="M97.9099 89.9361C96.4299 89.4684 94.9999 87.787 94.6799 85.8528C93.6799 79.8226 94.6899 73.8556 97.3299 68.8999C96.7799 69.1654 96.2699 69.5699 95.8599 70.1515C91.9899 75.5622 90.3299 82.667 91.5199 89.8476C91.8399 91.7692 93.2699 93.4506 94.7499 93.931C96.4299 94.4746 98.0199 94.0322 99.2499 92.4266C99.8699 91.6175 100.18 90.8211 100.33 89.9994C99.5699 90.2396 98.7399 90.2269 97.8999 89.9488L97.9099 89.9361Z" fill="#1F0806"/>
</g>
<path d="M99.9299 44.2358C98.1499 41.4166 96.7499 38.8503 94.1699 37.0425C91.4899 35.1588 88.9699 34.6784 85.9799 35.0577C83.0199 35.4243 81.9299 41.0121 85.2299 42.0361C86.9599 42.5797 88.9399 43.9829 90.2499 45.5C91.7899 47.2951 92.6399 49.735 93.9999 51.7325C95.4799 53.9069 98.4099 53.654 99.9299 51.7325C101.68 49.5201 101.35 46.486 99.9299 44.2358Z" fill="#C4C7CE"/>
<path d="M116.38 37.9653C113.49 38.2308 110.99 39.2927 108.7 41.5936C106.11 44.1978 104 48.0031 105.42 52.2002C105.95 53.7804 107.77 54.4758 108.99 54.0333C111.27 53.1989 112.05 50.5567 113.54 48.5467C114.77 46.8906 116.16 45.5126 117.79 44.5392C120.26 43.0474 119.09 37.7251 116.38 37.978V37.9653Z" fill="#C4C7CE"/>
<path d="M163.33 79.4435C163.13 77.6357 162.64 76.0302 161.91 74.728C160.64 77.3196 159.65 80.1641 158.39 82.7178C156.24 87.0666 153.5 90.935 150.35 94.1587C148.72 95.8275 146.97 97.3192 145.14 98.6087C143.36 99.8603 141.42 100.707 139.65 101.959C137.9 103.21 136.92 105.094 136.27 107.458C135.52 110.189 134.88 112.932 133.94 115.587C132.11 120.757 129.73 125.574 127.17 130.214C124.46 135.106 121.61 139.935 118.65 144.588C115.75 149.151 112.53 153.273 108.72 156.623C105.01 159.897 100.96 162.501 96.8199 164.789C92.4799 167.191 88.0299 169.303 83.4899 171.035C74.3299 174.524 64.6399 176.382 55.0799 174.878C50.8899 174.22 45.7699 172.286 44.5399 166.446C44.0599 164.157 44.9799 161.882 44.4999 159.632C43.9599 157.065 41.8399 157.053 40.1199 157.179C35.3599 157.533 30.4899 158.367 25.7699 157.078C21.9299 156.029 17.9499 153.45 16.1699 148.785C16.0799 148.532 16.0099 148.279 15.9299 148.014C15.7199 148.924 15.5499 149.872 15.4799 150.883C14.4899 164.473 28.7999 165.953 38.5699 164.233C37.7499 168.746 39.1699 174.385 42.3599 177.659C50.7799 186.331 65.7599 183.525 75.5299 181.173C87.1699 178.367 98.8099 173.083 108.3 163.942C117.11 155.46 124.92 144.613 131.13 133.02C134.72 126.307 137.4 119.253 139.31 111.845C145.52 108.318 151.67 101.896 156.69 96.1056C160.37 91.8706 164.03 86.1311 163.31 79.4182L163.33 79.4435Z" fill="#C4C7CE"/>
<path d="M44.88 74.3488C45.15 75.1579 44.8799 74.2856 44.8199 74.1086C44.6599 73.5397 44.5199 72.9456 44.3999 72.364C44.2899 71.8204 44.17 71.2642 44.08 70.7079C44.04 70.4677 44.0099 70.2276 43.9799 69.9874C43.9799 69.9874 43.9799 69.9873 43.9799 69.9621C43.9699 69.8356 43.9599 69.7219 43.9499 69.5954C43.8699 68.4577 43.8899 67.3325 43.9499 66.1948C43.9499 66.1316 43.9599 66.081 43.9599 66.0431C43.9699 65.9419 43.9799 65.8408 43.9999 65.7396C44.0299 65.4995 44.07 65.2593 44.11 65.0191C44.22 64.387 44.36 63.7549 44.52 63.1354C44.84 61.8838 44.2199 60.4932 43.3099 60.0128C42.4399 59.5451 41.11 59.8864 40.69 61.1C39.75 63.8054 39.1999 66.6372 39.1399 69.5954C39.1099 71.0872 39.1999 72.6169 39.4499 74.0834C39.7099 75.651 40.13 77.5346 40.99 78.723C41.68 79.6711 42.87 79.8734 43.77 79.393C44.63 78.9379 45.42 77.7116 45.33 76.4474C45.28 75.6383 45.13 75.0821 44.88 74.3362V74.3488Z" fill="#DBDBDB"/>
<path d="M89.1999 9.65954C88.9399 8.44591 87.8499 7.61154 86.8699 7.9908C82.2799 9.78596 77.8799 12.8453 74.3999 17.0677C72.6499 19.1789 71.0899 21.5683 69.7399 24.0967C68.3599 26.6756 66.7799 29.735 67.0099 32.984C67.1599 35.1078 69.0099 36.195 70.3099 34.7159C71.9899 32.807 72.7699 30.0005 73.9499 27.6238C75.1099 25.3103 76.1899 23.591 77.7599 21.5683C80.6899 17.801 83.9599 14.6531 87.8799 12.6051C88.8199 12.1121 89.4999 11.0122 89.1999 9.65954Z" fill="#DBDBDB"/>
<path d="M65.3199 40.165C61.9599 40.165 61.9499 46.7642 65.3199 46.7642C68.6899 46.7642 68.6899 40.165 65.3199 40.165Z" fill="#DBDBDB"/>
<path d="M49.3499 114.967C48.8599 114.5 48.2799 114.487 47.7299 114.828C47.6299 114.892 47.5299 114.955 47.4299 115.005C47.4299 115.005 47.2799 115.094 47.1999 115.144C47.0999 115.195 46.7999 115.372 46.7499 115.397C46.6499 115.473 46.5699 115.562 46.4799 115.637C45.9799 116.105 45.4999 116.611 45.0199 117.117C45.0099 117.129 44.9399 117.192 44.8899 117.243C44.8199 117.306 44.6699 117.445 44.6699 117.445C44.4799 117.61 44.2999 117.774 44.0999 117.938C43.6699 118.292 43.2299 118.634 42.7699 118.937C42.3399 119.228 41.9099 119.506 41.4699 119.771C41.3699 119.835 41.2599 119.885 41.1599 119.948C41.1499 119.948 41.1399 119.948 41.1299 119.961C41.0999 119.961 41.0799 119.986 41.0399 119.999C40.8299 120.1 40.6099 120.201 40.3899 120.302C39.8999 120.517 39.4099 120.707 38.9099 120.859C38.6899 120.922 38.4699 120.985 38.2399 121.048C38.0999 121.086 37.9599 121.111 37.8199 121.149C37.7799 121.149 37.4199 121.225 37.6599 121.187C36.7999 121.326 36.0599 122.022 36.0599 123.21C36.0599 124.297 36.7899 125.258 37.6599 125.233C40.0499 125.182 42.4899 124.537 44.6399 123.223C45.6199 122.616 46.5399 121.895 47.4099 121.061C47.9399 120.543 48.4399 120.062 48.8699 119.405C49.3599 118.646 49.6199 117.837 49.8699 116.914C50.0499 116.219 49.7899 115.397 49.3499 114.98V114.967Z" fill="#DBDBDB"/>
<path d="M54.4699 108.305C51.1099 108.305 51.0999 114.904 54.4699 114.904C57.8399 114.904 57.8399 108.305 54.4699 108.305Z" fill="#DBDBDB"/>
<path d="M61.17 150.264C60.67 149.29 59.63 148.848 58.81 149.48C57.69 150.34 56.53 151.174 55.34 151.857C55.21 151.933 55.08 152.008 54.95 152.084C54.89 152.122 54.82 152.148 54.76 152.185C54.46 152.337 54.1499 152.476 53.8499 152.615C53.2199 152.893 52.57 153.134 51.92 153.336C51.03 153.614 50.41 154.941 50.7 156.054C51 157.23 51.8899 157.874 52.8499 157.596C55.5899 156.8 58.32 155.422 60.56 153.26C60.93 152.906 61.2199 152.552 61.3499 151.958C61.4599 151.44 61.41 150.744 61.18 150.277L61.17 150.264Z" fill="#DBDBDB"/>
<path d="M102 96.687C101.45 96.156 100.78 96.1434 100.17 96.5227C100.09 96.5732 100.01 96.6111 99.93 96.6617C99.84 96.7123 99.8699 96.6996 100.01 96.6238C100.22 96.51 100.18 96.5353 99.9099 96.6744C99.5699 96.8514 99.3099 97.1421 99.0299 97.4455C98.7599 97.7363 98.52 98.0776 98.24 98.3684C98.2 98.4063 98.16 98.4442 98.12 98.4948C97.99 98.6086 97.8599 98.7224 97.7199 98.8361C97.4199 99.0763 97.0999 99.2913 96.7799 99.4809C96.7399 99.5062 96.69 99.5188 96.65 99.5441C96.49 99.62 96.33 99.6832 96.17 99.7464C95.85 99.8728 95.53 99.9486 95.2 100.024C95.13 100.024 95.0699 100.037 94.9999 100.05C94.8299 100.062 94.66 100.075 94.49 100.075C94.32 100.075 94.1499 100.075 93.9799 100.062C93.8199 100.062 93.2199 99.936 93.7899 100.062C93.2899 99.9613 92.85 99.9613 92.4 100.29C92.02 100.568 91.6699 101.112 91.5699 101.655C91.3699 102.793 91.84 104.222 92.83 104.474C94.61 104.93 96.5 104.803 98.21 103.956C99.06 103.539 99.86 103.046 100.59 102.351C101.54 101.44 102.4 100.454 102.58 98.8867C102.68 98.0271 102.57 97.2685 101.99 96.6997L102 96.687Z" fill="#DBDBDB"/>
</svg>
