<svg width="161" height="190" viewBox="0 0 161 190" fill="none" xmlns="http://www.w3.org/2000/svg">
<path d="M159.64 90.2131C158.1 87.5077 155.06 86.3826 152.67 85.3712C149.98 84.2334 147.2 83.4496 144.42 82.7796C138.89 81.4648 133.3 80.4661 127.73 79.4295C127.99 72.2488 127.7 65.0302 126.8 57.9002C125.54 47.9256 123.15 38.1155 119.66 29.0132C116.41 20.5431 111.79 12.7936 105.38 7.80001C93.45 -1.50448 77.81 -0.885026 65.23 5.90371C58.42 9.58253 52.38 15.5622 49.07 24.1082C45.51 33.3116 44.69 43.8929 44.04 53.9685C43.4 63.9683 43.6 73.9175 43.62 83.93C43.63 90.5038 43.51 97.2167 42.52 103.702C42.46 103.955 42.41 104.208 42.39 104.473C42.39 104.498 42.39 104.511 42.39 104.536C42.1 106.294 41.76 108.038 41.32 109.758C41.32 109.77 41.31 109.795 41.31 109.808C39.75 114.928 36.84 119.467 33.25 122.4C30.47 124.662 27.02 125.408 24.5 128.164C21.99 130.908 21.26 136.445 23.85 139.479C25.59 141.514 28.11 141.299 30.32 141.4C31.64 141.464 32.97 141.514 34.29 141.577C33.32 143.878 31.66 145.825 30.04 147.228C27.05 149.845 23.62 151.438 20.35 153.372C17.04 155.332 13.31 157.784 11.27 161.779C10.25 163.777 9.7 166.394 10.34 168.694C11.11 171.463 13.09 172.904 15.32 173.182C17.2 173.41 19.17 172.929 21.04 172.613C23.12 172.259 25.19 171.817 27.23 171.21C31.13 170.047 34.95 168.442 38.64 166.482C40.54 165.471 42.39 164.371 44.22 163.157C44.38 163.056 44.66 162.879 44.87 162.74C44.88 162.942 44.9 163.22 44.89 163.322C44.89 163.435 44.86 163.663 44.77 164.004C44.77 163.966 44.56 164.573 44.51 164.674C44.16 165.471 43.86 165.976 43.43 166.558C42.47 167.873 41.56 168.682 40.33 169.592C37.71 171.539 34.84 172.917 32.2 174.813C30.78 175.837 29.24 176.937 28.17 178.53C26.68 180.755 26.39 183.852 27.83 186.229C30.29 190.3 35.51 189.807 39.09 189.364C43.47 188.82 47.73 187.455 51.91 185.736C67.19 179.465 82.59 172.12 95.31 159.415C106.4 148.328 115.33 133.588 120.88 117.153C121.65 114.865 122.37 112.539 123.01 110.187C132.76 110.655 142.68 108.544 151.76 104.119C154.28 102.893 157.22 101.743 159.02 99.0372C160.67 96.5467 161.19 92.969 159.63 90.2131H159.64Z" fill="white"/>
<path d="M115.76 95.864C114.03 93.2724 111.36 92.1346 108.87 91.1865C106.1 90.1499 103.29 89.3281 100.44 88.696C93.88 87.2675 87.36 86.9514 80.74 87.8869C79.71 88.0386 79.65 89.9981 80.74 89.9855C85.9 89.897 91.14 90.3395 96.24 91.3761C98.78 91.8818 101.29 92.5645 103.78 93.3862C106.14 94.17 108.65 94.9411 110.86 96.2938C112.55 97.3305 114.83 99.6187 114.01 102.362C113.33 104.638 110.96 105.75 109.32 106.559C104.8 108.784 99.94 109.985 95.13 110.605C92.44 110.946 89.75 111.085 87.05 111.275C85.7 111.376 84.35 111.439 83 111.515C81.55 111.591 80.09 111.553 78.78 112.412C77.97 112.943 77.96 114.612 78.78 115.143C79.98 115.914 81.23 115.927 82.55 116.003C84.05 116.079 85.55 116.079 87.05 116.091C89.9 116.104 92.74 115.876 95.57 115.497C101.1 114.751 106.46 113.234 111.53 110.326C113.64 109.113 115.84 107.444 116.9 104.713C118.05 101.717 117.4 98.3418 115.75 95.8767L115.76 95.864Z" fill="#C4C7CE"/>
<path d="M86.89 35.6376C73.74 37.1926 81.09 62.5777 88.01 68.0769C91.75 71.0478 96.56 70.3651 98.75 66.2185C105.46 56.4969 97.28 34.3987 86.89 35.6249V35.6376Z" fill="#262626"/>
<path d="M117.99 44.7526C117.61 43.5263 117.16 42.3506 116.62 41.2634C116.61 41.2381 116.6 41.2128 116.59 41.1875C114.64 36.8513 110.65 30.0752 106.08 33.1978C101.61 36.2571 102.62 45.195 103.92 50.1254C105.27 55.2328 107.45 63.5764 112.59 63.7787C117.03 63.9557 119.14 59.1897 119.4 54.3984C119.75 51.2632 119.02 47.7866 117.99 44.7399V44.7526Z" fill="#262626"/>
<path d="M112.63 72.805C112.4 71.7684 111.98 70.757 111.39 69.9859C110.73 69.1262 110.08 68.7343 109.21 68.3045C108.03 67.723 106.43 68.393 105.6 69.5055C104.25 71.3133 103.73 73.8796 104.3 76.2816C104.57 77.4193 105.07 78.5065 105.73 79.3536C106.87 80.7947 108.41 81.3383 109.98 80.8832C111.21 80.5293 112.22 79.1513 112.55 77.6343C112.68 77.0527 112.7 76.4838 112.65 75.9529C112.86 74.9415 112.87 73.867 112.63 72.805Z" fill="#262626"/>
<g style="mix-blend-mode:soft-light">
<path d="M86.89 35.6376C86.4 35.7009 85.95 35.7894 85.52 35.9158C94.4 38.5959 100.48 57.4577 94.42 66.2312C93.53 67.9126 92.2 69.0124 90.69 69.5434C93.8 70.5547 97.05 69.4296 98.74 66.2312C105.45 56.5095 97.27 34.4114 86.88 35.6376H86.89Z" fill="#1F0806"/>
</g>
<g style="mix-blend-mode:soft-light">
<path d="M117.99 44.7525C117.61 43.5262 117.16 42.3505 116.62 41.2633C116.61 41.238 116.6 41.2127 116.59 41.1874C114.67 36.9271 110.78 30.3406 106.32 33.0713C108.89 34.5757 111.01 38.3809 112.27 41.1874C112.28 41.2127 112.29 41.238 112.3 41.2633C112.84 42.3505 113.29 43.5262 113.67 44.7525C114.7 47.7992 115.43 51.2757 115.08 54.4109C114.87 58.2288 113.5 62.0088 110.71 63.3109C111.29 63.589 111.91 63.766 112.59 63.7913C117.03 63.9683 119.14 59.2022 119.4 54.4109C119.75 51.2757 119.02 47.7992 117.99 44.7525Z" fill="#1F0806"/>
</g>
<g style="mix-blend-mode:soft-light">
<path d="M112.63 72.8051C112.4 71.7684 111.98 70.7571 111.39 69.9859C110.73 69.1262 110.08 68.7344 109.21 68.3045C108.23 67.8241 106.96 68.216 106.08 68.9998C106.42 69.2527 106.74 69.5561 107.07 69.9859C107.66 70.7571 108.09 71.7811 108.31 72.8051C108.54 73.867 108.53 74.9416 108.33 75.9529C108.38 76.4965 108.35 77.0528 108.23 77.6343C108 78.6836 107.44 79.6696 106.7 80.2891C107.68 80.9971 108.82 81.2246 109.98 80.8833C111.21 80.5293 112.22 79.1514 112.55 77.6343C112.68 77.0528 112.7 76.4839 112.65 75.9529C112.86 74.9416 112.87 73.867 112.63 72.8051Z" fill="#1F0806"/>
</g>
<path d="M94.82 24.3231C92.93 22.5785 90.34 21.7568 88.03 21.4534C85.63 21.1373 83.61 21.9464 81.34 22.7555C78.37 23.8174 78.81 30.2522 82.1 29.8224C85.19 29.4178 88.2 31.2003 90.93 32.7427C95.46 35.2963 98.86 28.0525 94.82 24.3358V24.3231Z" fill="#C4C7CE"/>
<path d="M105.3 15.4737C103.31 16.0426 101.37 17.2689 100.1 19.3295C98.49 21.9464 97.61 25.385 98.85 28.5076C100.07 31.567 103.88 31.4405 105.12 28.5076C105.41 27.8249 105.63 27.1676 105.71 26.3964C105.72 26.27 105.79 25.6758 105.81 25.4735C105.85 25.2081 105.88 24.9426 105.94 24.6771C105.96 24.5633 106.11 24.0703 106.1 24.0829C106.27 23.5899 106.46 23.0842 106.7 22.6291C106.77 22.49 107.1 22.0855 107.44 21.8579C110.27 19.911 108.29 14.6267 105.31 15.4737H105.3Z" fill="#C4C7CE"/>
<path d="M159.03 99.0372C160.11 97.4064 160.69 95.3078 160.54 93.2725C158.82 94.1953 157.08 95.0676 155.3 95.8261C151.13 97.5834 146.82 98.8602 142.45 99.5429C138.73 100.137 134.95 100.086 131.25 100.858C127.87 101.566 124.56 103.171 122.35 106.622C121.16 108.493 120.3 110.63 119.37 112.703C118.48 114.675 117.55 116.635 116.59 118.544C108.88 133.891 98.78 147.304 87.13 157.949C75.3 168.758 61.74 176.937 47.49 181.122C43.22 182.373 38.84 183.195 34.45 183.144C32.31 183.119 30.16 182.891 28.06 182.398C27.69 182.31 27.32 182.209 26.95 182.095C26.82 183.523 27.09 184.977 27.85 186.229C30.31 190.3 35.53 189.807 39.11 189.364C43.49 188.82 47.75 187.455 51.93 185.736C67.21 179.465 82.61 172.12 95.33 159.415C106.42 148.328 115.35 133.588 120.9 117.153C121.67 114.865 122.39 112.539 123.03 110.187C132.78 110.655 142.7 108.544 151.78 104.119C154.3 102.893 157.24 101.743 159.04 99.0372H159.03Z" fill="#C4C7CE"/>
<path d="M15.33 173.182C17.21 173.41 19.18 172.929 21.05 172.613C23.13 172.259 25.2 171.817 27.24 171.21C31.14 170.047 34.96 168.442 38.65 166.482C40.55 165.471 42.4 164.371 44.23 163.157C44.39 163.056 44.67 162.879 44.88 162.74C44.88 162.904 44.9 163.107 44.9 163.22C45.6 161.236 45.51 158.884 43.84 157.569C43.69 157.443 43.47 157.443 43.31 157.569C38.26 161.476 32.7 164.27 26.89 165.799C23.97 166.558 20.96 167.064 17.98 167.114C16.82 167.127 15.5 167.026 14.52 166.141C13.16 164.914 13.28 162.651 13.56 160.806C13.71 159.794 13.93 158.821 14.2 157.86C13.06 158.985 12.04 160.275 11.27 161.792C10.25 163.789 9.7 166.406 10.34 168.707C11.11 171.476 13.09 172.917 15.32 173.195L15.33 173.182Z" fill="#C4C7CE"/>
<path d="M22.32 133.246C22.03 135.497 22.46 137.861 23.85 139.479C25.59 141.514 28.11 141.299 30.32 141.4C31.61 141.451 32.9 141.514 34.19 141.565C35.45 140.263 36.6 138.796 37.64 137.292C38.38 136.23 39.23 135.092 39.79 133.866C40.27 132.816 40.09 131.653 39.36 130.882C37.54 128.973 35.49 131.299 33.85 132.349C30.33 134.612 26.05 134.864 22.31 133.221L22.32 133.246Z" fill="#C4C7CE"/>
<path d="M5.1 165.433C5.06 165.256 4.99 165.104 4.89 164.978C4.77 164.75 4.62 164.573 4.43 164.447C4.3 164.371 4.17 164.308 4.04 164.232C3.75 164.131 3.46 164.131 3.17 164.232C2.97 164.282 2.77 164.346 2.58 164.384C2.49 164.396 2.4 164.409 2.31 164.434C2.28 164.434 2.25 164.434 2.22 164.447C2.05 164.472 1.84 164.485 1.67 164.535C1.57 164.548 1.48 164.598 1.4 164.662C1.24 164.725 1.1 164.826 0.98 164.978C0.9 165.054 0.81 165.142 0.73 165.218C0.68 165.268 0.64 165.306 0.59 165.357C0.32 165.622 0.169999 166.04 0.0599995 166.444L0 167.038C0 167.342 0.0399996 167.633 0.15 167.898C0.19 168.088 0.269999 168.252 0.379999 168.391C0.509999 168.631 0.669999 168.834 0.879999 168.973C1.21 169.238 1.58 169.301 1.96 169.301C2.36 169.301 2.75 169.225 3.11 168.973C3.25 168.871 3.39 168.758 3.53 168.644C3.67 168.53 3.81 168.416 3.96 168.315C4.12 168.214 4.28 168.113 4.44 168.012C4.63 167.885 4.78 167.708 4.9 167.481C5.04 167.279 5.14 167.051 5.19 166.773L5.25 166.217C5.25 165.926 5.21 165.66 5.11 165.42L5.1 165.433Z" fill="#C4C7CE"/>
<path d="M22.62 182.563C22.42 181.905 22.18 181.374 21.73 180.932C21.33 180.54 20.94 180.401 20.47 180.3C20.07 180.072 19.64 179.946 19.2 179.946C18.12 179.946 17.11 180.553 16.44 181.64C15.64 182.955 15.51 184.8 16.2 186.254C16.84 187.607 17.98 188.517 19.24 188.542C20.44 188.568 21.68 187.733 22.28 186.393C22.78 185.281 23 183.789 22.63 182.563H22.62Z" fill="#C4C7CE"/>
<path d="M13.87 180.148C13.75 179.92 13.61 179.668 13.44 179.491C13.33 179.377 13.21 179.263 13.1 179.162C12.97 178.947 12.81 178.745 12.61 178.618C12.25 178.378 11.95 178.29 11.55 178.252C11.43 178.252 11.3 178.277 11.18 178.29C11.05 178.315 10.92 178.328 10.8 178.378C10.56 178.479 10.31 178.606 10.11 178.795C9.97002 178.922 9.81002 179.073 9.68002 179.238C9.54002 179.415 9.42002 179.63 9.31002 179.832C9.28002 179.895 9.25002 179.958 9.22002 180.022C9.15002 180.211 9.04002 180.489 9.00002 180.73C8.96002 180.97 8.92002 181.21 8.93002 181.463C8.94002 181.678 8.97002 181.893 9.00002 182.095C9.00002 182.145 9.02002 182.196 9.03002 182.234C9.16002 182.727 9.32002 183.106 9.61002 183.473C9.85002 183.789 10.09 183.953 10.39 184.118C10.5 184.181 10.61 184.244 10.73 184.282C10.93 184.345 11.13 184.37 11.33 184.383C11.59 184.408 11.85 184.345 12.1 184.282C12.35 184.219 12.59 184.08 12.82 183.928C12.99 183.814 13.16 183.625 13.29 183.485C13.33 183.435 13.38 183.397 13.41 183.346C13.69 182.942 13.9 182.537 14.01 182.019C14.14 181.412 14.14 180.692 13.85 180.148H13.87Z" fill="#C4C7CE"/>
<path d="M22.3 143.764C22.3 143.537 22.27 143.233 22.24 143.069C22.11 142.488 21.8 142.045 21.4 141.742C21.19 141.59 20.96 141.464 20.72 141.375C20.49 141.287 20.22 141.261 19.99 141.223C19.88 141.211 19.78 141.211 19.67 141.223C19.43 141.249 19.17 141.287 18.92 141.362C18.67 141.451 18.43 141.59 18.2 141.729C17.98 141.868 17.79 142.083 17.61 142.298C17.43 142.525 17.27 142.791 17.14 143.069C17.01 143.335 16.92 143.638 16.84 143.941C16.82 144.005 16.81 144.08 16.8 144.144C16.76 144.409 16.72 144.687 16.72 144.953C16.72 145.623 16.87 146.293 17.14 146.874C17.17 146.938 17.2 146.988 17.23 147.051C17.35 147.254 17.47 147.468 17.6 147.645C17.78 147.898 18 148.088 18.22 148.278C18.42 148.455 18.71 148.581 18.92 148.682C18.97 148.707 19.02 148.72 19.07 148.745C19.28 148.796 19.5 148.834 19.71 148.859C20.19 148.897 20.78 148.695 21.18 148.366C21.38 148.202 21.59 148.012 21.75 147.772C22.08 147.266 22.17 147.064 22.36 146.444C22.39 146.331 22.42 146.23 22.43 146.116C22.47 145.838 22.53 145.458 22.51 145.142C22.49 144.675 22.43 144.194 22.28 143.764H22.3Z" fill="#C4C7CE"/>
<path d="M60.31 25.2206C61.21 23.337 60.64 20.7453 59.15 19.6455C57.54 18.4571 55.75 19.3042 54.74 21.112C50.31 29.0511 48.2201 38.2672 47.2901 47.8119C46.8001 52.8307 46.69 57.9001 46.78 62.9569C46.82 65.4347 46.94 67.8999 47.06 70.3777C47.21 73.1969 47.16 76.2563 47.8 78.9743C48.24 80.858 49.62 82.2359 51.19 82.2359C52.59 82.2359 54.38 80.8706 54.58 78.9743C54.87 76.2816 54.6301 73.7026 54.5001 70.9972C54.3801 68.532 54.28 66.0542 54.21 63.5764C54.06 58.6839 54.08 53.7788 54.45 48.899C55.04 41.0357 56.92 32.3001 60.3201 25.2206H60.31Z" fill="#E8E8E8"/>
<path d="M49.9299 88.2283C46.7399 88.2283 46.7299 94.4987 49.9299 94.4987C53.1299 94.4987 53.1299 88.2283 49.9299 88.2283Z" fill="#E8E8E8"/>
<path d="M60.94 142.703C60.48 143.208 59.98 143.663 59.56 144.207C59.11 144.801 58.72 145.433 58.29 146.053C57.46 147.254 56.56 148.379 55.61 149.428C55.09 149.997 54.83 150.262 54.38 150.68C53.88 151.135 53.37 151.577 52.85 151.994C51.76 152.867 50.61 153.625 49.43 154.283C48.67 154.7 48.44 156.065 48.74 156.937C49.04 157.81 49.94 158.581 50.72 158.164C53.38 156.786 55.81 154.965 58.05 152.677C59.08 151.615 60.04 150.465 60.93 149.226C61.45 148.505 61.95 147.759 62.35 146.925C62.72 146.128 62.94 145.218 63.17 144.333C63.61 142.627 61.89 141.666 60.95 142.703H60.94Z" fill="#DBDBDB"/>
<path d="M52.75 124.182C52.45 123.702 51.82 123.449 51.39 123.841C50.87 124.321 50.36 124.776 49.89 125.332C49.47 125.838 49.05 126.331 48.63 126.837C47.79 127.836 46.95 128.847 46.12 129.846C45.68 130.377 45.67 131.388 46.12 131.906C46.6 132.463 47.28 132.463 47.75 131.906C48.59 130.933 49.42 129.959 50.26 128.986L51.5 127.545C51.71 127.305 51.92 127.077 52.1 126.799C52.29 126.508 52.48 126.217 52.67 125.927C53.01 125.408 53.09 124.738 52.75 124.182Z" fill="#DBDBDB"/>
</svg>
