<svg width="134" height="207" viewBox="0 0 134 207" fill="none" xmlns="http://www.w3.org/2000/svg">
<path d="M10.9475 101.455C14.1775 97.3589 17.8175 93.9456 21.6275 90.8357C21.1475 90.7345 20.6575 90.6334 20.1475 90.5828C17.9475 90.3426 15.7275 90.6081 13.5375 90.6208C10.3575 90.646 6.79751 90.6713 3.86751 88.9394C-1.7025 85.6525 0.397507 78.6362 4.19751 74.3884C8.87751 69.1673 15.6475 68.0422 21.5975 67.1572C30.4075 65.8425 38.8675 66.5884 47.2575 70.3936C47.2875 70.3936 47.3075 70.4189 47.3275 70.4315C59.4675 60.2926 70.4375 25.2744 75.8175 22.038C81.7175 18.4983 89.6875 20.5463 92.1875 28.8521C93.0575 31.7218 93.0775 34.7179 92.7475 37.6888C95.3875 38.6369 97.0975 36.5131 99.1475 33.8962C102.798 29.2187 106.158 23.4792 111.528 21.9875C118.728 19.99 123.628 26.9305 123.248 35.6787C122.858 44.4522 119.388 52.2397 116.148 59.787C114.398 63.845 112.578 67.9537 111.658 72.4669C111.268 74.4011 110.698 77.1191 111.118 79.1418C111.948 83.1873 113.458 79.1166 114.658 76.9295C117.568 71.5946 122.888 57.1574 129.808 60.8236C132.658 62.328 133.368 65.9183 133.658 69.4581C133.948 72.9725 134.858 87.2074 131.438 104.287C127.048 126.233 115.288 145.626 100.958 159.962C98.2575 179.19 87.9175 196.952 73.5475 204.651C69.3575 206.889 62.2475 208.001 62.9675 199.38C63.3175 195.132 66.5775 192.06 68.3075 188.685C69.7675 185.84 70.7075 182.907 71.4575 179.86C70.8575 180.101 70.2475 180.341 69.6375 180.556C44.9675 189.456 7.60751 183.109 0.94751 145.474C-1.88249 129.47 1.8175 113.086 10.9675 101.48L10.9475 101.455Z" fill="white"/>
<path d="M43.0675 149.191C46.1975 147.004 51.7975 144.45 55.2375 146.65C56.5675 147.497 57.2575 148.685 57.5075 150C58.2175 151.39 58.4975 153.16 58.0775 155.132C57.0575 159.911 52.7875 162.604 49.2875 163.767C45.7975 164.93 40.2875 165.398 38.4175 160.467C36.5475 155.537 39.9475 151.378 43.0575 149.203L43.0675 149.191Z" fill="#262626"/>
<path d="M24.1775 125.411C25.1775 121.075 27.7175 114.274 31.3875 112.744C32.8075 112.163 33.9575 112.378 34.8675 113.086C36.1575 113.439 37.3375 114.451 38.1375 116.221C40.0875 120.519 38.5575 126.233 36.7275 130.177C34.8975 134.122 31.2675 139.356 27.1775 137.535C23.0975 135.702 23.1875 129.722 24.1775 125.411Z" fill="#262626"/>
<g style="mix-blend-mode:soft-light">
<path d="M48.8475 155.916C51.9375 154.892 55.6375 152.667 57.1575 148.85C57.3175 149.216 57.4375 149.595 57.5175 149.987C58.2275 151.378 58.5075 153.148 58.0875 155.12C57.0675 159.899 52.7975 162.591 49.2975 163.754C45.8075 164.918 40.2975 165.385 38.4275 160.455C37.5375 158.104 37.8475 155.929 38.7475 154.058C41.0675 157.421 45.7475 156.94 48.8475 155.904V155.916Z" fill="#1F0806"/>
</g>
<g style="mix-blend-mode:soft-light">
<path d="M26.7375 129.697C30.8175 131.53 34.4575 126.284 36.2875 122.34C37.0775 120.633 37.8175 118.585 38.2375 116.474C40.0275 120.734 38.5275 126.322 36.7275 130.19C34.8975 134.134 31.2675 139.368 27.1775 137.548C23.4875 135.892 23.2075 130.835 23.9275 126.688C24.4775 128.003 25.3675 129.09 26.7375 129.697Z" fill="#1F0806"/>
</g>
<path d="M0.927483 145.449C-0.602516 136.802 -0.212517 128.067 1.89748 120.014C1.88748 120.229 1.86749 120.443 1.86749 120.646C1.67748 126.208 2.10748 131.682 3.22749 137.068C5.56748 148.281 10.7075 158.18 17.8775 165.424C24.7275 172.351 33.3375 176.764 42.0075 178.306C50.3575 179.785 61.5375 178.913 67.9675 171.1C70.1175 168.483 74.7075 171.075 73.4075 175.095C73.2975 175.423 73.1775 175.739 73.0675 176.068C73.0675 176.068 73.0775 176.068 73.0875 176.068C73.0775 176.093 73.0575 176.106 73.0475 176.131C72.4875 177.775 71.8575 179.33 71.1775 180.834C71.2675 180.493 71.3675 180.152 71.4475 179.81C70.8475 180.05 70.2375 180.291 69.6275 180.506C44.9575 189.405 7.59749 183.059 0.937492 145.424L0.927483 145.449Z" fill="#DBDBDB"/>
<path d="M19.5275 92.6054C20.2275 91.9986 20.9175 91.4044 21.6275 90.8229C21.1475 90.7218 20.6575 90.6206 20.1475 90.57C17.9475 90.3298 15.7275 90.5953 13.5375 90.608C10.3575 90.6332 6.79751 90.6585 3.86751 88.9266C1.28751 87.3969 0.367521 85.0708 0.487522 82.593C6.69752 81.4805 13.4575 82.1126 19.1175 83.0228C23.6975 83.756 24.1375 92.0239 19.5275 92.6054Z" fill="#DBDBDB"/>
<path d="M106.368 143.603C112.238 135.639 118.978 126.916 122.718 117.017C128.808 100.886 135.367 77.1572 127.327 60.2422C128.127 60.1916 128.947 60.356 129.797 60.8111C132.647 62.3155 133.357 65.9058 133.647 69.4456C133.937 72.96 134.848 87.1949 131.428 104.274C127.038 126.221 115.277 145.613 100.947 159.949C99.8975 167.396 97.6975 174.614 94.5675 181.125C97.2875 172.06 97.1975 162.162 99.2875 152.958C101.768 149.937 104.097 146.688 106.377 143.603H106.368Z" fill="#DBDBDB"/>
<path d="M50.8475 135.967C55.2375 133.161 61.1275 136.334 64.2475 140.569C66.3575 143.426 63.2475 147.08 60.9375 144.753C59.7675 143.59 58.3275 142.832 56.8575 142.592C55.3075 142.339 53.8875 142.996 52.3575 142.958C49.5575 142.882 48.1275 137.712 50.8575 135.967H50.8475Z" fill="#C4C7CE"/>
<path d="M41.9475 108.775C45.4875 113.098 47.2475 118.155 46.4875 124.4C46.3375 125.601 45.2775 126.903 44.3475 127.106C43.4675 127.295 42.7575 127.321 41.9875 126.714C41.1475 126.056 40.3475 124.691 40.4675 123.364C40.7975 119.874 40.7075 115.526 38.8575 112.681C37.0975 109.976 39.8875 106.246 41.9475 108.775Z" fill="#C4C7CE"/>
<path d="M109.097 50.9123C109.577 50.0906 110.027 49.2436 110.437 48.3839C111.177 46.829 111.917 45.0464 112.407 43.4662C113.527 39.8759 114.107 36.1086 114.107 32.2401C114.107 29.1302 117.697 29.206 117.887 32.2401C118.167 36.5763 117.767 41.0136 116.747 45.1602C116.227 47.2841 115.537 49.3573 114.677 51.3042C113.707 53.4786 112.557 56.3484 110.347 56.4369C109.537 56.4748 108.557 55.6278 108.407 54.5658C108.207 53.1626 108.437 52.0375 109.107 50.9123H109.097Z" fill="#DBDBDB"/>
<path d="M82.8875 36.2474C82.8875 36.2474 82.8775 36.1336 82.8675 36.0704C82.8175 35.6912 82.7675 35.3245 82.6975 34.9579C82.5675 34.2247 82.3975 33.4915 82.2075 32.7835C81.8575 31.5446 81.2675 30.154 80.5675 28.8771C79.3575 26.7154 82.1175 23.9973 83.4875 26.0327C85.4175 28.8771 86.7575 32.3031 87.2575 36.0072C87.5075 37.8529 87.5975 39.686 87.4375 41.557C87.3475 42.6063 87.2275 43.6683 87.0175 44.6923C86.8175 45.7036 86.3875 46.6391 85.9575 47.5114C84.7075 50.0651 81.6175 48.3964 82.1575 45.4887C82.2975 44.7555 82.3575 43.9969 82.5075 43.2637C82.6675 42.4925 82.8175 41.7214 82.9175 40.9249C82.9175 40.8997 82.9175 40.887 82.9175 40.8491C82.9275 40.6595 82.9475 40.4698 82.9575 40.2802C82.9775 39.9009 82.9975 39.5217 82.9975 39.1424C82.9975 38.346 82.9975 37.5369 82.9375 36.7405C82.9275 36.5761 82.9075 36.4118 82.8975 36.2348L82.8875 36.2474Z" fill="#DBDBDB"/>
<path d="M28.3275 71.1265C29.6375 70.014 31.4775 70.1404 32.9975 70.1531C34.5075 70.1784 36.0275 70.3301 37.5175 70.6461C40.3575 71.2656 43.1275 72.4666 45.7475 73.9583C47.5075 74.957 46.2475 78.7875 44.4275 77.9279C42.0075 76.7901 39.5375 76.0948 36.9575 75.8799C35.6375 75.7661 34.3275 75.6776 32.9975 75.7408C31.6475 75.804 30.1175 76.2718 28.7975 75.7155C27.1375 75.0076 26.8775 72.3528 28.3275 71.1265Z" fill="#DBDBDB"/>
<path d="M20.4075 144.311C23.8375 143.021 27.6675 143.501 30.3475 146.788C33.3475 150.48 34.1275 155.65 32.6875 160.568C31.7975 163.577 28.5475 165.119 26.2975 163.716C23.9075 162.224 22.9875 159.14 23.7175 156.042C23.5375 156.118 23.3475 156.169 23.6675 156.042C23.6175 156.042 23.5675 156.042 23.5375 156.042C21.2075 156.649 18.5575 155.537 17.6975 152.439C16.8775 149.506 17.7775 145.322 20.4175 144.336L20.4075 144.311Z" fill="#1F0806"/>
<path d="M127.217 51.1018C127.097 50.5835 126.997 50.0652 126.977 49.509C126.887 47.6253 127.827 45.6911 129.427 45.5773C130.817 45.4762 132.047 46.7783 132.657 48.2953C133.357 50.0399 133.247 52.0373 132.527 53.744C132.187 54.5531 131.317 55.2737 130.567 55.1726C130.137 55.1094 129.717 54.9703 129.327 54.7427C129.137 54.6669 128.957 54.5531 128.797 54.3888C127.887 53.6808 127.247 52.5304 127.227 51.0892L127.217 51.1018Z" fill="#DBDBDB"/>
<path d="M126.668 34.389C126.908 33.0363 128.138 32.2651 129.148 32.6065C130.018 32.8972 130.838 33.6305 131.308 34.6165C131.828 35.6911 131.868 36.9679 131.678 38.1563C131.498 39.3067 130.568 40.1411 129.648 40.2296C129.618 40.2296 129.598 40.2675 129.568 40.2675C128.958 40.4824 128.238 40.2675 127.788 39.6733C126.708 38.2321 126.328 36.3106 126.668 34.3763V34.389Z" fill="#DBDBDB"/>
<path d="M105.877 164.247C106.217 162.705 107.237 161.478 108.347 160.796C109.637 159.999 111.267 159.57 112.587 160.518C113.767 161.365 114.377 163.008 114.367 164.69C114.337 168.217 111.457 170.606 108.847 170.492C108.057 170.454 107.197 169.961 106.817 169.026C106.667 168.659 106.577 168.305 106.537 167.951C105.867 166.952 105.587 165.562 105.877 164.26V164.247Z" fill="#DBDBDB"/>
<path d="M96.1475 21.0266C94.5275 17.9546 95.4575 13.2644 98.1075 11.5198C98.9175 10.9889 100.158 10.9889 100.798 11.9623C102.928 15.1987 102.468 19.99 99.6275 22.2782C99.5375 22.3667 99.4575 22.4678 99.3575 22.5563C98.9575 22.9229 98.4775 22.9735 98.0075 22.8471C97.1775 22.7206 96.4975 21.9621 96.1475 21.014V21.0266Z" fill="#DBDBDB"/>
<path d="M93.2475 3.21391C93.3175 2.11406 93.8275 1.00156 94.7375 0.736083C95.5875 0.495886 96.6075 0.875145 97.0275 1.91179C97.1775 2.2784 97.3375 2.64502 97.4875 3.01164C98.1275 3.75751 98.3375 4.97114 97.8775 5.96986C97.4775 6.82951 96.7875 7.53746 96.0075 7.72709C95.2175 7.92937 94.2075 7.61332 93.8275 6.60196C93.4275 5.54003 93.1675 4.38961 93.2475 3.18862V3.21391Z" fill="#DBDBDB"/>
<path d="M48.4875 52.9222C50.2675 53.2256 51.4775 55.0713 51.4075 57.3469C51.3475 59.5339 50.0475 61.3038 48.4375 61.8601C48.3775 61.9233 48.3175 61.9991 48.2475 62.0623C47.6375 62.6565 47.0075 63.0105 46.2175 62.745C45.5475 62.5174 44.9075 61.7842 44.7575 60.8993C44.2475 57.8399 45.1675 52.3659 48.4875 52.9222Z" fill="#DBDBDB"/>
<path d="M82.6775 12.6193C82.5375 11.2666 82.9675 9.86335 83.7375 8.9152C84.2975 8.23254 85.0875 7.94177 85.8475 8.20725C86.6275 8.47274 87.0875 9.20597 87.3675 10.1288C88.0975 12.594 87.0475 16.374 84.6275 16.2096C83.5375 16.1338 82.5675 15.0845 82.5875 13.6307C82.5875 13.2767 82.6175 12.948 82.6775 12.6193Z" fill="#DBDBDB"/>
<path d="M101.408 98.117C101.968 97.1057 102.608 96.1449 103.248 95.2094C103.398 94.9818 103.548 94.7543 103.698 94.5267C103.768 94.4256 103.828 94.3244 103.898 94.2233C103.898 94.2233 104.018 94.021 104.068 93.9578C104.098 93.8946 104.168 93.7935 104.178 93.7809C104.258 93.6544 104.328 93.5154 104.408 93.389C104.548 93.1488 104.678 92.9085 104.818 92.6684C105.868 90.7594 106.758 88.7114 107.488 86.5749C107.788 85.7153 108.748 85.4624 109.368 85.7911C109.988 86.1198 110.518 87.1565 110.238 88.0287C109.488 90.3675 108.598 92.6304 107.498 94.7416C106.368 96.9034 105.098 99.1031 103.398 100.608C102.228 101.632 100.608 99.5835 101.418 98.1044L101.408 98.117Z" fill="#DBDBDB"/>
<path d="M94.9375 104.653C98.1275 104.653 98.1375 110.924 94.9375 110.924C91.7375 110.924 91.7375 104.653 94.9375 104.653Z" fill="#DBDBDB"/>
<path d="M85.5475 60.9875C85.7775 60.3681 85.9775 59.7107 86.2375 59.1039C86.4975 58.5097 86.8375 57.9408 87.1275 57.3719C87.6875 56.2847 88.2375 55.1975 88.7675 54.0976C89.8575 51.8221 90.8775 49.4833 91.8075 47.0813C92.2175 46.0447 93.6675 46.7906 93.3075 47.8778C92.4675 50.4315 91.5475 52.9346 90.5275 55.3871C90.0175 56.6134 89.5075 57.827 88.9375 59.0027C88.6475 59.6095 88.3675 60.2669 87.9975 60.8232C87.6575 61.3415 87.2775 61.8219 86.9075 62.3149C86.1875 63.2883 85.1175 62.0621 85.5275 60.9749L85.5475 60.9875Z" fill="#DBDBDB"/>
</svg>
