<svg width="92" height="218" viewBox="0 0 92 218" fill="none" xmlns="http://www.w3.org/2000/svg">
<path d="M91.3411 56.0424C91.4711 49.6582 90.8311 43.1855 88.9311 37.2564C88.3311 34.766 87.5911 32.3134 86.6611 29.9494C80.0011 12.9965 66.1211 2.92084 51.5511 1.0119C37.7111 -0.808545 22.3711 4.50108 12.4711 17.3074C7.33111 23.9571 4.36112 32.2502 3.36112 41.4283C2.21112 51.997 2.46112 62.9323 2.92112 73.5642C3.03112 76.1432 5.63111 91.756 6.38111 97.0403C7.48111 104.891 8.67113 112.995 8.96113 120.959C9.42113 133.803 7.30111 146.015 3.06111 157.368C3.06111 157.38 3.06111 157.406 3.06111 157.418C1.60111 161.236 -0.048891 165.13 0.00110903 169.479C0.051109 173.36 1.44113 177.001 3.83113 179.428C8.59113 184.245 15.3711 184.358 20.4711 180.313C25.1011 176.634 28.1511 170.806 30.9811 164.89C31.2111 166.394 31.3911 167.924 31.4811 169.479C31.7511 174.081 31.3911 178.543 30.7411 183.056C29.5311 191.451 28.6411 201.931 34.5011 208.1C39.8311 213.726 47.2611 211.69 51.9511 205.888C57.1311 199.478 57.7211 189.896 57.5611 181.249C57.4711 175.914 57.2011 170.604 57.2611 165.256C57.2911 162.26 57.4211 159.289 57.6211 156.306C58.3211 159.201 59.0011 162.058 60.0511 164.814C62.3311 170.832 66.4211 176.141 71.7711 177.393C77.0511 178.619 82.6611 176.116 84.9911 169.656C87.4311 162.867 85.7811 155.421 84.6211 148.493C83.3011 140.605 82.2811 132.653 82.3311 124.575C82.3911 116.951 83.3511 109.442 84.6111 101.996C87.1911 86.8256 91.0111 71.6805 91.3411 56.0424Z" fill="white"/>
<path d="M41.4411 118.342C41.0711 114.613 40.6311 110.884 40.1211 107.179C39.8711 105.346 39.6011 103.513 39.3111 101.693C39.0311 99.885 38.8511 97.9381 38.0411 96.3705C37.6411 95.5994 36.4211 95.5488 36.2911 96.6613C35.9811 99.2529 36.7211 101.958 37.1011 104.499C37.5111 107.293 37.8911 110.112 38.2211 112.932C38.8511 118.292 39.9311 124.398 38.9511 129.771C38.2011 133.879 35.5511 138.19 31.8411 137.154C28.0711 136.104 26.1611 130.807 25.0511 126.635C23.4611 120.694 22.1011 114.626 20.6111 108.646C20.1111 106.661 17.7111 107.47 18.1311 109.506C19.4311 115.738 20.5811 122.072 22.1811 128.19C23.5111 133.272 25.6711 138.456 29.8111 140.554C33.7911 142.577 37.8711 139.821 40.0411 135.485C42.5911 130.403 42.0111 123.981 41.4411 118.33V118.342Z" fill="#C4C7CE"/>
<path d="M72.5111 103.69C72.3411 101.983 70.2011 101.187 69.8911 103.235C69.4111 106.446 69.4311 109.746 68.9111 112.957C68.3911 116.168 67.6411 119.328 66.6711 122.362C65.1911 127.002 62.1411 135.775 57.0011 134.056C52.6311 132.602 53.3811 123.525 53.5011 119.341C53.7011 112.299 54.5011 105.346 55.9211 98.5321C56.2611 96.8887 54.2811 96.1934 53.9011 97.8242C52.4711 103.981 51.4911 110.327 51.0811 116.737C50.7511 121.781 50.2711 127.773 51.9711 132.539C53.6911 137.343 57.8811 138.885 61.5911 136.736C65.5811 134.435 67.6511 128.721 69.2311 123.879C70.2811 120.656 71.1011 117.318 71.6611 113.905C72.1911 110.694 72.8411 106.939 72.5111 103.665V103.69Z" fill="#C4C7CE"/>
<path d="M18.8511 186.394C17.6011 186.015 16.2311 186.533 15.3511 187.734C14.5611 188.821 14.1511 190.3 14.4711 191.767C14.6511 192.576 15.0611 193.347 15.5911 193.878C16.2111 194.662 17.0911 195.129 17.9511 195.167C19.1611 195.218 20.3211 194.409 20.9511 193.119C22.1711 190.629 21.1611 187.089 18.8511 186.394Z" fill="white"/>
<path d="M10.8811 192.727C10.8111 192.335 10.6711 192.006 10.4611 191.716C10.2911 191.387 10.0711 191.134 9.80112 190.945C9.61112 190.843 9.43112 190.742 9.24112 190.641C8.99112 190.553 8.73111 190.54 8.48111 190.553C8.46111 190.553 8.4311 190.553 8.4111 190.54C8.3811 190.54 8.35112 190.54 8.33112 190.54C8.10112 190.565 7.87111 190.603 7.64111 190.654C7.61111 190.654 7.5811 190.666 7.5611 190.679C7.3511 190.78 7.13112 190.881 6.93112 191.02C6.91112 191.033 6.88111 191.058 6.86111 191.071C6.78111 191.147 6.69111 191.235 6.61111 191.324C6.52111 191.4 6.44111 191.488 6.36111 191.577C6.35111 191.589 6.33111 191.602 6.32111 191.627C6.30111 191.653 6.2711 191.69 6.2511 191.728C6.1111 191.943 5.9711 192.158 5.8511 192.386C5.8411 192.398 5.83111 192.424 5.82111 192.436C5.68111 192.727 5.57111 193.132 5.48111 193.397C5.45111 193.486 5.4311 193.561 5.4111 193.65C5.4011 193.688 5.3911 193.738 5.3811 193.789C5.3511 193.953 5.35111 194.042 5.32111 194.269C5.30111 194.459 5.28112 194.598 5.27112 194.762C5.27112 195.344 5.39112 195.888 5.62112 196.381C5.85112 196.861 6.1511 197.253 6.5311 197.531C6.5511 197.544 6.56112 197.556 6.58112 197.569C6.58112 197.569 6.60111 197.569 6.61111 197.582C6.79111 197.683 7.05111 197.822 7.23111 197.91C7.27111 197.936 7.3111 197.948 7.3511 197.948C7.4711 197.974 7.62112 197.999 7.71112 198.011C7.79112 198.024 7.95111 198.062 8.07111 198.075C8.09111 198.075 8.1111 198.075 8.1311 198.075C8.1511 198.075 8.1711 198.075 8.1911 198.075C8.3111 198.075 8.46112 198.024 8.55112 198.011C8.65112 197.999 8.80111 197.974 8.92111 197.948C8.94111 197.948 8.96111 197.948 8.98111 197.936C8.98111 197.936 9.00111 197.936 9.01111 197.936C9.21111 197.834 9.41111 197.721 9.61111 197.62C9.78111 197.455 9.95112 197.291 10.1211 197.126C10.1611 197.076 10.4911 196.532 10.5211 196.469C10.5411 196.431 10.7711 195.736 10.7811 195.698C10.7811 195.685 10.7811 195.673 10.7811 195.66C10.7811 195.66 10.7811 195.647 10.7811 195.635C10.8011 195.508 10.8611 194.939 10.8711 194.813C10.8711 194.8 10.8711 194.788 10.8711 194.775C10.8711 194.762 10.8711 194.75 10.8711 194.737C10.8711 194.687 10.8611 194.611 10.8511 194.535C10.9011 194.345 10.9411 194.143 10.9411 193.928C11.0111 193.536 11.0011 193.132 10.9011 192.74L10.8811 192.727Z" fill="white"/>
<path d="M31.4311 210.957C31.4111 210.793 31.4011 210.603 31.3711 210.426C31.3711 210.388 31.3511 210.35 31.3411 210.313C31.2711 210.06 31.1711 209.731 31.0611 209.491C30.9411 209.2 30.7611 208.935 30.5811 208.694C30.5611 208.669 30.5411 208.644 30.5211 208.618C30.3711 208.441 30.1411 208.227 29.9711 208.088C29.9211 208.037 29.8611 208.012 29.8011 207.974C29.8111 207.974 29.8211 207.974 29.8311 207.986C29.8211 207.986 29.8111 207.986 29.8011 207.974C29.6211 207.86 29.4311 207.771 29.2511 207.683L29.4311 207.771C29.0811 207.594 28.8211 207.506 28.3111 207.481C28.0411 207.468 27.7611 207.557 27.4911 207.607C27.4211 207.62 27.3611 207.632 27.2911 207.658C26.6411 207.911 25.9711 208.353 25.5411 209.036C25.3111 209.402 25.0811 209.731 24.9211 210.148C24.7511 210.591 24.5811 211.058 24.4811 211.539C24.3711 212.019 24.3311 212.538 24.2911 213.018C24.2911 213.081 24.2811 213.144 24.2811 213.195C24.2711 213.372 24.2811 213.536 24.3211 213.701C24.3211 213.878 24.3511 214.042 24.3811 214.206C24.3911 214.257 24.4111 214.32 24.4211 214.371C24.5711 214.927 24.7711 215.433 25.1211 215.862C25.2911 216.09 25.4811 216.254 25.6911 216.381C25.9711 216.671 26.3011 216.848 26.6411 217C26.9411 217.139 27.2811 217.177 27.5911 217.19C27.9111 217.19 28.2411 217.139 28.5411 217.025C28.7711 216.937 29.0611 216.773 29.2411 216.671C29.3111 216.634 29.3711 216.596 29.4411 216.532C29.6911 216.305 29.9711 216.052 30.1811 215.749C30.3911 215.433 30.6111 215.091 30.7711 214.725C31.0011 214.194 31.1911 213.612 31.3211 213.031C31.4211 212.613 31.4511 212.146 31.4811 211.716C31.4811 211.64 31.4811 211.551 31.4811 211.476C31.4811 211.311 31.4511 211.122 31.4311 210.97V210.957Z" fill="white"/>
<path d="M67.4012 182.399C67.3712 182.096 67.3511 181.78 67.3011 181.477C67.3011 181.439 67.2811 181.401 67.2711 181.35C67.2511 181.287 67.2312 181.224 67.2112 181.161C67.1512 180.946 67.0712 180.693 66.9912 180.516C66.9912 180.503 66.9811 180.49 66.9711 180.478C66.8511 180.276 66.7311 180.086 66.6111 179.884C66.5311 179.783 66.4511 179.707 66.3611 179.631C66.2811 179.542 66.1911 179.454 66.1011 179.378H66.0811C65.8911 179.264 65.7111 179.163 65.5211 179.062C65.1011 178.91 64.5712 178.872 64.1512 179.049C64.0512 179.1 63.9511 179.15 63.8511 179.214C63.7411 179.264 63.6411 179.327 63.5311 179.391C63.5011 179.416 63.4811 179.429 63.4511 179.454C62.9711 179.871 62.6912 180.225 62.3712 180.844C62.2812 181.009 62.2011 181.198 62.1311 181.375C61.9711 181.78 61.8312 182.197 61.7112 182.627C61.6812 182.715 61.6711 182.817 61.6611 182.918C61.6111 183.284 61.5311 183.651 61.5411 184.018C61.5411 184.182 61.5411 184.346 61.5811 184.511C61.5811 184.675 61.6011 184.839 61.6411 184.991C61.6411 185.029 61.6511 185.067 61.6611 185.092C61.6711 185.143 61.6811 185.193 61.7011 185.257C61.7811 185.509 61.8711 185.762 61.9511 186.002C62.1111 186.369 62.3211 186.66 62.5911 186.887C62.8911 187.178 63.0111 187.33 63.4411 187.456C63.4611 187.456 63.4911 187.456 63.5111 187.456C63.6211 187.532 63.7511 187.595 63.8811 187.633C64.3711 187.772 64.9511 187.76 65.3811 187.38C65.7111 187.09 66.0611 186.774 66.3111 186.369C66.4911 186.091 66.6711 185.813 66.8211 185.509C66.9711 185.181 67.0811 184.827 67.1911 184.473C67.2311 184.334 67.2711 184.182 67.2911 184.03C67.3511 183.651 67.3911 183.259 67.4211 182.867C67.4211 182.703 67.4211 182.538 67.4211 182.374L67.4012 182.399Z" fill="white"/>
<path d="M56.8711 212.79C56.8811 212.398 56.8211 212.031 56.6711 211.69C56.5811 211.336 56.4211 211.033 56.2011 210.767C55.9911 210.489 55.7511 210.287 55.4711 210.173C55.2011 209.996 54.9111 209.907 54.6011 209.92C54.1911 209.92 53.8111 210.047 53.4511 210.312C53.2711 210.476 53.1011 210.653 52.9211 210.818C52.8911 210.843 52.8711 210.868 52.8511 210.906C52.8111 210.957 52.7711 211.007 52.7311 211.071C52.5911 211.298 52.4411 211.513 52.3211 211.753C52.3011 211.791 52.2811 211.829 52.2711 211.854C52.1911 212.031 52.1311 212.234 52.0711 212.423C52.0211 212.575 51.9611 212.727 51.9211 212.878C51.7611 213.447 51.8111 214.016 51.9111 214.598C51.9211 214.674 51.9411 214.749 51.9611 214.825C51.9611 214.825 51.9611 214.85 51.9611 214.863C52.0411 215.103 52.1211 215.344 52.2011 215.584C52.3511 215.938 52.5511 216.216 52.8111 216.431C52.8911 216.519 52.9711 216.608 53.0611 216.671C53.2511 216.772 53.4311 216.873 53.6211 216.974C53.6211 216.974 53.6311 216.974 53.6411 216.974C53.6411 216.974 53.6511 216.974 53.6611 216.974C53.8511 217.05 54.0511 217.088 54.2611 217.075C54.4611 217.038 54.6611 217.012 54.8611 216.974C55.1411 216.886 55.3911 216.722 55.6011 216.494C55.5411 216.557 55.4811 216.608 55.4211 216.671C55.4211 216.671 55.4211 216.671 55.4311 216.658C55.5211 216.57 55.8411 216.279 55.9111 216.178C56.0611 216.001 56.1811 215.799 56.2911 215.571C56.3711 215.331 56.4511 215.091 56.5311 214.85C56.5311 214.838 56.5311 214.825 56.5311 214.813C56.5411 214.749 56.5611 214.674 56.5811 214.61C56.6111 214.471 56.6311 214.193 56.6311 214.168C56.6511 214.003 56.6611 213.928 56.6711 213.877C56.7811 213.536 56.8611 213.169 56.8611 212.79H56.8711Z" fill="white"/>
<path d="M69.7711 192.474C69.7111 192.145 69.5911 191.867 69.4211 191.627C69.2811 191.349 69.1011 191.147 68.8711 190.982C68.7811 190.919 68.6911 190.881 68.6011 190.843C68.5011 190.755 68.4111 190.654 68.3111 190.565C68.1311 190.414 67.9311 190.338 67.7211 190.325C67.5811 190.274 67.4411 190.274 67.3011 190.325C67.0911 190.325 66.8911 190.414 66.7111 190.565L66.3911 190.881C66.1911 191.134 66.0611 191.425 65.9811 191.766C65.9511 191.88 65.9411 192.006 65.9211 192.12C65.8511 192.285 65.7611 192.588 65.7111 192.765C65.7111 192.765 65.7111 192.79 65.7011 192.803C65.6611 192.929 65.6611 193.119 65.6511 193.22C65.6011 193.46 65.6011 193.688 65.6511 193.928C65.6511 194.054 65.6711 194.168 65.6911 194.295C65.7311 194.522 65.8011 194.737 65.9011 194.939C66.0111 195.116 66.1211 195.293 66.2311 195.47C66.2411 195.483 66.2611 195.508 66.2711 195.521C66.3611 195.622 66.5911 195.85 66.7011 195.938C66.7011 195.938 66.7111 195.938 66.7211 195.951C66.8811 196.077 67.0811 196.166 67.2411 196.229C67.2511 196.229 67.2711 196.229 67.2811 196.241C67.3711 196.254 67.4611 196.279 67.5511 196.292C67.7311 196.355 67.9011 196.355 68.0811 196.292C68.3911 196.241 68.5111 196.241 68.8211 195.989C68.9511 195.862 69.0911 195.736 69.2211 195.597C69.4111 195.369 69.5511 195.104 69.6311 194.8C69.7511 194.434 69.8211 194.307 69.8011 193.84V193.827C69.8911 193.384 69.8911 192.942 69.8011 192.499L69.7711 192.474Z" fill="white"/>
<path d="M43.1811 36.0811C43.1811 36.0811 30.3011 52.1364 23.5111 52.1364C28.7011 68.6341 46.0411 65.2461 43.1811 36.0811Z" fill="#262626"/>
<path d="M54.2711 38.1162C54.2711 38.1162 61.0711 52.1362 69.8311 51.2259C62.5011 66.1435 48.0111 56.1942 54.2711 38.1162Z" fill="#262626"/>
<path d="M57.7011 64.7525C55.6611 61.592 51.9511 61.1875 49.1911 62.9953C48.5611 63.4125 47.9911 63.994 47.4711 64.5882C47.2011 64.8916 46.9411 65.2329 46.6611 65.5237C46.6611 65.5237 46.5711 65.5742 46.4711 65.6248C46.5511 65.5742 46.5011 65.5363 46.4111 65.6122C46.3711 65.5995 46.3211 65.5869 46.2911 65.5742C46.2611 65.5616 46.2311 65.5489 46.2211 65.5363C45.7211 65.195 45.2611 64.8031 44.7911 64.3859C42.5511 62.3758 39.8311 60.8967 37.4411 63.5515C34.1211 67.243 36.0311 73.7283 37.7611 77.8369C38.2911 79.1011 39.6811 79.493 40.6311 78.7851C41.6811 78.0139 41.8711 76.459 41.3811 75.1568C40.6911 73.3238 40.1311 71.2126 40.0911 69.1646C40.0811 68.6083 40.0911 67.9004 40.2611 67.5969C40.3811 67.382 40.5311 67.2935 40.6211 67.2556C40.2611 67.4326 41.0711 67.3947 40.6811 67.2683C40.7211 67.2809 40.7511 67.2935 40.7811 67.3062C40.8911 67.382 40.9911 67.4579 41.0911 67.5337C41.2111 67.6222 41.3211 67.7234 41.4311 67.8245C41.2911 67.6854 41.3211 67.7107 41.5211 67.913C41.9211 68.3049 42.2911 68.7347 42.6811 69.1393C43.7911 70.2644 44.9811 71.2631 46.4511 71.3516C48.2511 71.4654 49.4811 70.1886 50.8011 68.8359C51.0411 68.583 50.9811 68.6209 51.3611 68.3555C51.4611 68.2923 51.5011 68.2543 51.5111 68.2417C51.5311 68.2417 51.5911 68.229 51.7011 68.1785C51.8611 68.1153 52.0211 68.0647 52.1811 68.0268C52.2111 68.0268 52.2411 68.0268 52.2811 68.0268C52.3711 68.0268 52.9511 68.09 52.9611 68.0647C53.1611 68.1532 53.5511 68.3428 53.4911 68.2796C53.5611 68.3302 53.6311 68.3808 53.7011 68.444C53.7111 68.4692 53.7711 68.5325 53.8711 68.6462C53.9411 68.7979 54.1011 69.1266 54.1111 69.1772C54.0011 68.8359 54.2011 69.8346 54.2311 69.8093C54.4311 71.7941 53.5111 73.6398 52.9611 75.5614C51.9611 79.0506 56.3211 81.3261 57.6911 78.0771C59.3911 74.0191 60.1611 68.6083 57.6911 64.7778L57.7011 64.7525Z" fill="#262626"/>
<path d="M43.4811 43.0468C43.1411 44.3742 42.7611 45.6764 42.2811 46.9279C41.1211 49.9367 39.5811 52.6674 37.5111 54.7786C34.4111 57.9517 29.9812 59.2791 26.1812 57.6736C32.3112 66.2954 43.1811 62.3511 43.4811 43.0342V43.0468Z" fill="#1F0806"/>
<path d="M66.6211 55.8528C66.5611 55.8528 66.5111 55.8781 66.4511 55.8907C64.2511 56.2321 61.9511 55.7643 59.9611 54.5128C56.6211 52.4015 54.1611 48.3308 52.9111 43.8809C51.4411 56.0172 60.0211 62.414 66.6211 55.8528Z" fill="#1F0806"/>
<path d="M38.0411 74.5375C37.5311 74.3605 36.9511 74.1709 36.3911 73.9434C36.7811 75.3466 37.2811 76.674 37.7611 77.8244C38.2911 79.0886 39.6811 79.4805 40.6311 78.7726C41.5811 78.0773 41.8211 76.7372 41.5011 75.5362C40.3411 75.2455 39.1711 74.9421 38.0411 74.5375Z" fill="#1F0806"/>
<path d="M59.2411 69.746C58.6911 70.4414 58.2311 71.2504 57.6511 71.9205C56.9011 72.8054 56.0511 73.526 55.1411 74.1454C54.4711 74.6006 53.7711 74.9545 53.0411 75.2706C53.0111 75.3591 52.9911 75.4476 52.9611 75.5234C51.9611 79.0126 56.3211 81.2882 57.6911 78.0392C58.7311 75.5613 59.4211 72.5652 59.2311 69.7334L59.2411 69.746Z" fill="#1F0806"/>
<path d="M38.3811 29.2923C37.4911 28.6982 36.2612 28.7614 35.5412 29.7601C34.9612 30.5692 34.6112 31.5552 34.1712 32.4781C33.8012 33.2619 33.4112 34.0078 32.9912 34.741C32.9212 34.8674 32.8412 34.9939 32.7712 35.1203C32.7612 35.1329 32.5611 35.449 32.5311 35.4995C32.3211 35.8156 32.1112 36.1316 31.9012 36.4477C31.4012 37.1556 30.8811 37.8383 30.3411 38.4957C29.8211 39.1151 29.2812 39.722 28.7312 40.3035C28.6112 40.4299 28.4811 40.569 28.3511 40.6954C28.3111 40.7333 28.3012 40.7459 28.2712 40.7712C28.2512 40.7965 28.2311 40.8092 28.1911 40.8471C27.9011 41.1126 27.6111 41.378 27.3111 41.6435C26.1011 42.6928 24.8111 43.5904 23.4711 44.3363C22.5011 44.8799 22.2311 46.5865 22.6011 47.699C22.9811 48.8368 24.1112 49.7344 25.1112 49.254C28.2212 47.7875 31.1511 45.6763 33.6011 42.8319C34.8111 41.4286 35.8811 39.861 36.8811 38.2176C37.3611 37.4338 37.8011 36.6247 38.2211 35.7777C38.6811 34.8421 39.2811 33.7423 39.4411 32.6551C39.6311 31.4035 39.3212 29.9497 38.3612 29.305L38.3811 29.2923Z" fill="#C4C7CE"/>
<path d="M69.5511 40.9855C69.3911 39.6202 68.3311 38.672 67.3911 38.2548C64.1711 36.8389 61.4311 34.2347 59.3511 30.834C57.6011 27.9896 54.0911 31.6304 55.4711 34.6139C57.8911 39.8351 61.3611 43.476 65.7511 45.7768C66.7411 46.2951 68.0411 45.6504 68.7611 44.7781C69.6711 43.653 69.7411 42.4899 69.5511 40.9729V40.9855Z" fill="#C4C7CE"/>
<path d="M32.5211 150.415C31.4311 152.261 30.8011 154.562 29.9011 156.559C29.0011 158.556 27.9911 160.491 26.8711 162.286C24.5811 165.952 21.9711 169.252 18.9611 171.97C17.7811 173.032 18.8611 175.497 20.1211 174.473C23.4511 171.755 26.5411 168.417 29.0211 164.498C30.2511 162.551 31.3811 160.516 32.3811 158.367C33.4111 156.142 34.4911 153.74 34.7411 151.148C34.9011 149.492 33.1411 149.366 32.5311 150.39L32.5211 150.415Z" fill="#DBDBDB"/>
<path d="M53.3211 167.557C53.1711 165.383 52.9711 163.208 52.7611 161.034C52.5711 159.049 52.5911 156.723 51.5311 155.156C51.0811 154.498 50.0711 154.662 49.7711 155.446C49.1411 157.102 49.4911 158.935 49.6611 160.705C49.8511 162.665 50.0211 164.612 50.1711 166.571C50.4711 170.579 50.6411 174.612 50.5511 178.644C50.4011 185.142 49.9911 193.764 45.9111 198.467C44.6811 199.883 46.4611 202.032 47.7111 200.742C52.4011 195.913 53.3411 187.456 53.6211 180.262C53.7811 176.027 53.6211 171.767 53.3311 167.545L53.3211 167.557Z" fill="#DBDBDB"/>
<path d="M68.1811 165.762C66.7411 163.221 65.5811 160.376 64.5811 157.507C64.1111 156.154 63.7211 154.751 63.3411 153.36C62.9311 151.868 62.6511 149.947 61.7611 148.784C61.1211 147.949 60.0411 148.392 59.7811 149.441C59.3811 151.034 59.9611 153.031 60.3611 154.548C60.7811 156.179 61.3411 157.759 61.9411 159.289C63.1211 162.298 64.6411 164.978 66.3011 167.582C67.1511 168.91 68.9711 167.152 68.1811 165.749V165.762Z" fill="#DBDBDB"/>
<path d="M43.1811 201.135C41.1211 201.135 41.1211 205.18 43.1811 205.18C45.2411 205.18 45.2411 201.135 43.1811 201.135Z" fill="#DBDBDB"/>
<path d="M14.5711 173.55C12.5111 173.55 12.5111 177.595 14.5711 177.595C16.6311 177.595 16.6311 173.55 14.5711 173.55Z" fill="#DBDBDB"/>
<path d="M72.1511 168.581C70.0911 168.581 70.0911 172.627 72.1511 172.627C74.2111 172.627 74.2111 168.581 72.1511 168.581Z" fill="#DBDBDB"/>
<path d="M22.1911 11.9217C16.3611 16.6625 11.8611 22.9455 8.98111 30.9606C7.56111 34.9175 6.56112 39.0767 6.05112 43.375C5.58112 47.3066 4.84112 52.7932 6.58112 56.333C7.32112 57.8374 8.9911 57.4455 9.4411 55.8652C9.9711 53.9816 9.83111 51.9589 9.85111 49.9614C9.87111 48.0651 9.97111 46.1688 10.2011 44.2978C10.6711 40.4673 11.5511 36.7126 12.7311 33.1476C15.0811 26.0934 19.0011 19.2667 23.7811 14.5386C24.9511 13.3756 23.4311 10.923 22.1911 11.9344V11.9217Z" fill="#DBDBDB"/>
<path d="M9.9211 63.2227C7.8611 63.2227 7.8611 67.2681 9.9211 67.2681C11.9811 67.2681 11.9811 63.2227 9.9211 63.2227Z" fill="#DBDBDB"/>
<path d="M50.5311 86.5604C50.3111 85.6881 49.6311 85.1824 48.9211 85.3974C48.7111 85.4606 48.5011 85.5111 48.2811 85.5617C48.1311 85.587 48.1611 85.587 48.3611 85.5617C48.2111 85.587 48.0611 85.6123 47.9111 85.6376L47.8211 85.6628C47.6711 85.6881 47.7011 85.6881 47.9011 85.6628C47.7411 85.764 47.4311 85.7261 47.2511 85.7261C47.0311 85.7261 46.8211 85.7261 46.6011 85.7261C46.5111 85.7261 46.4111 85.7134 46.3211 85.7008C46.2711 85.7008 46.2111 85.7008 46.1611 85.6755C45.9711 85.5996 45.7411 85.587 45.5611 85.5364C45.3511 85.4732 45.1411 85.3974 44.9311 85.3215C44.8411 85.2836 44.7511 85.2457 44.6711 85.2077C44.6111 85.1824 44.2411 84.9802 44.5311 85.1445C44.2211 84.9802 43.9411 84.879 43.6111 84.9928C43.3311 85.094 43.0311 85.3594 42.8911 85.6881C42.6011 86.3834 42.7211 87.3822 43.3211 87.7614C45.2411 88.9877 47.5411 89.4302 49.6211 88.6211C50.2711 88.3682 50.7611 87.458 50.5411 86.5857L50.5311 86.5604Z" fill="#DBDBDB"/>
</svg>
