<svg width="138" height="170" viewBox="0 0 138 170" fill="none" xmlns="http://www.w3.org/2000/svg">
<path d="M133.56 44.6089C131.09 43.0489 128.13 43.3889 125.93 45.2189C123.96 46.8689 122.74 49.3789 121.35 51.4989C119.08 54.9589 116.49 58.3489 113.2 60.8689C112.04 28.7489 101.53 17.3489 97.03 12.3689C94.39 9.44889 91.37 6.7689 88 4.71889C84.33 2.49889 80.32 1.29889 76.08 0.778892C68.46 -0.151108 60.09 0.968883 52.95 3.76888C45.65 6.62888 39.56 11.3589 35.29 17.9589C31.29 24.1489 29.06 31.3889 27.57 38.5489C26.1 45.5989 25.1 52.7889 24.5 60.0089C23.76 59.2489 23.09 58.4289 22.49 57.5289C20.57 54.6489 19.44 51.5089 18.68 48.1489C17.89 44.6889 17.77 41.0089 16.25 37.7489C14.76 34.5789 11.44 32.0489 7.81 32.4389C0.0300021 33.2689 0.830001 43.0189 1.09 48.6289C1.45 56.1689 2.45 63.7889 5.87 70.6189C9.57 78.0189 16.11 82.8089 23.65 85.8389C23.84 85.9189 24.02 85.9689 24.21 85.9989C24.28 87.1289 24.33 88.2489 24.42 89.3689C25.11 98.0189 26.37 106.639 28.21 115.119C29.12 119.319 30.19 123.489 31.39 127.619C32.54 131.579 34.13 135.449 37.6 137.919C39.24 139.089 41.35 139.839 43.37 139.759C44.36 139.719 45.33 139.509 46.25 139.169C46.63 139.029 47.01 138.869 47.41 138.749C47.59 138.689 47.76 138.639 47.95 138.599C47.97 138.619 48.05 138.719 48.12 138.799C48.1 138.799 48.17 138.929 48.22 139.009C48.25 139.109 48.37 139.459 48.39 139.529C48.51 139.939 48.6 140.349 48.67 140.769C48.73 141.119 48.78 141.809 48.85 142.519C48.95 143.549 49.08 144.579 49.23 145.609C50.23 152.759 52.68 159.989 57.77 165.289C60.59 168.229 64.57 170.699 68.7 168.969C72 167.589 74.11 164.129 74.64 160.669C74.96 158.569 74.79 156.489 74.54 154.389C74.42 153.399 74.29 152.399 74.22 151.409C74.19 150.949 74.17 150.489 74.16 150.029C74.16 149.719 74.16 149.419 74.18 149.109C74.18 149.089 74.21 148.729 74.21 148.669C74.4 147.359 74.91 146.179 75.69 145.379C76.19 144.859 76.34 144.799 77.02 144.449C76.8 144.559 77.26 144.409 77.25 144.409C77.4 144.389 77.57 144.399 77.73 144.409C77.78 144.409 77.83 144.419 77.88 144.429C78.02 144.459 78.19 144.509 78.33 144.559C78.35 144.569 78.36 144.579 78.4 144.599C78.79 144.789 78.63 144.709 78.87 144.929C79.26 145.279 79.83 145.929 80 146.149C80.85 147.269 81.57 148.489 82.41 149.619C84.69 152.689 87.6 154.639 91.51 154.849C99.57 155.289 105.17 148.239 108.24 141.649C115.22 126.699 113.74 109.349 113.55 93.3089L113.47 86.9789C113.98 86.9789 114.49 86.8289 114.97 86.4689C123.77 79.7489 130.76 70.8589 134.86 60.5489C136.84 55.5689 139.16 48.1489 133.56 44.6089Z" fill="#D90429"/>
<path d="M44.0701 147.629C43.9801 147.209 43.8401 146.839 43.6401 146.449C43.5601 146.289 43.4801 146.129 43.4001 145.979C43.2001 145.619 42.9401 145.319 42.6001 145.099C42.3001 144.819 41.9401 144.639 41.5401 144.539C41.1201 144.409 40.7101 144.389 40.2901 144.479C39.8701 144.499 39.4901 144.619 39.1301 144.849C38.4601 145.279 37.8801 145.919 37.6901 146.719C37.6501 146.999 37.6201 147.269 37.5801 147.549C37.5801 148.109 37.7201 148.639 38.0101 149.129C38.0901 149.289 38.1701 149.449 38.2501 149.599C38.4401 149.969 38.7401 150.269 39.0101 150.579C39.2101 150.739 39.4201 150.899 39.6201 151.049C39.9701 151.269 40.3401 151.389 40.7501 151.409C41.0201 151.479 41.2901 151.479 41.5601 151.409C41.9601 151.389 42.3401 151.269 42.6901 151.049C42.8901 150.889 43.1001 150.729 43.3001 150.579L43.7701 149.969C43.99 149.619 44.1101 149.249 44.1301 148.839C44.2201 148.439 44.2001 148.029 44.0801 147.629H44.0701Z" fill="#D90429"/>
<path d="M49.16 161.958C49.08 161.618 48.89 161.288 48.74 160.978C48.67 160.828 48.6 160.678 48.53 160.528C48.37 160.238 48.16 159.998 47.89 159.828C47.65 159.608 47.37 159.458 47.04 159.378C46.71 159.278 46.38 159.258 46.04 159.338C45.71 159.348 45.4 159.448 45.11 159.638C44.58 159.978 44.11 160.498 43.96 161.128C43.81 161.798 43.88 162.448 44.21 163.058C44.29 163.198 44.37 163.348 44.45 163.488C44.63 163.808 44.81 164.068 45.05 164.358C45.22 164.488 45.38 164.618 45.55 164.738C45.83 164.918 46.14 165.018 46.46 165.028C46.68 165.088 46.9 165.088 47.11 165.028C47.44 165.018 47.74 164.918 48.02 164.738C48.37 164.508 48.67 164.208 48.9 163.858C49.25 163.318 49.29 162.568 49.15 161.968L49.16 161.958Z" fill="#D90429"/>
<path d="M84.8002 160.349C84.5802 159.959 84.3102 159.659 83.9602 159.389C83.2502 158.399 81.9402 158.029 80.8102 158.499C80.3102 158.709 79.8202 159.079 79.5502 159.569C79.4602 159.779 79.3702 159.989 79.2902 160.199C79.2202 160.459 79.2002 160.719 79.2102 160.979C79.0302 161.559 79.1302 162.119 79.2402 162.699C79.3902 163.569 80.1202 164.289 80.8202 164.729C81.6002 165.219 82.5802 165.219 83.4102 164.879C84.2702 164.519 84.7902 163.869 85.0902 162.999C85.3902 162.129 85.2502 161.149 84.8002 160.359V160.349Z" fill="#D90429"/>
<path d="M105.38 157.849C105.14 157.269 104.72 156.709 104.15 156.409C103.46 156.039 102.59 155.839 101.83 156.109C101.35 156.269 100.99 156.449 100.64 156.669C99.4701 157.109 98.7401 158.269 98.4101 159.439C98.2001 160.189 98.3001 161.189 98.7301 161.849C99.1001 162.429 99.5901 162.859 100.23 163.129C100.85 163.389 101.61 163.499 102.27 163.289C103.01 163.049 103.8 162.579 104.14 161.849C104.19 161.749 104.25 161.649 104.31 161.559C104.34 161.519 104.37 161.479 104.4 161.439C104.93 161.029 105.39 160.499 105.55 159.819C105.7 159.149 105.67 158.499 105.4 157.859L105.38 157.849Z" fill="#D90429"/>
<path d="M20.6101 91.2992C20.5901 90.9492 20.4901 90.6192 20.2901 90.3092C20.2001 90.1492 20.1201 89.9992 20.0301 89.8392C19.7801 89.4192 19.4401 89.0792 19.0201 88.8292C18.5801 88.5792 18.1101 88.4492 17.6001 88.4492L16.8501 88.5492C16.3701 88.6792 15.9601 88.9192 15.6101 89.2692C15.3401 89.5192 15.1401 89.8292 15.0301 90.1792C14.8501 90.5192 14.7701 90.8792 14.7901 91.2592C14.7901 92.2292 15.3201 93.2092 16.1801 93.6892C16.3401 93.7792 16.4901 93.8592 16.6501 93.9492C16.8601 94.0392 17.0701 94.1292 17.2901 94.2192C17.6401 94.3292 18.0001 94.3492 18.3501 94.2692C18.5901 94.2692 18.8101 94.2092 19.0201 94.0892C19.3501 93.9792 19.6401 93.7992 19.8801 93.5392C20.0201 93.3592 20.1601 93.1792 20.3001 92.9992C20.3901 92.7892 20.4801 92.5792 20.5701 92.3592C20.6801 92.0092 20.7001 91.6492 20.6201 91.2992H20.6101Z" fill="#D90429"/>
<path d="M10.95 83.459C7.75996 83.459 7.74996 88.419 10.95 88.419C14.15 88.419 14.15 83.459 10.95 83.459Z" fill="#D90429"/>
<path d="M123.59 91.9592C123.57 91.8992 123.55 91.8392 123.53 91.7792C123.45 91.5792 123.38 91.3592 123.26 91.1792C123.2 91.0892 123.13 91.0093 123.07 90.9193C123.01 90.8393 122.94 90.7493 122.87 90.6693C122.72 90.5093 122.54 90.3792 122.36 90.2592C122.13 90.0992 121.84 89.9792 121.56 89.9392C121.36 89.9092 121.1 89.8492 120.88 89.8692C120.69 89.8792 120.49 89.9092 120.3 89.9492C120.26 89.9492 120.22 89.9692 120.19 89.9792C119.7 90.1492 119.43 90.3092 119.04 90.6492C118.98 90.6992 118.93 90.7592 118.88 90.8192C118.74 90.9892 118.57 91.1892 118.46 91.3992C118.35 91.6092 118.26 91.8292 118.18 92.0492C118.15 92.1292 118.14 92.2092 118.12 92.2892C118.09 92.4992 118.03 92.7892 118.04 93.0292C118.06 93.2692 118.08 93.5092 118.14 93.7392C118.26 94.1692 118.45 94.4392 118.73 94.7792C118.88 94.9592 119.09 95.0992 119.28 95.2292C119.5 95.3692 119.74 95.4492 120 95.4592C120.1 95.4792 120.2 95.4892 120.3 95.4892C120.5 95.5592 120.74 95.5792 120.93 95.5892C121.22 95.6092 121.53 95.5692 121.81 95.4692C122.22 95.3092 122.58 95.1392 122.89 94.8092C123.22 94.4492 123.38 94.1492 123.54 93.6992C123.64 93.4292 123.67 93.1192 123.68 92.8392C123.69 92.5492 123.65 92.2492 123.58 91.9592H123.59Z" fill="#D90429"/>
<path d="M125.79 84.3486C122.6 84.3486 122.59 89.3086 125.79 89.3086C128.99 89.3086 128.99 84.3486 125.79 84.3486Z" fill="#D90429"/>
<path d="M134.86 60.5488C136.84 55.5688 139.16 48.1488 133.56 44.6088C133.1 44.3188 132.62 44.1188 132.13 43.9488C131.49 50.7788 129.6 57.3888 126.21 63.5888C123.88 67.8588 121.02 71.7588 117.57 75.1988C114.14 78.6288 108.94 80.8788 106.32 84.9988C103.7 89.0988 104.71 94.1488 105.18 98.6988C105.83 105.119 106.64 111.549 106.79 118.009C107 127.089 105.96 145.289 94.7001 148.129C88.7901 149.619 87.6701 144.739 83.9701 141.719C80.5101 138.889 75.3001 138.619 72.4401 142.419C69.5101 146.329 70.7301 152.349 68.7901 156.839C68.4501 157.629 67.9701 158.919 67.3401 159.499C65.8501 160.889 66.2401 160.409 64.6901 159.589C62.3101 158.329 60.0201 155.079 58.4101 152.929C55.0101 148.389 53.2201 143.519 51.4801 138.209C49.6201 132.519 38.8801 136.489 36.6601 131.169C32.2401 120.569 28.7201 108.499 27.5601 97.3988C26.9401 91.5288 26.3701 85.4688 23.5601 80.0688C21.1301 75.3888 14.1801 74.4288 10.9201 70.4288C2.75011 60.3788 7.5401 45.0388 5.6201 33.0088C0.210096 35.3188 0.850097 43.6188 1.0901 48.6288C1.4501 56.1688 2.4501 63.7888 5.8701 70.6188C9.5701 78.0188 16.1101 82.8088 23.6501 85.8388C23.8401 85.9188 24.0201 85.9688 24.2101 85.9988C24.2801 87.1288 24.3301 88.2488 24.4201 89.3688C25.1101 98.0188 26.3701 106.639 28.2101 115.119C29.1201 119.319 30.1901 123.489 31.3901 127.619C32.5401 131.579 34.1301 135.449 37.6001 137.919C39.2401 139.089 41.3501 139.839 43.3701 139.759C44.3601 139.719 45.3301 139.509 46.2501 139.169C46.6301 139.029 47.0101 138.869 47.4101 138.749C47.5901 138.689 47.7601 138.639 47.9501 138.599C47.9701 138.619 48.0501 138.719 48.1201 138.799C48.1001 138.799 48.1701 138.929 48.2201 139.009C48.2501 139.109 48.3701 139.459 48.3901 139.529C48.5101 139.939 48.6001 140.349 48.6701 140.769C48.7301 141.119 48.7801 141.809 48.8501 142.519C48.9501 143.549 49.0801 144.579 49.2301 145.609C50.2301 152.759 52.6801 159.989 57.7701 165.289C60.5901 168.229 64.5701 170.699 68.7001 168.969C72.0001 167.589 74.1101 164.129 74.6401 160.669C74.9601 158.569 74.7901 156.489 74.5401 154.389C74.4201 153.399 74.2901 152.399 74.2201 151.409C74.1901 150.949 74.1701 150.489 74.1601 150.029C74.1601 149.719 74.1601 149.419 74.1801 149.109C74.1801 149.089 74.2101 148.729 74.2101 148.669C74.4001 147.359 74.9101 146.179 75.6901 145.379C76.1901 144.859 76.3401 144.799 77.0201 144.449C76.8001 144.559 77.2601 144.409 77.2501 144.409C77.4001 144.389 77.5701 144.399 77.7301 144.409C77.7801 144.409 77.8301 144.419 77.8801 144.429C78.0201 144.459 78.1901 144.509 78.3301 144.559C78.3501 144.569 78.3601 144.579 78.4001 144.599C78.7901 144.789 78.6301 144.709 78.8701 144.929C79.2601 145.279 79.8301 145.929 80.0001 146.149C80.8501 147.269 81.5701 148.489 82.4101 149.619C84.6901 152.689 87.6001 154.639 91.5101 154.849C99.5701 155.289 105.17 148.239 108.24 141.649C114.94 127.289 113.85 110.729 113.58 95.2288C113.35 93.6788 113.24 92.1488 113.52 90.9688C113.5 89.6388 113.49 88.3088 113.47 86.9788C113.98 86.9788 114.49 86.8288 114.97 86.4688C123.77 79.7488 130.76 70.8588 134.86 60.5488Z" fill="#EE8C9D"/>
<path d="M61.8501 32.4791C51.1501 29.0991 43.3901 51.1891 51.5801 55.6991C51.7701 55.8691 51.9801 56.0391 52.1901 56.1991C55.2801 58.4891 58.5901 57.8191 61.0501 55.6591C63.6501 53.5991 65.2601 49.8291 66.1901 46.3391C67.6101 40.9991 67.7201 34.3291 61.8401 32.4691L61.8501 32.4791Z" fill="#2B2D42"/>
<path d="M89.4401 43.5193C88.6201 39.2593 86.2101 34.9793 83.6301 32.8793C80.6001 30.4193 76.6401 29.5393 73.3801 31.9593C69.7101 34.6793 69.3101 40.3193 70.3801 44.6693C72.1701 51.9493 82.21 62.6193 88.74 55.0893C91.64 51.7393 90.9701 47.3793 89.4401 43.5293V43.5193Z" fill="#2B2D42"/>
<path d="M76.2401 64.8192C76.0901 62.2292 74.7302 59.8492 72.4202 59.0892C70.5002 58.4592 68.5401 59.0692 67.0001 60.3992C65.2801 61.8792 64.4201 64.2092 64.6001 66.6192C64.8201 69.5992 65.8901 72.8392 68.6501 73.7992C69.9201 74.2392 71.1301 73.8192 72.0301 72.9392C74.8101 72.0892 76.4201 67.9492 76.2401 64.8192Z" fill="#2B2D42"/>
<g style="mix-blend-mode:soft-light">
<path d="M61.8502 37.3593C64.9202 38.3293 66.3502 40.6093 66.8202 43.3293C67.4602 38.7393 66.6602 33.9993 61.8502 32.4793C53.4802 29.8393 46.9102 42.7693 48.3602 50.6893C49.4602 43.3193 55.0602 35.2193 61.8502 37.3593Z" fill="#2B2D42"/>
</g>
<g style="mix-blend-mode:soft-light">
<path d="M73.3902 36.8285C76.6502 34.4185 80.6102 35.2985 83.6402 37.7485C86.2202 39.8485 88.6302 44.1285 89.4502 48.3885C89.8902 49.4885 90.2502 50.6285 90.4902 51.7685C91.1702 49.1085 90.5202 46.1885 89.4502 43.5085C88.6302 39.2485 86.2202 34.9685 83.6402 32.8685C80.6102 30.4085 76.6502 29.5285 73.3902 31.9485C70.1902 34.3185 69.4702 38.9085 70.0602 42.9385C70.4402 40.4985 71.4602 38.2585 73.3902 36.8285Z" fill="#2B2D42"/>
</g>
<g style="mix-blend-mode:soft-light">
<path d="M64.8999 68.6492C65.2799 67.3392 65.9899 66.1492 67.0099 65.2792C68.5499 63.9492 70.5099 63.3392 72.4299 63.9692C74.1799 64.5492 75.3799 66.0492 75.9299 67.8692C76.1999 66.8392 76.3099 65.7792 76.2499 64.8192C76.0999 62.2292 74.7399 59.8492 72.4299 59.0892C70.5099 58.4592 68.5499 59.0692 67.0099 60.3992C65.2899 61.8792 64.4299 64.2092 64.6099 66.6192C64.6599 67.2892 64.7599 67.9792 64.9099 68.6492H64.8999Z" fill="#2B2D42"/>
</g>
<path d="M78.3003 5.5692C64.7803 3.6892 50.7803 6.3092 41.9703 17.3492C40.4503 19.2592 42.9803 21.9792 44.7203 20.0992C53.2603 10.9192 65.9503 10.6292 77.5503 11.1392C80.6803 11.2792 81.5103 6.0092 78.3003 5.5692Z" fill="#2B2D42"/>
<path d="M84.99 8.47852C81.16 8.47852 81.15 14.4285 84.99 14.4285C88.83 14.4285 88.83 8.47852 84.99 8.47852Z" fill="#2B2D42"/>
<path d="M75.1699 77.6086C72.9299 78.2586 70.8599 80.3486 68.5299 78.4586C66.7799 77.0486 64.3599 79.3086 66.0099 80.9786C67.5799 82.5686 69.7399 83.3886 71.9699 83.2586C74.0899 83.1386 76.8699 82.0686 77.2499 79.6786C77.4399 78.4686 76.5199 77.2086 75.1699 77.5986V77.6086Z" fill="#EE8C9D"/>
<path d="M83.0203 18.9485C77.9903 18.0285 73.3003 19.7585 70.7203 24.3285C70.1103 25.4085 70.0103 26.8985 70.7203 27.9685L70.8803 28.2085C71.7603 29.5285 72.9903 29.8785 74.4803 29.6685C76.5703 29.3785 77.2603 27.0785 78.6103 25.7585C79.6203 24.7685 80.9103 23.9185 82.3503 23.8285C84.9703 23.6585 85.9303 19.4785 83.0103 18.9485H83.0203Z" fill="#2B2D42"/>
<path d="M66.3701 24.5384C63.5101 21.7484 59.1001 20.8685 55.3501 22.2285C51.6901 23.5485 53.1801 28.5384 56.9301 27.9684C58.1901 27.7784 59.5901 28.2884 60.5801 29.0184C61.9501 30.0284 62.8901 31.0184 64.7701 30.5484C66.0901 30.2184 66.8701 29.3184 67.2801 28.0384C67.6601 26.8484 67.2401 25.4084 66.3601 24.5384H66.3701Z" fill="#2B2D42"/>
<path d="M47.0502 106.659C46.5302 109.519 46.1802 112.399 46.0502 115.299C45.9902 116.689 45.9402 118.079 46.0102 119.469C46.0502 120.219 46.0902 120.969 46.1702 121.709C46.2602 122.499 46.5302 123.199 46.8102 123.939C47.1702 124.899 48.9302 125.229 49.1102 123.939C49.2102 123.209 49.3902 122.449 49.3802 121.709C49.3702 121.069 49.2902 120.429 49.2602 119.789C49.1902 118.349 49.1002 116.899 49.0902 115.459C49.0502 112.629 49.2002 109.799 49.5102 106.989C49.6602 105.599 47.3102 105.269 47.0502 106.659Z" fill="#EE8C9D"/>
<path d="M75.7703 113.319C75.6803 110.429 75.7203 107.549 75.8603 104.669C75.9003 103.929 75.2003 103.299 74.4903 103.299C73.6903 103.299 73.2003 103.929 73.1203 104.669C72.8203 107.599 72.6103 110.549 72.5303 113.489C72.4403 116.499 72.4603 119.399 73.1203 122.349C73.4903 123.989 75.8203 123.509 75.9203 121.969C76.1003 119.069 75.8503 116.219 75.7603 113.319H75.7703Z" fill="#EE8C9D"/>
<path d="M76.24 128.129C73.05 128.129 73.04 133.089 76.24 133.089C79.44 133.089 79.44 128.129 76.24 128.129Z" fill="#EE8C9D"/>
</svg>
