<svg width="211" height="64" viewBox="0 0 211 64" fill="none" xmlns="http://www.w3.org/2000/svg">
<path fill-rule="evenodd" clip-rule="evenodd" d="M32 64C49.6731 64 64 49.6731 64 32C64 14.3269 49.6731 0 32 0C14.3269 0 0 14.3269 0 32C0 49.6731 14.3269 64 32 64ZM47.584 23.896C47.552 23.608 47.536 23.352 47.536 23.128V20.152V18.52C47.568 17.944 47.568 17.4 47.536 16.888C47.536 16.664 47.52 16.456 47.488 16.264C47.456 16.072 47.328 15.896 47.104 15.736C47.072 15.672 47.008 15.624 46.912 15.592C46.848 15.528 46.768 15.48 46.672 15.448C46.352 15.352 46 15.32 45.616 15.352C45.232 15.384 44.864 15.4 44.512 15.4H19.456H18.736C18.512 15.368 18.272 15.368 18.016 15.4C17.856 15.4 17.68 15.448 17.488 15.544L17.44 15.592C17.408 15.592 17.392 15.608 17.392 15.64H17.344C17.184 15.736 17.056 15.88 16.96 16.072C16.928 16.104 16.912 16.152 16.912 16.216C16.912 16.248 16.896 16.296 16.864 16.36C16.8 16.648 16.768 17 16.768 17.416C16.8 17.8 16.816 18.072 16.816 18.232V24.424C16.816 24.84 16.976 25.176 17.296 25.432C17.328 25.464 17.376 25.56 17.44 25.72C17.536 25.848 17.568 25.896 17.536 25.864C17.568 25.928 17.584 26.008 17.584 26.104C17.616 26.2 17.648 26.248 17.68 26.248C17.744 26.248 17.776 26.216 17.776 26.152C18.256 26.664 18.528 26.952 18.592 27.016L18.688 27.112L19.072 27.544L19.456 27.928C19.552 28.024 19.648 28.136 19.744 28.264C19.84 28.36 19.936 28.44 20.032 28.504C20.064 28.792 20.064 29.096 20.032 29.416V30.28C19.904 30.6 19.856 31.064 19.888 31.672C19.952 32.248 20.032 32.712 20.128 33.064C20.224 33.416 20.24 33.448 20.176 33.16C20.08 32.712 20.016 32.248 19.984 31.768C19.984 31.288 20 30.792 20.032 30.28C20.064 30.152 20.176 30.056 20.368 29.992C20.592 29.96 20.736 30.152 20.8 30.568C20.768 30.248 20.736 29.944 20.704 29.656C20.704 29.368 20.72 29.064 20.752 28.744H20.8L20.848 28.696H20.896L20.944 28.648C21.008 28.584 21.072 28.488 21.136 28.36C21.232 28.2 21.296 28.104 21.328 28.072L21.424 27.976C21.424 27.944 21.44 27.928 21.472 27.928V27.88C21.504 27.88 21.52 27.864 21.52 27.832C21.648 28.248 21.712 28.6 21.712 28.888C21.712 28.792 21.728 28.68 21.76 28.552C21.824 28.424 21.872 28.28 21.904 28.12C21.936 28.056 21.968 27.976 22 27.88C22.032 27.784 22.08 27.72 22.144 27.688L22.24 27.784L22.432 27.976C22.528 28.04 22.56 28.056 22.528 28.024C22.592 28.088 22.672 28.184 22.768 28.312C22.864 28.408 22.96 28.488 23.056 28.552L23.2 29.224C23.232 29.32 23.248 29.464 23.248 29.656C23.248 29.816 23.296 29.88 23.392 29.848C23.552 29.784 23.616 29.656 23.584 29.464C23.552 29.272 23.568 29.112 23.632 28.984H23.824C24.08 28.76 24.208 28.632 24.208 28.6C24.208 28.568 24.256 28.488 24.352 28.36C24.416 28.296 24.48 28.248 24.544 28.216L24.64 28.12C24.768 27.992 24.88 27.864 24.976 27.736C25.072 27.608 25.152 27.48 25.216 27.352L25.504 26.776C25.568 26.68 25.616 26.568 25.648 26.44L25.744 26.056C25.744 25.992 25.76 25.944 25.792 25.912L25.888 25.72L26.08 26.104V46.6C26.08 46.728 26.064 46.856 26.032 46.984V47.368C26.032 47.592 26.064 47.832 26.128 48.088C26.192 48.28 26.256 48.408 26.32 48.472C26.48 48.696 26.688 48.856 26.944 48.952C27.008 48.952 27.04 48.968 27.04 49H27.136C27.264 49 27.376 49.048 27.472 49.144C27.536 49.272 27.584 49.352 27.616 49.384V49.432C27.648 49.464 27.664 49.496 27.664 49.528L28.048 50.2C28.176 50.424 28.304 50.664 28.432 50.92L28.48 50.968C28.544 51 28.576 51.048 28.576 51.112C28.864 51.528 29.008 52.072 29.008 52.744C29.04 53.448 29.008 54.184 28.912 54.952C28.816 55.752 28.736 56.472 28.672 57.112C28.64 57.784 28.72 58.296 28.912 58.648C28.912 58.68 28.944 58.728 29.008 58.792C29.072 58.856 29.104 58.872 29.104 58.84C29.136 58.488 29.152 57.96 29.152 57.256C29.184 56.584 29.2 55.864 29.2 55.096C29.232 54.328 29.248 53.592 29.248 52.888C29.248 52.216 29.264 51.704 29.296 51.352C29.36 51.32 29.424 51.272 29.488 51.208L29.632 51.064L29.728 50.968C29.76 50.904 29.808 50.84 29.872 50.776C30.032 50.52 30.176 50.296 30.304 50.104L30.784 49.528L30.832 49.48C30.832 49.448 30.864 49.4 30.928 49.336C30.992 49.304 31.04 49.256 31.072 49.192C31.136 49.224 31.248 49.24 31.408 49.24H31.552C31.648 49.336 31.76 49.464 31.888 49.624C32.048 49.816 32.16 49.944 32.224 50.008C32.32 50.2 32.368 50.376 32.368 50.536C32.432 50.984 32.464 51.432 32.464 51.88C32.464 52.328 32.496 52.776 32.56 53.224C32.56 53.256 32.576 53.256 32.608 53.224C32.672 53.224 32.72 53.208 32.752 53.176C32.816 53.048 32.848 52.904 32.848 52.744C32.88 52.584 32.912 52.44 32.944 52.312L33.04 51.784L33.232 50.728C33.296 50.376 33.328 50.184 33.328 50.152L33.52 49.96L33.808 49.768V49.72C33.84 49.72 33.856 49.704 33.856 49.672L33.904 49.624C34 49.656 34.064 49.72 34.096 49.816C34.16 49.944 34.224 50.04 34.288 50.104C34.512 50.264 34.688 50.2 34.816 49.912C34.944 49.656 35.056 49.448 35.152 49.288C35.44 49.16 35.552 49.144 35.488 49.24C35.456 49.336 35.568 49.432 35.824 49.528C35.888 49.528 35.952 49.48 36.016 49.384C36.08 49.32 36.144 49.304 36.208 49.336C36.272 49.336 36.336 49.368 36.4 49.432C36.464 49.528 36.528 49.592 36.592 49.624C36.752 49.656 36.896 49.608 37.024 49.48C37.088 49.416 37.152 49.336 37.216 49.24C37.28 49.176 37.328 49.112 37.36 49.048L37.456 48.952L37.552 48.856C37.744 48.76 37.904 48.632 38.032 48.472C38.064 48.44 38.08 48.408 38.08 48.376C38.112 48.344 38.16 48.264 38.224 48.136C38.224 48.104 38.24 48.072 38.272 48.04V47.944V47.464C38.304 47.24 38.304 47 38.272 46.744V26.104V25.864L38.56 26.152L38.896 26.632C38.992 26.792 39.104 26.968 39.232 27.16C39.552 27.672 39.856 28.184 40.144 28.696C40.464 29.176 40.768 29.672 41.056 30.184L41.488 31L41.536 31.048L41.68 31.336C41.744 31.464 41.808 31.608 41.872 31.768C41.968 31.896 42.064 32.04 42.16 32.2L42.256 32.296C42.448 32.488 42.544 32.616 42.544 32.68C42.576 32.744 42.608 32.792 42.64 32.824L42.832 32.968C42.896 32.904 42.928 32.824 42.928 32.728C42.96 32.632 42.992 32.552 43.024 32.488C43.216 32.36 43.424 32.136 43.648 31.816C44 31.272 44.288 30.744 44.512 30.232C44.768 29.688 45.008 29.16 45.232 28.648C45.392 28.36 45.536 28.072 45.664 27.784L46.048 26.92C46.208 26.664 46.336 26.44 46.432 26.248C46.528 26.024 46.64 25.848 46.768 25.72C46.8 25.688 46.832 25.64 46.864 25.576C46.928 25.512 46.976 25.48 47.008 25.48L47.152 25.336L47.392 25.048C47.424 25.016 47.44 24.984 47.44 24.952C47.44 24.92 47.456 24.888 47.488 24.856C47.456 24.888 47.456 24.856 47.488 24.76C47.52 24.632 47.536 24.6 47.536 24.664C47.6 24.408 47.616 24.152 47.584 23.896ZM20.512 33.112C20.48 33.304 20.496 33.304 20.56 33.112C20.688 32.76 20.752 32.408 20.752 32.056C20.784 31.704 20.8 31.352 20.8 31C20.8 31.352 20.768 31.736 20.704 32.152C20.64 32.568 20.576 32.888 20.512 33.112Z" fill="#D90429"/>
<path d="M103.536 22.628C103.536 22.852 103.552 23.108 103.584 23.396C103.616 23.652 103.6 23.908 103.536 24.164C103.536 24.1 103.52 24.132 103.488 24.26C103.456 24.356 103.456 24.388 103.488 24.356C103.456 24.388 103.44 24.42 103.44 24.452C103.44 24.484 103.424 24.516 103.392 24.548L103.152 24.836L103.008 24.98C102.976 24.98 102.928 25.012 102.864 25.076C102.832 25.14 102.8 25.188 102.768 25.22C102.64 25.348 102.528 25.524 102.432 25.748C102.336 25.94 102.208 26.164 102.048 26.42C101.92 26.708 101.792 26.996 101.664 27.284C101.536 27.572 101.392 27.86 101.232 28.148C101.008 28.66 100.768 29.188 100.512 29.732C100.288 30.244 100 30.772 99.648 31.316C99.424 31.636 99.216 31.86 99.024 31.988C98.992 32.052 98.96 32.132 98.928 32.228C98.928 32.324 98.896 32.404 98.832 32.468C98.832 32.468 98.768 32.42 98.64 32.324C98.608 32.292 98.576 32.244 98.544 32.18C98.544 32.116 98.448 31.988 98.256 31.796L98.16 31.7C98.064 31.54 97.968 31.396 97.872 31.268C97.808 31.108 97.744 30.964 97.68 30.836L97.536 30.548L97.488 30.5L97.056 29.684C96.768 29.172 96.464 28.676 96.144 28.196C95.856 27.684 95.552 27.172 95.232 26.66C95.104 26.468 94.992 26.292 94.896 26.132L94.56 25.652C94.464 25.556 94.368 25.46 94.272 25.364V25.604V46.244C94.304 46.5 94.304 46.74 94.272 46.964C94.272 47.188 94.272 47.348 94.272 47.444V47.54C94.24 47.572 94.224 47.604 94.224 47.636C94.16 47.764 94.112 47.844 94.08 47.876C94.08 47.908 94.064 47.94 94.032 47.972C93.904 48.132 93.744 48.26 93.552 48.356C93.52 48.388 93.488 48.42 93.456 48.452C93.424 48.484 93.392 48.516 93.36 48.548C93.328 48.612 93.28 48.676 93.216 48.74C93.152 48.836 93.088 48.916 93.024 48.98C92.896 49.108 92.752 49.156 92.592 49.124C92.528 49.092 92.464 49.028 92.4 48.932C92.336 48.868 92.272 48.836 92.208 48.836C92.144 48.804 92.08 48.82 92.016 48.884C91.952 48.98 91.888 49.028 91.824 49.028C91.568 48.932 91.456 48.836 91.488 48.74C91.552 48.644 91.44 48.66 91.152 48.788C91.056 48.948 90.944 49.156 90.816 49.412C90.688 49.7 90.512 49.764 90.288 49.604C90.224 49.54 90.16 49.444 90.096 49.316C90.064 49.22 90 49.156 89.904 49.124L89.856 49.172C89.856 49.204 89.84 49.22 89.808 49.22C89.808 49.252 89.808 49.268 89.808 49.268L89.52 49.46L89.328 49.652C89.328 49.684 89.296 49.876 89.232 50.228C89.168 50.58 89.104 50.932 89.04 51.284C88.976 51.636 88.944 51.812 88.944 51.812C88.912 51.94 88.88 52.084 88.848 52.244C88.848 52.404 88.816 52.548 88.752 52.676C88.72 52.708 88.672 52.724 88.608 52.724C88.576 52.756 88.56 52.756 88.56 52.724C88.496 52.276 88.464 51.828 88.464 51.38C88.464 50.932 88.432 50.484 88.368 50.036C88.368 49.876 88.32 49.7 88.224 49.508C88.16 49.444 88.048 49.316 87.888 49.124C87.76 48.964 87.648 48.836 87.552 48.74H87.408C87.248 48.74 87.136 48.724 87.072 48.692C87.04 48.756 86.992 48.804 86.928 48.836C86.864 48.9 86.832 48.948 86.832 48.98L86.784 49.028C86.624 49.22 86.464 49.412 86.304 49.604C86.176 49.796 86.032 50.02 85.872 50.276C85.808 50.34 85.76 50.404 85.728 50.468C85.696 50.5 85.664 50.532 85.632 50.564C85.6 50.596 85.552 50.644 85.488 50.708C85.424 50.772 85.36 50.82 85.296 50.852C85.264 51.204 85.248 51.716 85.248 52.388C85.248 53.092 85.232 53.828 85.2 54.596C85.2 55.364 85.184 56.084 85.152 56.756C85.152 57.46 85.136 57.988 85.104 58.34C85.104 58.372 85.072 58.356 85.008 58.292C84.944 58.228 84.912 58.18 84.912 58.148C84.72 57.796 84.64 57.284 84.672 56.612C84.736 55.972 84.816 55.252 84.912 54.452C85.008 53.684 85.04 52.948 85.008 52.244C85.008 51.572 84.864 51.028 84.576 50.612C84.576 50.548 84.544 50.5 84.48 50.468C84.448 50.436 84.432 50.42 84.432 50.42C84.304 50.164 84.176 49.924 84.048 49.7C83.92 49.476 83.792 49.252 83.664 49.028C83.664 48.996 83.648 48.964 83.616 48.932C83.616 48.932 83.616 48.916 83.616 48.884C83.584 48.852 83.536 48.772 83.472 48.644C83.376 48.548 83.264 48.5 83.136 48.5C83.104 48.5 83.072 48.5 83.04 48.5C83.04 48.468 83.008 48.452 82.944 48.452C82.688 48.356 82.48 48.196 82.32 47.972C82.256 47.908 82.192 47.78 82.128 47.588C82.064 47.332 82.032 47.092 82.032 46.868C82.032 46.708 82.032 46.58 82.032 46.484C82.064 46.356 82.08 46.228 82.08 46.1V25.604L81.888 25.22C81.888 25.22 81.856 25.284 81.792 25.412C81.76 25.444 81.744 25.492 81.744 25.556C81.712 25.684 81.68 25.812 81.648 25.94C81.616 26.068 81.568 26.18 81.504 26.276L81.216 26.852C81.152 26.98 81.072 27.108 80.976 27.236C80.88 27.364 80.768 27.492 80.64 27.62C80.576 27.684 80.544 27.716 80.544 27.716C80.48 27.748 80.416 27.796 80.352 27.86C80.256 27.988 80.208 28.068 80.208 28.1C80.208 28.132 80.08 28.26 79.824 28.484C79.696 28.484 79.632 28.484 79.632 28.484C79.568 28.612 79.552 28.772 79.584 28.964C79.616 29.156 79.552 29.284 79.392 29.348C79.296 29.38 79.248 29.316 79.248 29.156C79.248 28.964 79.232 28.82 79.2 28.724L79.056 28.052C78.96 27.988 78.864 27.908 78.768 27.812C78.672 27.684 78.592 27.588 78.528 27.524C78.56 27.556 78.528 27.54 78.432 27.476C78.336 27.38 78.272 27.316 78.24 27.284L78.144 27.188C78.08 27.22 78.032 27.284 78 27.38C77.968 27.476 77.936 27.556 77.904 27.62C77.872 27.78 77.824 27.924 77.76 28.052C77.728 28.18 77.712 28.292 77.712 28.388C77.712 28.1 77.648 27.748 77.52 27.332C77.52 27.364 77.504 27.38 77.472 27.38C77.472 27.38 77.472 27.396 77.472 27.428C77.44 27.428 77.424 27.444 77.424 27.476C77.392 27.508 77.36 27.54 77.328 27.572C77.296 27.604 77.232 27.7 77.136 27.86C77.072 27.988 77.008 28.084 76.944 28.148C76.944 28.148 76.928 28.164 76.896 28.196C76.896 28.196 76.88 28.196 76.848 28.196C76.848 28.196 76.832 28.212 76.8 28.244C76.8 28.244 76.784 28.244 76.752 28.244C76.72 28.564 76.704 28.868 76.704 29.156C76.736 29.444 76.768 29.748 76.8 30.068C76.736 29.652 76.592 29.46 76.368 29.492C76.176 29.556 76.064 29.652 76.032 29.78C76.032 29.492 76.032 29.204 76.032 28.916C76.064 28.596 76.064 28.292 76.032 28.004C75.936 27.94 75.84 27.86 75.744 27.764C75.648 27.636 75.552 27.524 75.456 27.428L75.072 27.044C74.816 26.756 74.688 26.612 74.688 26.612C74.688 26.612 74.656 26.58 74.592 26.516C74.528 26.452 74.256 26.164 73.776 25.652C73.776 25.716 73.744 25.748 73.68 25.748C73.648 25.748 73.616 25.7 73.584 25.604C73.584 25.508 73.568 25.428 73.536 25.364C73.568 25.396 73.536 25.348 73.44 25.22C73.376 25.06 73.328 24.964 73.296 24.932C72.976 24.676 72.816 24.34 72.816 23.924V17.732C72.816 17.572 72.8 17.3 72.768 16.916C72.768 16.5 72.8 16.148 72.864 15.86C72.896 15.796 72.912 15.748 72.912 15.716C72.912 15.652 72.928 15.604 72.96 15.572C73.056 15.38 73.184 15.236 73.344 15.14C73.376 15.14 73.392 15.14 73.392 15.14C73.392 15.108 73.408 15.092 73.44 15.092L73.488 15.044C73.68 14.948 73.856 14.9 74.016 14.9C74.272 14.868 74.512 14.868 74.736 14.9C74.992 14.9 75.232 14.9 75.456 14.9H100.512C100.864 14.9 101.232 14.884 101.616 14.852C102 14.82 102.352 14.852 102.672 14.948C102.768 14.98 102.848 15.028 102.912 15.092C103.008 15.124 103.072 15.172 103.104 15.236C103.328 15.396 103.456 15.572 103.488 15.764C103.52 15.956 103.536 16.164 103.536 16.388C103.568 16.9 103.568 17.444 103.536 18.02C103.536 18.564 103.536 19.108 103.536 19.652V22.628ZM76.176 32.66C76.24 32.948 76.224 32.916 76.128 32.564C76.032 32.212 75.952 31.748 75.888 31.172C75.856 30.564 75.904 30.1 76.032 29.78C76 30.292 75.984 30.788 75.984 31.268C76.016 31.748 76.08 32.212 76.176 32.66ZM76.56 32.612C76.496 32.804 76.48 32.804 76.512 32.612C76.576 32.388 76.64 32.068 76.704 31.652C76.768 31.236 76.8 30.852 76.8 30.5C76.8 30.852 76.784 31.204 76.752 31.556C76.752 31.908 76.688 32.26 76.56 32.612ZM136.368 41.972C136.208 42.356 136.048 42.628 135.888 42.788L135.312 43.652C135.024 44.036 134.704 44.404 134.352 44.756L133.488 45.524C133.456 46.1 133.424 46.676 133.392 47.252C133.392 47.828 133.376 48.42 133.344 49.028C133.312 49.316 133.312 49.604 133.344 49.892C133.376 50.212 133.312 50.5 133.152 50.756C133.024 50.916 132.96 50.804 132.96 50.42C132.992 50.036 133.008 49.732 133.008 49.508C132.976 48.964 132.944 48.404 132.912 47.828C132.912 47.22 132.88 46.644 132.816 46.1C132.592 46.356 132.4 46.676 132.24 47.06C132.08 47.444 131.952 47.796 131.856 48.116C131.664 48.66 131.472 49.22 131.28 49.796C131.088 50.372 130.88 50.932 130.656 51.476C130.56 51.732 130.464 51.988 130.368 52.244C130.272 52.532 130.144 52.788 129.984 53.012C129.952 53.044 129.888 53.092 129.792 53.156C129.728 53.22 129.664 53.268 129.6 53.3C129.376 53.332 129.184 53.188 129.024 52.868C128.864 52.58 128.752 52.372 128.688 52.244C128.656 52.18 128.608 52.116 128.544 52.052C128.512 51.988 128.496 51.924 128.496 51.86C128.464 51.38 128.432 50.884 128.4 50.372C128.4 49.892 128.368 49.396 128.304 48.884C128.176 49.076 128.032 49.268 127.872 49.46C127.744 49.652 127.6 49.844 127.44 50.036C127.376 50.1 127.344 50.132 127.344 50.132C127.312 50.196 127.264 50.244 127.2 50.276C127.136 50.34 127.072 50.404 127.008 50.468C126.976 50.532 126.912 50.644 126.816 50.804C126.752 50.996 126.688 51.124 126.624 51.188C126.56 51.252 126.496 51.252 126.432 51.188C126.336 51.124 126.256 50.98 126.192 50.756C126.16 50.564 126.112 50.42 126.048 50.324C125.92 50.228 125.808 50.1 125.712 49.94C125.616 49.78 125.536 49.636 125.472 49.508C125.408 49.412 125.344 49.3 125.28 49.172C125.248 49.332 125.216 49.508 125.184 49.7C125.184 49.924 125.152 50.116 125.088 50.276C125.088 50.276 125.024 50.276 124.896 50.276C124.8 50.276 124.704 50.26 124.608 50.228C124.512 50.228 124.416 50.228 124.32 50.228C124.096 50.196 123.936 50.164 123.84 50.132H123.552C123.392 50.228 123.136 50.228 122.784 50.132C122.752 50.1 122.704 50.068 122.64 50.036C122.608 50.004 122.592 50.004 122.592 50.036C122.528 50.612 122.496 51.172 122.496 51.716C122.496 52.292 122.464 52.852 122.4 53.396C122.368 53.524 122.336 53.46 122.304 53.204C122.272 52.98 122.24 52.804 122.208 52.676C122.176 52.164 122.16 51.652 122.16 51.14C122.192 50.628 122.144 50.116 122.016 49.604C121.984 49.412 121.952 49.428 121.92 49.652C121.92 49.876 121.92 50.148 121.92 50.468C121.92 50.788 121.888 51.028 121.824 51.188C121.792 51.316 121.76 51.252 121.728 50.996C121.728 50.772 121.712 50.596 121.68 50.468L121.392 48.98H121.344C118.176 48.916 115.424 48.356 113.088 47.3C110.752 46.244 108.944 44.692 107.664 42.644C107.44 42.388 107.248 42.084 107.088 41.732C106.96 41.38 106.848 41.044 106.752 40.724L106.464 40.052V40.004C106.4 39.812 106.336 39.62 106.272 39.428C106.208 39.236 106.144 39.044 106.08 38.852C105.952 38.372 105.856 37.748 105.792 36.98C105.728 36.212 105.696 35.46 105.696 34.724C105.696 33.956 105.696 33.332 105.696 32.852C105.696 32.212 105.696 31.572 105.696 30.932C105.696 30.26 105.712 29.62 105.744 29.012V28.628C105.744 28.18 105.744 27.716 105.744 27.236C105.776 26.756 105.84 26.292 105.936 25.844C105.936 25.78 105.936 25.732 105.936 25.7C105.968 25.668 105.984 25.636 105.984 25.604C106.272 23.844 106.848 22.276 107.712 20.9C108 20.324 108.384 19.796 108.864 19.316C111.744 16.052 116.064 14.42 121.824 14.42H122.832C122.896 14.42 122.944 14.436 122.976 14.468C123.136 14.468 123.28 14.468 123.408 14.468C123.568 14.468 123.712 14.484 123.84 14.516C123.936 14.484 124.016 14.484 124.08 14.516C124.176 14.516 124.272 14.516 124.368 14.516L125.184 14.66C125.504 14.692 125.808 14.74 126.096 14.804C126.416 14.868 126.736 14.932 127.056 14.996C127.408 15.028 127.808 15.124 128.256 15.284C128.288 15.284 128.304 15.3 128.304 15.332C128.336 15.332 128.368 15.332 128.4 15.332C128.656 15.364 128.896 15.428 129.12 15.524C129.376 15.588 129.584 15.684 129.744 15.812C131.792 16.644 133.552 17.892 135.024 19.556C135.472 20.004 135.872 20.612 136.224 21.38C136.8 22.468 137.232 23.604 137.52 24.788C137.616 25.012 137.664 25.284 137.664 25.604L137.808 26.516C137.84 26.868 137.856 27.22 137.856 27.572C137.888 27.924 137.904 28.276 137.904 28.628C137.936 29.108 137.952 29.7 137.952 30.404C137.952 31.108 137.952 31.812 137.952 32.516C137.952 33.22 137.952 33.812 137.952 34.292C137.92 34.9 137.904 35.524 137.904 36.164C137.904 36.772 137.824 37.364 137.664 37.94C137.44 39.412 137.008 40.756 136.368 41.972ZM119.808 38.756C120 39.012 120.208 39.236 120.432 39.428C120.752 39.492 121.136 39.556 121.584 39.62H122.16C122.256 39.588 122.352 39.572 122.448 39.572C122.576 39.572 122.688 39.556 122.784 39.524C123.392 39.364 123.888 39.076 124.272 38.66C124.432 38.5 124.576 38.308 124.704 38.084C124.832 37.86 124.928 37.636 124.992 37.412L125.136 36.884C125.264 36.34 125.328 35.812 125.328 35.3C125.36 34.756 125.392 34.292 125.424 33.908V30.596C125.424 30.212 125.424 29.828 125.424 29.444C125.424 29.028 125.408 28.628 125.376 28.244C125.376 28.02 125.376 27.812 125.376 27.62C125.376 27.396 125.36 27.188 125.328 26.996C125.296 26.932 125.28 26.868 125.28 26.804C125.28 26.708 125.264 26.644 125.232 26.612C125.232 26.516 125.2 26.372 125.136 26.18C125.04 25.796 124.896 25.476 124.704 25.22C124.512 24.932 124.288 24.676 124.032 24.452L123.984 24.404C123.856 24.34 123.776 24.308 123.744 24.308C123.68 24.276 123.568 24.26 123.408 24.26C123.376 24.26 123.344 24.276 123.312 24.308C123.28 24.34 123.216 24.372 123.12 24.404C123.088 24.404 123.056 24.404 123.024 24.404C123.024 24.372 122.992 24.356 122.928 24.356C122.8 24.388 122.656 24.468 122.496 24.596C122.336 24.724 122.208 24.836 122.112 24.932C122.048 24.964 121.952 25.012 121.824 25.076C121.696 25.14 121.616 25.204 121.584 25.268C121.456 25.428 121.392 25.572 121.392 25.7C121.392 25.828 121.264 25.876 121.008 25.844C120.784 25.844 120.688 25.812 120.72 25.748C120.784 25.684 120.736 25.54 120.576 25.316C120.544 25.252 120.496 25.204 120.432 25.172C120.368 25.14 120.304 25.108 120.24 25.076C120.272 25.076 120.224 25.044 120.096 24.98C120 24.884 119.936 24.82 119.904 24.788C119.904 24.788 119.888 24.788 119.856 24.788C119.856 24.756 119.792 24.676 119.664 24.548C119.6 24.452 119.584 24.436 119.616 24.5C119.68 24.532 119.664 24.532 119.568 24.5C119.568 24.5 119.552 24.5 119.52 24.5C119.52 24.5 119.52 24.516 119.52 24.548C119.456 24.612 119.376 24.692 119.28 24.788C119.184 24.852 119.056 25.012 118.896 25.268C118.672 25.684 118.528 26.1 118.464 26.516C118.4 26.9 118.336 27.284 118.272 27.668C118.272 27.828 118.256 28.052 118.224 28.34C118.224 28.628 118.224 28.9 118.224 29.156V32.852C118.224 33.108 118.224 33.364 118.224 33.62C118.256 33.844 118.288 34.084 118.32 34.34C118.416 35.012 118.592 35.796 118.848 36.692L118.992 37.076C119.12 37.396 119.248 37.7 119.376 37.988C119.504 38.244 119.648 38.5 119.808 38.756ZM173.481 32.084V33.572C173.481 34.084 173.465 34.66 173.433 35.3C173.433 35.94 173.385 36.532 173.289 37.076C173.193 37.652 173.081 38.212 172.953 38.756C172.825 39.268 172.665 39.78 172.473 40.292C172.345 40.644 172.233 40.964 172.137 41.252C172.041 41.508 171.913 41.716 171.753 41.876C171.753 41.908 171.737 41.924 171.705 41.924C171.705 41.924 171.705 41.94 171.705 41.972C171.481 42.388 171.273 42.724 171.081 42.98C170.953 43.204 170.793 43.428 170.601 43.652C170.409 43.844 170.217 44.036 170.025 44.228C169.865 44.388 169.689 44.548 169.497 44.708C169.337 44.868 169.177 45.028 169.017 45.188C169.017 45.188 169.001 45.188 168.969 45.188C168.969 45.188 168.969 45.204 168.969 45.236C168.809 45.396 168.649 45.636 168.489 45.956C168.457 45.988 168.441 46.02 168.441 46.052C168.441 46.084 168.425 46.116 168.393 46.148L168.249 46.388C168.217 46.42 168.185 46.468 168.153 46.532C168.153 46.564 168.137 46.58 168.105 46.58C167.977 46.804 167.817 47.012 167.625 47.204C167.465 47.332 167.273 47.492 167.049 47.684C166.857 47.844 166.649 47.956 166.425 48.02H166.185C166.153 48.148 166.105 48.292 166.041 48.452C166.009 48.58 165.961 48.708 165.897 48.836C165.865 48.868 165.833 48.916 165.801 48.98C165.801 49.044 165.769 49.108 165.705 49.172C165.673 49.204 165.641 49.236 165.609 49.268C165.577 49.3 165.561 49.348 165.561 49.412C165.529 49.764 165.497 50.292 165.465 50.996C165.465 51.7 165.449 52.436 165.417 53.204C165.417 54.004 165.417 54.756 165.417 55.46C165.417 56.164 165.401 56.692 165.369 57.044C165.369 57.076 165.305 57.028 165.177 56.9C165.145 56.804 165.113 56.708 165.081 56.612C165.081 56.516 165.049 56.42 164.985 56.324L164.505 54.164C164.345 53.684 164.265 53.092 164.265 52.388C164.265 51.684 164.265 50.98 164.265 50.276C164.297 49.604 164.249 49.028 164.121 48.548C164.121 48.548 164.105 48.548 164.073 48.548C164.073 48.58 164.073 48.612 164.073 48.644C164.073 48.676 164.057 48.676 164.025 48.644C163.993 48.612 163.961 48.596 163.929 48.596C163.865 48.564 163.801 48.516 163.737 48.452C163.705 48.42 163.657 48.388 163.593 48.356C163.561 48.324 163.513 48.292 163.449 48.26C163.321 48.388 163.225 48.516 163.161 48.644C163.097 48.708 163.065 48.756 163.065 48.788L162.777 49.124C162.425 49.572 162.153 50.068 161.961 50.612L161.673 51.476C161.545 51.86 161.401 52.26 161.241 52.676C161.081 53.124 160.841 53.524 160.521 53.876C160.329 54.068 160.249 54.132 160.281 54.068C160.345 54.036 160.377 54.004 160.377 53.972L160.185 54.164C160.057 54.228 159.993 54.276 159.993 54.308C159.993 54.372 159.913 54.42 159.753 54.452C159.721 54.452 159.657 54.436 159.561 54.404C159.497 54.372 159.433 54.372 159.369 54.404C159.337 54.404 159.305 54.404 159.273 54.404C159.241 54.436 159.193 54.452 159.129 54.452L158.793 54.692C158.729 54.724 158.633 54.788 158.505 54.884C158.409 54.98 158.313 54.98 158.217 54.884C158.185 54.852 158.153 54.804 158.121 54.74C158.121 54.676 158.089 54.628 158.025 54.596C157.993 54.564 157.961 54.564 157.929 54.596C157.897 54.66 157.865 54.676 157.833 54.644C157.801 54.612 157.769 54.58 157.737 54.548C157.705 54.516 157.673 54.484 157.641 54.452C157.513 54.388 157.385 54.292 157.257 54.164C157.129 54.036 157.001 53.924 156.873 53.828C156.745 53.7 156.633 53.604 156.537 53.54C156.473 53.7 156.441 53.86 156.441 54.02C156.441 54.212 156.409 54.388 156.345 54.548C156.313 54.676 156.265 54.788 156.201 54.884C156.169 54.98 156.153 55.076 156.153 55.172C156.121 55.524 156.105 56.036 156.105 56.708C156.105 57.412 156.105 58.148 156.105 58.916C156.105 59.684 156.089 60.404 156.057 61.076C156.025 61.78 155.977 62.308 155.913 62.66C155.881 62.948 155.849 62.996 155.817 62.804C155.817 62.612 155.801 62.292 155.769 61.844C155.769 61.396 155.753 60.932 155.721 60.452C155.721 60.004 155.721 59.636 155.721 59.348C155.689 58.868 155.657 58.26 155.625 57.524C155.625 56.788 155.609 56.052 155.577 55.316C155.577 54.612 155.561 54.02 155.529 53.54C155.401 53.636 155.289 53.748 155.193 53.876C155.001 54.1 154.825 54.324 154.665 54.548C154.505 54.772 154.297 54.964 154.041 55.124C154.009 55.38 153.977 55.636 153.945 55.892C153.913 56.148 153.881 56.404 153.849 56.66C153.817 57.14 153.753 57.604 153.657 58.052C153.593 58.5 153.529 58.948 153.465 59.396C153.433 59.588 153.401 59.764 153.369 59.924C153.369 60.116 153.337 60.292 153.273 60.452C153.241 60.58 153.209 60.772 153.177 61.028C153.145 61.316 153.113 61.396 153.081 61.268C153.017 60.532 152.985 59.732 152.985 58.868C152.985 58.036 152.953 57.268 152.889 56.564C152.889 56.532 152.857 56.516 152.793 56.516C152.729 56.516 152.697 56.532 152.697 56.564C152.633 57.268 152.601 58.068 152.601 58.964C152.601 59.86 152.569 60.676 152.505 61.412C152.505 61.54 152.473 61.492 152.409 61.268C152.377 61.044 152.345 60.884 152.313 60.788C152.217 60.436 152.137 60.036 152.073 59.588C152.009 59.14 151.945 58.772 151.881 58.484C151.817 57.908 151.753 57.332 151.689 56.756C151.657 56.212 151.593 55.668 151.497 55.124L151.209 54.836C151.113 54.676 151.017 54.516 150.921 54.356C150.857 54.228 150.793 54.1 150.729 53.972C150.473 53.396 150.233 52.82 150.009 52.244C149.817 51.668 149.593 51.108 149.337 50.564L148.617 49.076C148.585 49.012 148.569 48.964 148.569 48.932C148.569 48.9 148.553 48.868 148.521 48.836C148.457 48.964 148.425 49.108 148.425 49.268C148.457 49.46 148.425 49.636 148.329 49.796C148.297 49.828 148.265 49.78 148.233 49.652C148.201 49.556 148.169 49.492 148.137 49.46C148.105 49.268 148.057 49.124 147.993 49.028C147.993 49.092 147.961 49.156 147.897 49.22C147.865 49.284 147.801 49.364 147.705 49.46C147.609 49.556 147.513 49.652 147.417 49.748C147.353 49.844 147.273 49.924 147.177 49.988C147.017 50.212 146.889 50.468 146.793 50.756C146.729 51.076 146.665 51.364 146.601 51.62C146.569 51.748 146.537 51.876 146.505 52.004C146.505 52.132 146.473 52.26 146.409 52.388C146.377 52.516 146.345 52.708 146.313 52.964C146.281 53.22 146.249 53.284 146.217 53.156C145.865 52.804 145.705 52.66 145.737 52.724C145.769 52.82 145.865 52.98 146.025 53.204C146.185 53.46 146.281 53.668 146.313 53.828C146.345 54.02 146.185 54.036 145.833 53.876C145.513 53.78 145.353 53.556 145.353 53.204C145.385 52.852 145.449 52.452 145.545 52.004C145.673 51.556 145.705 51.172 145.641 50.852C145.641 50.788 145.609 50.724 145.545 50.66C145.513 50.596 145.497 50.596 145.497 50.66C145.465 50.82 145.449 51.06 145.449 51.38C145.449 51.7 145.449 51.956 145.449 52.148C145.449 52.372 145.401 52.404 145.305 52.244C145.145 51.892 145.097 51.524 145.161 51.14C145.225 50.756 145.225 50.388 145.161 50.036C145.129 49.844 145.049 49.684 144.921 49.556C144.857 49.524 144.793 49.476 144.729 49.412C144.665 49.348 144.601 49.3 144.537 49.268C144.505 49.268 144.473 49.284 144.441 49.316C144.441 49.38 144.425 49.428 144.393 49.46C144.297 49.46 144.249 49.476 144.249 49.508C144.217 49.764 144.217 50.1 144.249 50.516C144.313 50.964 144.345 51.332 144.345 51.62C144.377 51.908 144.281 51.988 144.057 51.86C143.737 51.604 143.641 51.22 143.769 50.708C143.929 50.196 143.977 49.732 143.913 49.316C143.913 49.252 143.897 49.172 143.865 49.076C143.833 48.98 143.785 48.964 143.721 49.028C143.657 49.124 143.641 49.268 143.673 49.46C143.705 49.652 143.673 49.732 143.577 49.7C143.449 49.636 143.401 49.524 143.433 49.364C143.497 49.204 143.513 49.06 143.481 48.932L143.145 48.452C143.017 48.388 142.905 48.324 142.809 48.26C142.457 48.004 142.281 47.652 142.281 47.204V38.18C141.673 37.188 141.225 36.26 140.937 35.396C140.681 34.5 140.633 33.78 140.793 33.236C140.985 32.692 141.481 32.42 142.281 32.42V17.54C142.281 17.348 142.265 17.14 142.233 16.916C142.233 16.66 142.249 16.42 142.281 16.196C142.281 15.876 142.361 15.62 142.521 15.428C142.649 15.236 142.825 15.092 143.049 14.996C143.241 14.932 143.401 14.9 143.529 14.9C143.689 14.868 143.849 14.868 144.009 14.9C144.201 14.9 144.377 14.9 144.537 14.9H156.537C157.049 14.9 157.561 14.9 158.073 14.9C158.585 14.9 159.097 14.932 159.609 14.996C163.129 15.284 166.089 16.34 168.489 18.164C168.681 18.292 168.825 18.404 168.921 18.5C169.017 18.564 169.097 18.628 169.161 18.692C169.737 19.172 170.297 19.764 170.841 20.468C171.225 20.884 171.545 21.364 171.801 21.908C172.409 23.028 172.857 24.292 173.145 25.7C173.145 25.732 173.145 25.748 173.145 25.748C173.177 25.748 173.193 25.764 173.193 25.796C173.225 25.924 173.257 26.068 173.289 26.228C173.321 26.356 173.337 26.5 173.337 26.66C173.433 27.076 173.481 27.524 173.481 28.004C173.545 29.508 173.545 30.868 173.481 32.084ZM154.473 24.404L154.185 24.116C153.833 23.764 153.689 23.604 153.753 23.636C153.817 23.668 153.929 23.78 154.089 23.972C154.281 24.164 154.345 24.324 154.281 24.452V38.564C154.281 40.9 154.009 42.612 153.465 43.7C152.953 44.788 152.249 45.38 151.353 45.476C150.489 45.572 149.545 45.332 148.521 44.756C147.497 44.148 146.489 43.332 145.497 42.308C144.505 41.284 143.609 40.196 142.809 39.044C142.041 37.892 141.465 36.804 141.081 35.78C140.697 34.724 140.601 33.892 140.793 33.284C141.017 32.644 141.609 32.356 142.569 32.42C143.529 32.452 144.953 32.98 146.841 34.004C148.761 34.996 151.241 36.612 154.281 38.852L154.665 39.14H156.681C157.097 39.14 157.497 39.124 157.881 39.092C158.297 39.028 158.713 38.932 159.129 38.804C159.385 38.708 159.625 38.564 159.849 38.372C159.881 38.372 159.897 38.372 159.897 38.372C159.897 38.34 159.913 38.324 159.945 38.324C160.009 38.26 160.073 38.18 160.137 38.084C160.201 37.988 160.265 37.892 160.329 37.796C160.521 37.476 160.665 37.14 160.761 36.788C160.889 36.404 160.985 36.052 161.049 35.732C161.049 35.7 161.049 35.668 161.049 35.636C161.081 35.572 161.097 35.524 161.097 35.492C161.161 35.3 161.193 35.108 161.193 34.916C161.225 34.692 161.257 34.484 161.289 34.292C161.289 33.94 161.289 33.556 161.289 33.14C161.321 32.692 161.337 32.244 161.337 31.796V31.076C161.337 30.756 161.321 30.452 161.289 30.164C161.289 29.844 161.289 29.524 161.289 29.204C161.289 29.108 161.273 28.948 161.241 28.724C161.241 28.468 161.241 28.228 161.241 28.004C161.209 27.652 161.145 27.332 161.049 27.044C160.985 26.724 160.873 26.42 160.713 26.132C160.713 26.132 160.681 26.068 160.617 25.94C160.585 25.876 160.521 25.796 160.425 25.7C160.425 25.668 160.393 25.62 160.329 25.556L160.041 25.268C159.817 25.076 159.593 24.98 159.369 24.98C159.145 24.98 158.905 25.012 158.649 25.076C158.393 25.108 158.121 25.172 157.833 25.268C157.545 25.332 157.257 25.38 156.969 25.412C156.841 25.444 156.697 25.476 156.537 25.508C156.409 25.508 156.281 25.492 156.153 25.46C155.929 25.396 155.705 25.3 155.481 25.172C155.257 25.012 155.049 24.868 154.857 24.74C154.697 24.58 154.569 24.468 154.473 24.404ZM207.524 41.972C207.364 42.356 207.204 42.628 207.044 42.788L206.468 43.652C206.18 44.036 205.86 44.404 205.508 44.756L204.644 45.524C204.612 46.1 204.58 46.676 204.548 47.252C204.548 47.828 204.532 48.42 204.5 49.028C204.468 49.316 204.468 49.604 204.5 49.892C204.532 50.212 204.468 50.5 204.308 50.756C204.18 50.916 204.116 50.804 204.116 50.42C204.148 50.036 204.164 49.732 204.164 49.508C204.132 48.964 204.1 48.404 204.068 47.828C204.068 47.22 204.036 46.644 203.972 46.1C203.748 46.356 203.556 46.676 203.396 47.06C203.236 47.444 203.108 47.796 203.012 48.116C202.82 48.66 202.628 49.22 202.436 49.796C202.244 50.372 202.036 50.932 201.812 51.476C201.716 51.732 201.62 51.988 201.524 52.244C201.428 52.532 201.3 52.788 201.14 53.012C201.108 53.044 201.044 53.092 200.948 53.156C200.884 53.22 200.82 53.268 200.756 53.3C200.532 53.332 200.34 53.188 200.18 52.868C200.02 52.58 199.908 52.372 199.844 52.244C199.812 52.18 199.764 52.116 199.7 52.052C199.668 51.988 199.652 51.924 199.652 51.86C199.62 51.38 199.588 50.884 199.556 50.372C199.556 49.892 199.524 49.396 199.46 48.884C199.332 49.076 199.188 49.268 199.028 49.46C198.9 49.652 198.756 49.844 198.596 50.036C198.532 50.1 198.5 50.132 198.5 50.132C198.468 50.196 198.42 50.244 198.356 50.276C198.292 50.34 198.228 50.404 198.164 50.468C198.132 50.532 198.068 50.644 197.972 50.804C197.908 50.996 197.844 51.124 197.78 51.188C197.716 51.252 197.652 51.252 197.588 51.188C197.492 51.124 197.412 50.98 197.348 50.756C197.316 50.564 197.268 50.42 197.204 50.324C197.076 50.228 196.964 50.1 196.868 49.94C196.772 49.78 196.692 49.636 196.628 49.508C196.564 49.412 196.5 49.3 196.436 49.172C196.404 49.332 196.372 49.508 196.34 49.7C196.34 49.924 196.308 50.116 196.244 50.276C196.244 50.276 196.18 50.276 196.052 50.276C195.956 50.276 195.86 50.26 195.764 50.228C195.668 50.228 195.572 50.228 195.476 50.228C195.252 50.196 195.092 50.164 194.996 50.132H194.708C194.548 50.228 194.292 50.228 193.94 50.132C193.908 50.1 193.86 50.068 193.796 50.036C193.764 50.004 193.748 50.004 193.748 50.036C193.684 50.612 193.652 51.172 193.652 51.716C193.652 52.292 193.62 52.852 193.556 53.396C193.524 53.524 193.492 53.46 193.46 53.204C193.428 52.98 193.396 52.804 193.364 52.676C193.332 52.164 193.316 51.652 193.316 51.14C193.348 50.628 193.3 50.116 193.172 49.604C193.14 49.412 193.108 49.428 193.076 49.652C193.076 49.876 193.076 50.148 193.076 50.468C193.076 50.788 193.044 51.028 192.98 51.188C192.948 51.316 192.916 51.252 192.884 50.996C192.884 50.772 192.868 50.596 192.836 50.468L192.548 48.98H192.5C189.332 48.916 186.58 48.356 184.244 47.3C181.908 46.244 180.1 44.692 178.82 42.644C178.596 42.388 178.404 42.084 178.244 41.732C178.116 41.38 178.004 41.044 177.908 40.724L177.62 40.052V40.004C177.556 39.812 177.492 39.62 177.428 39.428C177.364 39.236 177.3 39.044 177.236 38.852C177.108 38.372 177.012 37.748 176.948 36.98C176.884 36.212 176.852 35.46 176.852 34.724C176.852 33.956 176.852 33.332 176.852 32.852C176.852 32.212 176.852 31.572 176.852 30.932C176.852 30.26 176.868 29.62 176.9 29.012V28.628C176.9 28.18 176.9 27.716 176.9 27.236C176.932 26.756 176.996 26.292 177.092 25.844C177.092 25.78 177.092 25.732 177.092 25.7C177.124 25.668 177.14 25.636 177.14 25.604C177.428 23.844 178.004 22.276 178.868 20.9C179.156 20.324 179.54 19.796 180.02 19.316C182.9 16.052 187.22 14.42 192.98 14.42H193.988C194.052 14.42 194.1 14.436 194.132 14.468C194.292 14.468 194.436 14.468 194.564 14.468C194.724 14.468 194.868 14.484 194.996 14.516C195.092 14.484 195.172 14.484 195.236 14.516C195.332 14.516 195.428 14.516 195.524 14.516L196.34 14.66C196.66 14.692 196.964 14.74 197.252 14.804C197.572 14.868 197.892 14.932 198.212 14.996C198.564 15.028 198.964 15.124 199.412 15.284C199.444 15.284 199.46 15.3 199.46 15.332C199.492 15.332 199.524 15.332 199.556 15.332C199.812 15.364 200.052 15.428 200.276 15.524C200.532 15.588 200.74 15.684 200.9 15.812C202.948 16.644 204.708 17.892 206.18 19.556C206.628 20.004 207.028 20.612 207.38 21.38C207.956 22.468 208.388 23.604 208.676 24.788C208.772 25.012 208.82 25.284 208.82 25.604L208.964 26.516C208.996 26.868 209.012 27.22 209.012 27.572C209.044 27.924 209.06 28.276 209.06 28.628C209.092 29.108 209.108 29.7 209.108 30.404C209.108 31.108 209.108 31.812 209.108 32.516C209.108 33.22 209.108 33.812 209.108 34.292C209.076 34.9 209.06 35.524 209.06 36.164C209.06 36.772 208.98 37.364 208.82 37.94C208.596 39.412 208.164 40.756 207.524 41.972ZM190.964 38.756C191.156 39.012 191.364 39.236 191.588 39.428C191.908 39.492 192.292 39.556 192.74 39.62H193.316C193.412 39.588 193.508 39.572 193.604 39.572C193.732 39.572 193.844 39.556 193.94 39.524C194.548 39.364 195.044 39.076 195.428 38.66C195.588 38.5 195.732 38.308 195.86 38.084C195.988 37.86 196.084 37.636 196.148 37.412L196.292 36.884C196.42 36.34 196.484 35.812 196.484 35.3C196.516 34.756 196.548 34.292 196.58 33.908V30.596C196.58 30.212 196.58 29.828 196.58 29.444C196.58 29.028 196.564 28.628 196.532 28.244C196.532 28.02 196.532 27.812 196.532 27.62C196.532 27.396 196.516 27.188 196.484 26.996C196.452 26.932 196.436 26.868 196.436 26.804C196.436 26.708 196.42 26.644 196.388 26.612C196.388 26.516 196.356 26.372 196.292 26.18C196.196 25.796 196.052 25.476 195.86 25.22C195.668 24.932 195.444 24.676 195.188 24.452L195.14 24.404C195.012 24.34 194.932 24.308 194.9 24.308C194.836 24.276 194.724 24.26 194.564 24.26C194.532 24.26 194.5 24.276 194.468 24.308C194.436 24.34 194.372 24.372 194.276 24.404C194.244 24.404 194.212 24.404 194.18 24.404C194.18 24.372 194.148 24.356 194.084 24.356C193.956 24.388 193.812 24.468 193.652 24.596C193.492 24.724 193.364 24.836 193.268 24.932C193.204 24.964 193.108 25.012 192.98 25.076C192.852 25.14 192.772 25.204 192.74 25.268C192.612 25.428 192.548 25.572 192.548 25.7C192.548 25.828 192.42 25.876 192.164 25.844C191.94 25.844 191.844 25.812 191.876 25.748C191.94 25.684 191.892 25.54 191.732 25.316C191.7 25.252 191.652 25.204 191.588 25.172C191.524 25.14 191.46 25.108 191.396 25.076C191.428 25.076 191.38 25.044 191.252 24.98C191.156 24.884 191.092 24.82 191.06 24.788C191.06 24.788 191.044 24.788 191.012 24.788C191.012 24.756 190.948 24.676 190.82 24.548C190.756 24.452 190.74 24.436 190.772 24.5C190.836 24.532 190.82 24.532 190.724 24.5C190.724 24.5 190.708 24.5 190.676 24.5C190.676 24.5 190.676 24.516 190.676 24.548C190.612 24.612 190.532 24.692 190.436 24.788C190.34 24.852 190.212 25.012 190.052 25.268C189.828 25.684 189.684 26.1 189.62 26.516C189.556 26.9 189.492 27.284 189.428 27.668C189.428 27.828 189.412 28.052 189.38 28.34C189.38 28.628 189.38 28.9 189.38 29.156V32.852C189.38 33.108 189.38 33.364 189.38 33.62C189.412 33.844 189.444 34.084 189.476 34.34C189.572 35.012 189.748 35.796 190.004 36.692L190.148 37.076C190.276 37.396 190.404 37.7 190.532 37.988C190.66 38.244 190.804 38.5 190.964 38.756Z" fill="#D90429"/>
</svg>
