<svg width="236" height="272" viewBox="0 0 236 272" fill="none" xmlns="http://www.w3.org/2000/svg">
<path d="M233.976 64.1621C233.573 65.6962 232.638 67.0235 231.669 68.2639C230.146 70.2005 228.471 72.0066 226.643 73.6495C225.979 74.2479 225.305 74.8245 224.608 75.3685C224.478 75.4882 224.347 75.5861 224.206 75.684C223.847 75.9778 223.477 76.2498 223.118 76.5109C223.009 76.5979 222.9 76.6741 222.791 76.7503C222.334 77.0767 221.823 77.4792 221.823 78.0559C221.834 78.3496 221.975 78.6216 222.139 78.8719C223.64 81.3743 225.762 83.6155 226.969 86.2485C226.969 86.2485 226.98 86.2485 226.98 86.2594C227.067 86.4552 227.154 86.6728 227.23 86.8795C227.535 87.652 227.753 88.4571 227.851 89.3167C227.872 89.469 227.894 89.5995 227.905 89.7627V89.7736C228.057 91.1336 227.785 92.4827 227.263 93.7557C226.937 94.5717 226.491 95.3551 225.979 96.0623C224.597 98.0098 222.726 99.5547 220.887 101.078C218.875 102.743 216.851 104.407 214.838 106.061C212.249 108.204 209.659 110.337 207.07 112.469C206.352 113.068 205.623 113.666 205.155 114.471C205.144 114.493 205.133 114.504 205.122 114.526C204.654 115.363 204.535 116.343 204.513 117.3C204.48 119.715 205.144 122.065 205.797 124.394C206.548 127.049 207.298 129.714 208.049 132.38C208.18 132.826 208.299 133.272 208.43 133.729C208.713 134.741 208.995 135.753 208.974 136.797C208.898 139.43 206.874 141.595 204.709 143.086C203.969 143.608 203.175 144.087 202.413 144.554C200.966 145.436 199.563 146.284 198.594 147.351C197.202 148.319 195.787 149.298 194.438 150.332C192.752 151.626 191.131 153.008 189.694 154.575C187.562 156.892 185.865 159.569 184.178 162.245C183.406 163.486 182.622 164.715 181.926 165.999C181.926 165.999 181.915 166.01 181.926 166.021C181.534 166.728 181.164 167.424 180.827 168.164C179.5 171.047 178.727 174.159 177.639 177.14C176.976 178.946 176.171 180.73 175.126 182.362C175.126 182.373 175.126 182.384 175.115 182.406C174.452 183.472 173.69 184.419 172.809 185.311C169.958 186.16 167.26 187.476 164.823 189.173C163.974 189.761 163.115 190.479 162.875 191.48C162.843 191.621 162.821 191.785 162.821 191.937C162.81 192.383 162.897 192.829 162.973 193.264C163.615 196.517 164.366 199.749 165.258 202.937V202.947C165.269 203.024 165.291 203.067 165.312 203.143C165.465 203.687 165.639 204.177 165.758 204.732V204.851C165.845 205.297 165.9 205.754 165.9 206.211C165.9 206.777 165.813 207.332 165.682 207.876C165.552 208.42 165.367 208.953 165.171 209.486C165.095 209.682 165.008 209.867 164.932 210.063V210.074C163.234 214.295 160.558 218.136 157.196 221.204C156.358 221.977 155.477 222.695 154.563 223.369C149.036 227.536 142.508 230.485 137.971 235.849C136.263 237.219 135.055 239.08 134.152 241.104C133.739 241.985 133.401 242.888 133.097 243.791C132.085 246.772 131.399 249.884 129.963 252.702C127.102 258.327 121.618 262.222 118.496 267.727C118.245 267.357 117.952 267.02 117.636 266.715C117.321 266.4 116.972 266.128 116.603 265.866C116.331 265.671 116.048 265.486 115.754 265.301C114.035 264.256 112.066 263.429 110.673 261.982C110.651 261.961 110.64 261.95 110.619 261.928C108.127 259.317 107.812 255.15 105.331 252.517C104.809 251.951 104.188 251.483 103.525 251.081C102.089 250.221 100.391 249.731 98.7376 249.405C98.0086 249.274 97.2797 249.155 96.5507 249.046C96.1917 248.992 95.8326 248.937 95.4953 248.883C94.1245 248.687 92.7645 248.437 91.448 248.012C89.7181 247.436 87.9337 246.348 87.3789 244.64C87.3353 244.498 87.3027 244.368 87.2701 244.226C87.1286 243.465 87.2483 242.67 87.0742 241.92C86.6608 240.222 84.9526 239.243 83.3968 238.449L75.9005 234.663C74.7798 234.097 73.5504 233.411 73.1478 232.215C72.9302 231.562 72.9955 230.855 73.0499 230.191C73.0934 229.712 73.1261 229.244 73.1478 228.777C73.3545 225.066 73.1587 221.345 72.3971 217.625C72.3536 217.418 72.3101 217.211 72.2557 217.015C72.2122 216.776 72.1577 216.537 72.1033 216.286C71.9619 215.731 71.6573 215.264 71.2765 214.872C70.5257 214.089 69.4486 213.566 68.4368 213.12C67.1094 212.544 65.7821 211.967 64.4438 211.379C63.9216 211.151 63.3885 210.912 62.8771 210.683C57.6112 208.279 52.5629 205.548 49.0813 201.261C49.0704 199.792 49.0377 198.313 48.9833 196.844C48.9616 196.147 48.9289 195.451 48.9072 194.766C48.8745 193.95 48.831 193.134 48.7984 192.307C48.5155 185.724 48.2326 179.131 47.9497 172.527C47.9389 172.255 47.928 171.972 47.9062 171.7C47.8518 170.645 47.7648 169.578 47.5472 168.545C47.2752 168.316 46.9923 168.121 46.6985 167.914C46.6877 167.903 46.6877 167.903 46.6768 167.914C46.6659 167.903 46.6659 167.903 46.655 167.903C46.5789 167.859 46.5353 167.816 46.4701 167.761C44.6857 166.663 42.5641 166.097 40.5187 165.509C38.8541 165.041 37.1785 164.519 35.7097 163.616C32.424 161.625 30.4438 157.937 29.6713 154.161C29.519 153.432 29.4102 152.714 29.3232 151.985C29.2579 151.365 29.2035 150.756 29.1817 150.136C29.0621 147.655 29.2361 145.153 29.4102 142.672C29.7584 137.678 30.1065 132.684 30.4547 127.69C30.52 126.744 30.5853 125.776 30.3677 125.014C30.335 124.851 30.2806 124.709 30.2153 124.568C29.0403 123.817 27.6259 123.621 26.2224 123.785C25.1888 123.893 24.1769 124.187 23.2521 124.601C21.0326 125.591 19.1395 127.146 17.007 128.3C15.8755 128.931 14.6678 129.431 13.4601 129.921C13.3078 129.975 13.1555 130.041 13.0141 130.084C12.7529 130.193 12.5027 130.291 12.2416 130.389C9.7827 131.335 7.0083 132.26 4.2883 131.085C3.70078 130.835 3.11326 130.487 2.53662 130.019C3.24382 126.689 5.35454 123.85 6.88862 120.792L6.8995 120.782C7.24766 120.074 7.57406 119.367 7.83518 118.617C8.8579 115.766 9.0211 112.73 9.36926 109.738C9.4563 108.988 9.55422 108.215 9.68478 107.465C10.0656 105.201 10.6966 102.96 11.3929 100.741C13.0141 95.6162 15.0051 90.5896 15.0921 85.5413C15.103 84.8015 15.0704 84.0616 14.9942 83.3109C15.4294 75.684 16.2889 68.0898 17.5619 60.5608C17.9427 58.3195 18.3779 56.0456 19.4985 54.0655C21.3699 50.7688 24.7971 48.8104 28.3549 47.3416C28.3549 47.3307 28.3657 47.3307 28.3875 47.3307C29.1165 47.0261 29.8454 46.7432 30.5744 46.4712C32.5654 45.7205 34.6544 45.0459 36.7433 44.7522C36.7651 44.7413 36.7869 44.7413 36.8086 44.7413C38.4189 44.5237 40.0182 44.5455 41.5958 44.9698C42.9558 45.3506 44.1744 45.9816 45.295 46.7867C45.3059 46.7867 45.3059 46.7976 45.3059 46.7976C48.4937 49.0933 50.8873 52.7599 53.8141 55.5451C54.4451 56.1327 55.0979 56.6875 55.7942 57.2098C55.8051 57.2207 55.816 57.2207 55.816 57.2207C59.4717 59.9733 63.9325 61.6271 68.4912 61.8991C73.9203 62.2037 79.4473 60.5391 83.7885 57.2751C85.2355 56.1871 86.5629 54.9141 87.5203 53.38C88.3798 51.9874 88.9021 50.3989 89.3264 48.8104C91.0346 42.4456 91.3609 35.7979 92.6448 29.3352C93.9286 22.8725 96.3549 16.3119 100.805 12.0795C105.07 8.50002 109.966 5.67122 115.188 3.76722C116.853 3.15794 118.583 2.64658 120.324 2.33106H120.345C122.097 2.00466 123.881 1.8741 125.655 2.0373C127.591 2.21138 129.495 2.77714 131.193 3.70194C131.204 3.70194 131.214 3.71282 131.225 3.7237C132.64 4.51794 133.891 5.5733 134.827 6.90066C134.968 7.08562 135.088 7.29233 135.207 7.48817C136.459 9.50097 137.177 11.8837 138.928 13.4722C139.538 14.0162 140.234 14.4405 140.908 14.8975C140.908 14.8975 140.919 14.8975 140.919 14.9083C141.355 15.1803 141.768 15.485 142.149 15.8331C143.139 16.7253 143.835 18.1832 143.269 19.3909C143.182 19.5759 143.074 19.7391 142.921 19.8805C142.889 19.9458 142.823 20.0002 142.769 20.0437C141.833 20.8923 140.169 20.9032 138.896 20.4354C138.406 20.2504 137.906 20.0002 137.372 19.9893C136.85 19.9675 136.263 20.2613 136.143 20.7835C136.078 21.0664 136.176 21.3493 136.263 21.6213C139.004 30.3144 140.745 39.3231 141.42 48.4187C141.67 51.8677 141.866 55.556 143.998 58.276C145.957 60.7784 149.438 61.9535 152.517 61.1483C156.75 60.0386 159.328 55.8607 161.189 51.9112C162.788 48.3752 164.377 44.8283 165.954 41.3032C167.075 38.8117 168.206 36.3202 168.903 33.6763C169.664 30.8475 169.915 27.9099 170.589 25.0594C171.188 22.5026 172.112 20.0437 173.233 17.6719C174.049 15.9637 174.985 14.2773 176.268 12.8738C177.846 11.1656 179.892 9.95794 181.904 8.77202C183.253 7.97778 184.635 7.16178 186.148 6.68306C188.748 5.87794 191.62 6.16082 194.046 7.39026C194.09 7.41202 194.144 7.43378 194.188 7.45554C195.047 7.90162 195.852 8.46738 196.549 9.14194C197.648 10.2082 198.507 11.492 199.225 12.8411C199.617 13.5701 199.976 14.2991 200.302 15.0607C200.302 15.0607 200.313 15.0715 200.313 15.0824C202.304 19.652 203.218 24.6786 204.469 29.5419C205.307 32.8495 206.373 36.2005 207.951 39.2904C207.951 39.3013 207.962 39.3122 207.962 39.3122C208.778 40.9442 209.768 42.5 210.932 43.9362C210.932 43.9471 210.943 43.9471 210.954 43.9579C211.356 44.4584 211.781 44.9589 212.238 45.4159C212.444 45.8293 212.684 46.2427 212.901 46.6453C214.697 49.8658 216.905 52.8687 219.68 55.284C221.105 56.5135 222.693 57.5906 224.38 58.4175C226.404 59.4184 228.59 60.0712 230.853 60.2235C231.702 60.2888 232.616 60.2997 233.301 60.8111C233.671 61.0831 233.922 61.4639 234.052 61.8882C234.096 62.0079 234.128 62.1167 234.15 62.2363C234.183 62.8783 234.139 63.5528 233.976 64.1621Z" fill="#BBDAC0"/>
<path d="M18.6282 63.1726C18.5086 63.9233 18.4868 64.6958 18.6065 65.4465C18.737 64.6958 18.7479 63.9233 18.6282 63.1726Z" fill="#2B2D42"/>
<path d="M26.168 123.774C25.1344 123.883 24.1225 124.177 23.1977 124.59C20.9782 125.58 19.0851 127.136 16.9526 128.289C15.8211 128.92 14.6134 129.421 13.4057 129.91C13.5472 129.268 13.6777 128.626 13.83 127.985C13.5472 128.692 13.2643 129.377 12.9596 130.074C12.6985 130.182 12.4483 130.28 12.1872 130.378C9.72828 131.325 6.95389 132.25 4.23389 131.074C4.75613 129.17 5.27837 127.266 5.74621 125.341C6.11613 123.818 6.48604 122.305 6.82332 120.782L6.83421 120.771C7.68285 117.094 8.49885 113.416 9.30397 109.728C9.96765 106.736 10.6422 103.733 11.3276 100.741C11.4582 100.164 11.5888 99.5769 11.7302 99.0002C12.7203 94.5286 13.8953 90.0351 15.0268 85.5417C17.0179 77.5775 18.8675 69.6351 19.2265 61.8777C21.2502 75.1404 21.5984 88.7513 20.0643 102.123C22.0118 93.9737 23.448 85.6831 25.6784 77.621C25.2976 87.1084 26.6358 96.6066 26.2224 106.105C26.2115 106.279 26.2006 106.464 26.1897 106.638C26.3094 106.083 26.4182 105.528 26.527 104.973C26.8425 111.229 26.7664 117.529 26.168 123.774Z" fill="#2B2D42"/>
<path d="M51.0832 179.729C49.9843 177.064 48.8746 174.377 47.8518 171.678C47.3731 170.416 46.9053 169.154 46.4701 167.892C46.4483 167.848 46.4374 167.794 46.4157 167.751C44.6314 166.652 42.5098 166.075 40.4643 165.488C38.8106 165.02 37.1242 164.497 35.6554 163.594C32.3696 161.593 30.3894 157.915 29.617 154.14C29.4646 153.411 29.3558 152.693 29.2688 151.964C30.1283 150.495 31.1837 149.135 32.4458 147.949C34.6435 145.838 37.7552 143.793 40.8886 143.869C40.9104 143.466 40.9322 143.086 40.9648 142.694C41.0192 143.086 41.0845 143.477 41.1389 143.869C41.1715 143.869 41.2042 143.88 41.2368 143.88C41.1389 143.107 41.0627 142.324 40.9974 141.552C40.8016 139.702 40.6275 137.852 40.5187 135.992H40.5078C40.3882 134.501 40.312 133.022 40.2358 131.531V131.488C40.225 131.368 40.225 131.259 40.2141 131.139C40.2032 130.867 40.1814 130.595 40.1706 130.323V130.302C40.0509 128.256 39.9421 126.2 39.8224 124.133C39.8224 124.089 39.8224 124.046 39.8115 124.002C39.3219 114.809 38.8976 105.604 39.4634 96.3887C40.5296 103.559 42.1616 110.631 43.7392 117.713C43.7392 117.735 43.7501 117.746 43.7501 117.768C44.7293 122.229 45.6976 126.7 46.4592 131.205C46.7421 133.087 47.0141 134.969 47.2643 136.851V136.873C48.7658 147.884 49.8646 158.938 50.561 170.035C50.7677 173.267 50.9309 176.487 51.0832 179.729Z" fill="#2B2D42"/>
<path d="M70.6997 215.873C70.852 215.884 70.9935 215.906 71.1458 215.938V216.112C70.9935 216.025 70.852 215.949 70.6997 215.873Z" fill="#2B2D42"/>
<path d="M71.1894 214.85C70.4496 214.078 69.3616 213.545 68.3497 213.099C67.0224 212.522 65.695 211.945 64.3567 211.358C64.15 210.139 63.9433 208.953 63.7584 207.767C63.4646 208.747 63.1491 209.715 62.79 210.672C57.5241 208.268 52.4758 205.537 48.9942 201.25C48.9833 199.781 48.9507 198.302 48.8963 196.822C48.8745 196.126 48.8419 195.44 48.8201 194.744C49.3315 193.841 49.9081 192.992 50.5609 192.187C50.9961 191.665 51.4531 191.154 51.9427 190.686C52.7369 189.924 53.6291 189.239 54.6191 188.662L54.63 188.651C54.7932 188.542 54.9673 188.455 55.1414 188.357C55.6963 188.085 56.2838 187.911 56.8604 187.824C57.4262 187.367 58.1551 187.063 58.8841 187.095C58.9276 187.095 58.9712 187.106 59.0256 187.117C59.3411 186.693 59.6457 186.279 59.9612 185.855C59.798 184.615 59.5152 182.972 59.1779 181.09C58.9494 179.904 58.6883 178.62 58.4054 177.303C58.1443 176.15 57.8614 174.953 57.5567 173.756C56.4687 169.285 55.1631 164.878 53.9555 160.439C53.9446 160.418 53.9446 160.407 53.9446 160.396C53.2265 157.774 52.5519 155.119 51.9644 152.464C49.6361 141.432 47.7974 130.291 46.8182 119.063C46.5136 115.494 46.2851 111.925 46.0892 108.346V108.302C45.5779 99 45.3494 89.6758 44.8271 80.3625C48.287 96.552 52.095 112.654 55.6092 128.844C55.8377 122.599 56.3164 116.343 56.9257 110.141C58.4163 124.862 61.528 139.833 63.7148 154.782C64.422 149.059 65.3142 143.358 66.3913 137.689C66.511 157.023 69.5465 169.731 70.8304 187.411C71.4832 196.964 71.5593 205.961 71.1894 214.85Z" fill="#2B2D42"/>
<path d="M103.449 251.059C102.012 250.2 100.315 249.71 98.6613 249.384C97.9324 249.253 97.2034 249.134 96.4744 249.025C96.1372 247.36 95.8325 245.685 95.5605 244.02C95.5061 245.641 95.4517 247.24 95.4082 248.862C94.0373 248.666 92.6773 248.416 91.3608 247.991C89.6309 247.415 87.8466 246.327 87.2917 244.618C87.5311 239.777 88.0207 234.935 88.6626 230.137C88.4994 228.81 88.3253 227.526 88.1404 226.209C83.5055 193.678 82.2978 160.592 85.4965 127.854C87.27 153.107 92.8405 175.335 95.0165 199.51C95.0492 199.923 95.0709 200.326 95.0927 200.739C95.4844 194.44 95.7781 188.129 95.6149 181.819C99.2924 198.052 100.805 214.677 102.197 231.247C102.73 237.84 103.144 244.444 103.449 251.059Z" fill="#2B2D42"/>
<path d="M117.549 266.704C117.234 266.389 116.885 266.117 116.515 265.856C116.113 263.701 115.754 261.471 115.427 259.186C115.525 261.221 115.591 263.266 115.667 265.29C113.948 264.245 111.978 263.419 110.586 261.972C110.564 261.95 110.553 261.939 110.531 261.917C108.04 244.879 109.226 228.603 110.978 209.715C111.587 216.265 112.283 222.814 112.969 229.353C112.882 227.221 112.827 225.121 112.794 223.076C112.414 212.805 112.142 202.512 112.446 192.231C112.718 182.286 113.578 172.386 113.98 162.43C115.417 173.213 116.233 184.06 117.081 194.896C117.788 203.785 118.702 212.663 118.713 221.585C118.659 236.632 117.212 251.646 117.549 266.704Z" fill="#2B2D42"/>
<path d="M154.487 223.369C148.96 227.536 142.432 230.485 137.895 235.849C136.187 237.219 134.979 239.08 134.076 241.104C133.282 224.066 132.748 207.038 132.4 189.989C131.878 178.946 131.922 167.903 131.65 156.86C131.095 143.967 131.312 131.074 131.704 118.181C131.998 105.419 131.552 92.5916 133.205 79.9055C133.358 97.4332 136.926 114.722 137.851 132.206C139.646 153.618 139.233 175.127 140.647 196.572C141.017 204.22 141.267 211.869 141.931 219.496C141.692 213.283 141.616 207.06 141.496 200.848C141.267 186.584 140.865 172.32 140.995 158.046C141.246 145.12 142.138 132.195 142.399 119.258C143.857 132.119 145.043 145.011 146.283 157.882C146.762 162.441 147.295 166.989 147.795 171.548C147.991 167.751 148.187 163.943 148.318 160.146C150.962 179.077 152.224 198.193 153.964 217.233C154.139 219.278 154.323 221.324 154.487 223.369Z" fill="#2B2D42"/>
<path d="M175.17 173.92C175.181 176.738 175.148 179.545 175.083 182.352C175.083 182.363 175.083 182.374 175.072 182.395C174.408 183.462 173.646 184.408 172.765 185.311C169.915 186.16 167.216 187.476 164.779 189.174C163.931 189.761 163.071 190.479 162.832 191.48C162.799 191.622 162.777 191.785 162.777 191.937C162.766 192.383 162.853 192.829 162.93 193.264C163.572 196.518 164.322 199.749 165.214 202.937V202.948C165.399 203.002 165.584 203.035 165.748 203.067C165.737 203.611 165.726 204.166 165.704 204.721V204.841C165.671 205.853 165.65 206.854 165.617 207.865C165.573 209.432 165.541 210.999 165.497 212.576C165.28 211.739 165.051 210.901 164.855 210.052V210.041C164.192 207.43 163.604 204.797 163.082 202.153C162.462 199.074 161.929 195.974 161.461 192.862C161.069 190.24 160.743 187.596 160.46 184.952C160.079 181.982 159.753 179.001 159.492 176.02V175.944C158.773 167.914 158.523 159.852 158.969 151.79C159.361 143.467 160.144 135.154 161.45 126.918C161.668 125.384 161.918 123.807 162.19 122.272C162.201 122.262 162.201 122.262 162.19 122.251C162.201 122.24 162.201 122.24 162.19 122.229C162.201 122.218 162.201 122.218 162.19 122.207C162.201 122.185 162.201 122.175 162.19 122.164C162.973 117.442 163.876 112.763 164.279 108.107C164.953 115.255 164.899 122.468 165.149 129.638C167.14 105.126 170.741 83.5723 174.713 57.7432C174.038 85.4872 174.354 113.253 174.343 140.997C174.473 151.997 175.3 162.942 175.17 173.92Z" fill="#2B2D42"/>
<path d="M194.405 150.332C192.719 151.627 191.098 153.009 189.662 154.575C187.529 156.893 185.832 159.569 184.146 162.246C183.373 163.486 182.59 164.716 181.883 165.999C180.544 156.447 179.761 146.84 179.598 137.178C179.086 125.134 180.022 113.112 180.892 101.111C181.915 85.0195 183.177 68.9389 185.408 52.967C185.669 71.4739 188.291 89.8285 189.411 108.281C189.955 103.309 190.576 98.3584 191.228 93.4189C191.772 108.836 192.632 124.242 193.84 139.615C194.003 143.184 194.199 146.764 194.405 150.332Z" fill="#2B2D42"/>
<path d="M208.408 133.729C208.691 134.741 208.974 135.753 208.952 136.797C208.876 139.43 206.852 141.595 204.687 143.086C203.936 143.608 203.153 144.087 202.391 144.555C201.195 140.594 200.139 136.601 199.204 132.576C198.725 130.498 198.268 128.398 197.854 126.298C196.723 120.673 195.82 114.994 195.113 109.293C193.698 99.196 193.872 88.9796 193.676 78.8177C193.502 72.1265 193.481 65.4353 193.589 58.755V58.7115C193.764 49.148 194.242 39.5518 194.982 30.0101V29.9774C194.982 29.8577 194.993 29.7598 195.004 29.6401C196.331 44.1867 200.335 66.3275 202.587 80.2974C202.555 74.4984 202.478 68.1771 202.152 61.0507C205.22 71.18 207.396 81.5377 209.126 91.9717C208.941 88.7729 208.724 85.5633 208.321 82.3973C211.357 90.0133 213.054 98.0971 214.827 106.094C212.238 108.237 209.648 110.37 207.059 112.502C206.341 113.101 205.612 113.699 205.144 114.504C205.133 114.526 205.122 114.537 205.111 114.559C204.644 115.396 204.524 116.375 204.502 117.333C204.469 119.748 205.133 122.098 205.786 124.427C206.548 127.081 207.287 129.747 208.038 132.413C208.158 132.837 208.288 133.272 208.408 133.729Z" fill="#2B2D42"/>
<path d="M30.3022 46.1451C30.4002 46.1016 30.509 46.0581 30.6069 46.0146C30.868 45.9058 30.7701 45.9493 30.3022 46.1451Z" fill="#FEFEFE"/>
<path d="M47.3623 48.1145C42.6404 44.72 35.9927 43.6537 30.5962 46.0256C30.5092 46.0582 30.3895 46.1126 30.2154 46.1888C27.0602 48.0601 23.3828 50.3014 20.641 53.9789C19.9664 54.9145 19.3898 56.144 19.0308 57.1123C19.8468 55.8393 21.0327 54.4685 22.1424 53.6742C25.9504 50.5952 28.2352 50.4864 31.88 50.2035C33.6535 49.9641 33.9255 49.8989 36.4061 49.7901C47.5908 48.7456 52.6282 61.7907 65.2816 65.9033C57.6983 61.8669 53.9012 53.4349 47.3623 48.1145Z" fill="#FEFEFE"/>
<path d="M31.9235 50.2036C31.9126 50.2036 31.9017 50.2036 31.8908 50.2036C31.7385 50.2254 31.5862 50.2471 31.4121 50.2689C31.5862 50.2471 31.7494 50.2254 31.9235 50.2036Z" fill="#FEFEFE"/>
<path d="M40.5296 131.412C38.7017 115.973 38.8976 100.415 37.951 84.9216C37.6028 80.2649 36.7107 75.6736 35.8294 71.0931C34.7523 65.6422 34.0451 60.0934 32.4457 54.7622C32.9462 59.7235 32.6198 64.7174 32.7395 69.7005C32.8156 75.8368 33.2835 86.88 33.512 90.4813C33.9145 95.4425 34.6217 101.786 35.5465 108.15C34.4585 103.243 33.327 98.3584 32.1628 93.4733C32.5654 103.494 32.8483 113.59 34.7196 123.469C35.4377 126.875 36.6889 132.402 36.95 134.589C37.4614 138.136 36.8956 140.692 33.9472 142.999C39.7462 140.997 40.6492 135.709 40.1052 130.204C40.2467 130.628 40.3881 131.031 40.5296 131.412Z" fill="#FEFEFE"/>
<path d="M47.3187 115.788C44.936 100.621 42.2051 85.5088 39.137 70.4727C40.8016 101.992 44.5334 133.849 54.6083 163.823C51.4531 147.275 49.4947 131.575 47.3187 115.788Z" fill="#FEFEFE"/>
<path d="M79.5778 155.598C79.3711 146.143 78.2722 136.743 77.0537 127.364C76.205 120.608 75.5958 113.808 74.2031 107.127C74.7471 113.917 74.5186 120.727 74.6274 127.527C74.9321 139.582 75.1279 151.648 75.389 163.703C75.9113 179.001 75.9222 194.385 78.2287 209.552C78.3375 210.357 78.4681 211.249 78.5769 211.978C78.5442 210.292 78.5116 208.616 78.479 206.93C78.0655 189.815 79.9042 172.712 79.5778 155.598Z" fill="#FEFEFE"/>
<path d="M131.171 141.954C130.866 131.978 129.963 122.022 129.082 112.089C128.647 130.65 127.124 149.157 126.329 167.697C126.221 189.043 126.786 215.938 128.951 234.478C129.419 212.163 130.845 189.892 130.703 167.566C130.975 159.036 131.443 150.495 131.171 141.954Z" fill="#FEFEFE"/>
<path d="M104.656 150.833C103.155 179.784 103.547 213.577 106.049 240.157C106.571 225.012 107.975 209.889 107.833 194.733C107.735 180.045 105.995 165.444 104.656 150.833Z" fill="#FEFEFE"/>
<path d="M161.276 85.781C158.697 105.724 157.685 125.798 157.054 145.882C156.227 159.406 157.772 175.378 158.762 187.585C159.589 178.631 159.655 169.644 160.297 160.679C160.83 151.899 161.852 143.162 162.081 134.371C162.549 118.182 161.689 101.981 161.276 85.781Z" fill="#FEFEFE"/>
<path d="M176.258 56.5576C175.072 73.4652 175.344 90.612 177.966 107.378C177.835 94.877 179.685 82.4411 180.229 69.9509C181.317 52.1839 181.894 34.3624 182.111 16.5627C179.881 29.8581 177.161 43.0882 176.258 56.5576Z" fill="#FEFEFE"/>
<path d="M193.796 18.9343C192.839 29.7055 192.469 40.5638 192.937 51.3567C193.415 59.7996 194.939 68.1446 196.048 76.5222C196.745 57.2972 196.201 38.0505 193.796 18.9343Z" fill="#FEFEFE"/>
<path d="M202.163 22.6549C201.064 19.5324 200.803 16.1704 199.519 13.1132C197.735 8.1954 192.523 5.84532 187.54 6.85716C181.937 8.18452 177.008 12.6236 175.115 18.0636C176.519 15.213 180.305 12.6562 182.133 11.8837C186.898 10.0233 189.379 9.92532 193.796 11.5029C194.014 11.6008 194.34 11.764 194.482 11.8728C194.59 11.9599 194.656 11.9925 194.699 12.0252C194.71 12.036 194.721 12.036 194.732 12.0578C195.526 12.7324 196.233 13.5048 196.897 14.3208C198.757 16.9864 200.379 19.9893 202.163 22.6549Z" fill="#FEFEFE"/>
<path d="M234.052 62.2696C229.058 64.0104 223.39 62.3893 219.266 59.3211C211.52 53.7288 207.886 44.3176 205.579 35.3743C206.352 36.7451 207.102 38.0616 207.853 39.3237C207.853 39.3346 207.864 39.3455 207.864 39.3455C208.843 40.9666 209.822 42.5007 210.834 43.9695C210.834 43.9803 210.845 43.9803 210.856 43.9912C211.476 44.9051 212.129 45.7973 212.803 46.6786C214.718 49.1919 216.807 51.5855 219.244 54.0335C220.963 55.7634 222.563 57.2322 224.282 58.4507C226.023 59.7019 227.883 60.692 230.103 61.421C230.886 61.6495 231.68 61.8127 232.279 61.8671C232.616 61.965 233.356 61.9432 233.954 61.9324C234.009 62.0303 234.041 62.15 234.052 62.2696Z" fill="#FEFEFE"/>
<path d="M227.252 93.7664C224.815 91.5795 222.693 89.4579 220.844 87.3581C219.734 86.0851 218.711 84.8122 217.787 83.5501C210.29 73.2794 208.636 62.6714 207.538 45.5571C210.715 54.3264 213.848 63.2154 217.079 70.32C215.85 66.5773 214.849 62.3232 213.804 57.3293C217.221 62.704 219.897 68.503 223.15 73.9757C223.499 74.5523 223.847 75.129 224.195 75.7056C224.336 75.9341 224.478 76.1843 224.619 76.4128C224.228 76.2931 223.792 76.2931 223.335 76.4454C223.248 76.4672 223.172 76.4998 223.107 76.5434C222.998 76.6304 222.889 76.7066 222.78 76.7827C222.324 77.1091 221.812 77.5226 221.812 78.0883C221.823 78.3821 221.964 78.6541 222.128 78.9043C223.629 81.4067 225.751 83.648 226.958 86.281C225.609 85.008 224.423 83.7242 223.368 82.4077C224.304 84.007 225.272 85.5846 226.251 87.1622C226.784 88.0435 227.328 88.9139 227.894 89.7843V89.7952C228.036 91.1335 227.774 92.4935 227.252 93.7664Z" fill="#2B2D42"/>
<path d="M226.632 73.6608C225.968 74.2592 225.294 74.8358 224.598 75.3798C222.008 71.4195 220.158 66.9043 219.364 62.2585C220.996 65.6966 223.39 68.7104 225.468 71.8656C225.86 72.464 226.24 73.0624 226.632 73.6608Z" fill="#2B2D42"/>
<path d="M153.878 76.6197C151.375 77.3595 149.449 77.2616 147.709 76.228C144.532 74.5416 143.291 70.1787 142.301 64.7931C141.888 62.5519 141.398 60.2127 140.702 58.0911C140.702 58.4066 140.702 58.733 140.702 59.0485C140.517 63.0741 140.495 67.0888 141.017 71.0927C141.181 72.9314 141.638 74.781 142.736 76.2933C143.661 77.5989 145.01 78.5781 146.447 79.2527C148.992 80.4712 152.104 80.0795 154.563 78.8066C157.337 77.044 159.165 74.0411 160.34 71.0274C158.752 73.5842 155.803 75.9016 153.878 76.6197Z" fill="#FEFEFE"/>
<path d="M141.235 15.605C138.689 10.9048 134.859 6.93363 130.833 3.46291C125.013 -1.42221 117.69 3.33235 112.272 6.52019C117.146 4.94259 122.01 4.32243 125.698 4.81203C129.299 5.69331 131.29 8.52211 135.142 11.5032C137.677 13.6139 139.853 16.1055 141.931 18.6514C142.127 18.9125 142.519 19.3695 142.627 19.7829C142.845 20.0658 142.334 21.1103 142.801 20.2507C143.128 18.6079 141.822 17.0738 141.235 15.605Z" fill="#FEFEFE"/>
<path d="M94.1136 26.3541C94.0701 26.55 94.0157 27.0831 94.0374 27.0287C94.3421 26.1365 94.8425 24.8636 95.1363 24.189C97.0838 20.2069 99.4013 17.574 102.187 14.3753C105.777 10.6434 109.204 7.59702 113.828 5.33398C104.08 7.79286 95.256 16.1161 94.1136 26.3541Z" fill="#FEFEFE"/>
<path d="M41.9985 138.995C42.0202 139.974 41.5959 140.844 40.9757 141.552C40.7473 141.824 40.4753 142.074 40.1924 142.302C38.2884 143.847 39.3002 143.118 36.3844 144.99C34.513 146.089 32.6961 147.285 30.9553 148.58C30.7921 148.711 30.618 148.841 30.4548 148.983C30.0087 149.363 29.5735 149.733 29.1274 150.114C29.0077 147.634 29.1818 145.131 29.3559 142.651C29.7041 137.657 30.0522 132.663 30.4004 127.669C30.4657 126.722 30.5309 125.754 30.3133 124.992C30.4765 124.96 30.6506 124.949 30.8138 124.949C32.4785 124.873 33.61 126.265 34.1866 127.68C35.0461 129.148 35.7642 130.411 36.4388 131.488V131.499C36.4388 131.499 36.4388 131.509 36.4497 131.509C37.3745 133.011 38.2122 134.164 39.2132 135.154C39.2785 135.209 39.322 135.252 39.3655 135.274C39.681 135.491 39.8333 135.589 39.7137 135.546C39.8116 135.589 39.9095 135.633 40.0074 135.687C40.0618 135.709 40.1162 135.731 40.1597 135.764C40.2794 135.829 40.3773 135.905 40.4861 135.981H40.497C41.4218 136.699 42.0311 137.82 41.9985 138.995Z" fill="#F60600"/>
<path d="M59.7111 179.077C59.4064 178.38 58.9603 177.815 58.4272 177.303C58.2749 177.151 58.1226 177.02 57.9594 176.879C56.3056 174.953 52.9437 171.831 50.5392 170.046C50.4413 169.97 50.3543 169.916 50.2563 169.85C50.2999 169.883 50.3325 169.916 50.3652 169.948C50.0496 169.72 49.2119 169.1 48.6896 168.708C48.5373 168.578 48.385 168.469 48.2762 168.414C48.2435 168.403 48.2109 168.382 48.1892 168.382C48.1239 168.349 48.0803 168.327 48.0368 168.306H48.026C47.928 168.262 47.8519 168.218 47.7975 168.197C47.4167 167.99 47.025 167.903 46.6442 167.892C46.6333 167.881 46.6333 167.881 46.6224 167.892C46.6116 167.881 46.6115 167.881 46.6007 167.881C46.5571 167.87 46.5027 167.87 46.4592 167.881C46.9053 169.154 47.3623 170.416 47.841 171.667C47.8628 171.939 47.8736 172.222 47.8845 172.494C48.1674 179.088 48.4503 185.681 48.7332 192.274C48.7658 193.09 48.8093 193.917 48.842 194.733C48.8637 195.429 48.8964 196.115 48.9181 196.811C49.1031 196.561 49.2663 196.289 49.3968 195.995C50.1367 194.885 50.5175 193.536 50.5827 192.187C50.5936 192.1 50.5936 192.013 50.5936 191.926C50.8112 191.719 51.0397 191.502 51.2573 191.338C51.4205 191.143 51.6707 190.925 51.9754 190.686C52.6499 190.153 53.6291 189.489 54.6519 188.662L54.6628 188.651C56.0227 187.563 57.4807 186.17 58.4816 184.343C58.993 183.374 59.1671 182.297 59.0365 181.242C59.1018 181.187 59.1562 181.133 59.1997 181.079C59.6893 180.545 59.9287 179.773 59.7111 179.077Z" fill="#F60600"/>
<path d="M76.836 225.709C75.9656 226.274 75.0952 226.851 74.2357 227.46C73.8875 227.928 73.5067 228.352 73.0824 228.755C73.2891 225.045 73.0933 221.324 72.3317 217.603C72.4296 217.56 72.5167 217.527 72.6255 217.494C72.484 217.32 72.3426 217.146 72.1903 216.994C71.8639 216.646 71.5157 216.352 71.1458 216.123C70.9935 216.025 70.852 215.96 70.6997 215.884C70.852 215.895 70.9935 215.917 71.1458 215.949C71.4504 216.025 71.7442 216.123 72.0271 216.276C72.6363 216.569 73.1803 216.994 73.7026 217.429C74.8341 217.57 75.4978 218.473 75.846 219.583C76.8143 220.671 77.7064 221.803 78.3592 223.065C78.7835 224.555 77.4888 225.23 76.836 225.709Z" fill="#F60600"/>
<path d="M165.214 202.937C164.627 202.784 163.952 202.512 163.093 202.175C163.006 202.131 162.919 202.099 162.821 202.055C161.439 201.218 159.622 200.837 158.665 199.444C157.664 198.138 158.958 195.092 161.004 193.253C161.156 193.123 161.319 193.003 161.472 192.883C161.907 192.546 162.342 192.242 162.788 191.948C162.777 192.394 162.864 192.84 162.94 193.275C163.571 196.517 164.333 199.749 165.214 202.937Z" fill="#F60600"/>
<path d="M205.786 124.405C206.547 127.06 207.287 129.725 208.038 132.391C207.875 132.435 207.69 132.445 207.516 132.445C205.242 132.532 202.99 132.326 200.727 132.358C200.291 132.369 200.161 132.456 199.247 132.576H199.214C199.171 132.587 199.105 132.598 198.997 132.609H198.986C198.964 132.609 198.953 132.609 198.931 132.619H198.91C198.877 132.619 198.855 132.63 198.823 132.63C198.659 132.641 198.485 132.652 198.322 132.63C197.593 132.619 196.886 132.239 196.516 131.597C195.994 130.726 196.255 129.649 196.929 129.007C197.082 128.507 197.299 128.006 197.43 127.539C197.56 127.114 197.702 126.712 197.865 126.298C198.333 125.036 198.899 123.807 199.53 122.621C201.053 119.912 202.783 117.268 204.73 114.842C204.861 114.711 205.002 114.591 205.155 114.493C205.144 114.515 205.133 114.526 205.122 114.548C204.654 115.386 204.535 116.365 204.513 117.322C204.469 119.727 205.133 122.077 205.786 124.405Z" fill="#F60600"/>
<path d="M208.865 130.976C208.941 131.292 208.897 131.64 208.713 131.912C208.636 131.139 208.549 130.356 208.473 129.583C208.625 130.03 208.789 130.465 208.952 130.911C208.919 130.933 208.897 130.954 208.865 130.976Z" fill="#F60600"/>
<path d="M226.969 86.2702C227.133 86.4225 227.318 86.5857 227.492 86.7489C227.405 86.8033 227.318 86.8469 227.22 86.8795C227.078 86.9557 226.904 87.0209 226.73 87.0536C226.578 87.0862 226.415 87.108 226.251 87.1297C224.739 87.3364 222.791 87.2712 221.344 86.6401C221.17 86.9013 220.996 87.1406 220.844 87.3473C220.692 87.5649 220.55 87.7499 220.441 87.8696C219.615 89.4472 217.101 89.4363 216.47 87.7173C215.883 86.4987 216.84 85.2584 217.406 84.2139C217.526 83.9854 217.645 83.7569 217.787 83.5393C218.624 82.0379 219.604 80.6126 220.572 79.1765C221.301 78.1973 221.954 76.9896 223.107 76.5217C222.998 76.6088 222.889 76.6849 222.781 76.7611C222.324 77.0875 221.812 77.5009 221.812 78.0667C221.823 78.3604 221.965 78.6324 222.128 78.8827C223.629 81.3851 225.751 83.6373 226.969 86.2702C226.969 86.2593 226.959 86.2593 226.969 86.2702Z" fill="#F60600"/>
<path d="M110.357 34.438C109.661 33.6982 108.301 34.253 108.334 35.2758C108.018 37.8326 108.171 36.9839 107.855 38.877C107.376 40.8681 106.702 41.695 105.113 43.2182C103.753 44.5129 100.816 45.6444 98.4656 44.2191C99.6297 45.5247 101.577 45.862 103.253 45.6988C105.712 45.4921 107.844 43.871 109.248 41.9234C110.194 40.509 110.542 38.8009 110.64 37.1254C110.608 36.255 110.988 35.1561 110.357 34.438Z" fill="#2B2D42"/>
<path d="M121.509 34.9385C121.542 35.0146 121.564 35.069 121.596 35.1452C121.607 35.1778 121.629 35.2105 121.64 35.2322C121.596 35.1343 121.553 35.0364 121.509 34.9385Z" fill="#2B2D42"/>
<path d="M125.328 40.2484C125.143 40.1396 124.534 39.7914 124.393 39.6391C124.458 39.6935 124.567 39.7805 124.567 39.7697C123.37 38.7578 123.337 38.5729 122.489 37.0714C121.868 35.8746 121.966 36.0378 121.596 35.1348C121.466 34.8301 121.27 34.3297 121.488 34.8628C121.303 34.3188 121.009 33.753 120.389 33.6116C116.461 33.2525 120.236 39.8241 121.585 40.9991C125.209 44.4807 131.541 42.9793 132.596 37.8657C130.67 41.2167 127.939 41.0861 125.328 40.2484Z" fill="#2B2D42"/>
<path d="M143.15 14.0819C141.616 12.4608 139.995 10.9376 138.384 9.40349C136.687 7.77149 134.99 6.15036 133.282 4.52924C131.932 3.2454 130.529 1.91804 128.875 1.03676C125.089 -0.986915 121.129 0.340434 117.375 1.72219C111.054 4.06139 104.645 6.98812 99.5862 11.623C97.1164 13.8969 95.071 16.6822 93.7219 19.7939C92.0355 23.6672 91.3936 27.8124 90.9148 32.0012C89.7942 41.902 88.3907 51.8246 85.7142 61.4316C85.5728 61.943 86.3344 62.1388 86.4976 61.6384C89.0326 54.0115 91.2848 46.3302 92.6774 38.3987C93.9177 31.3158 94.1897 23.6889 98.2915 17.5744C101.74 12.439 106.669 8.85949 112.174 6.32445C114.981 5.02973 117.941 4.03965 120.933 3.29981C122.739 2.85373 124.61 2.54909 126.416 3.14749C127.961 3.65885 129.256 4.79036 130.442 5.88924C133.771 9.00092 136.937 12.3302 140.364 15.344C141.3 16.1708 143.705 17.7484 142.062 19.0432C140.582 20.2073 138.341 19.0758 136.785 18.6406C135.49 18.2816 134.924 20.0441 135.936 20.7622C137.634 21.959 139.712 22.8512 141.811 22.3398C143.443 21.9372 144.978 20.6643 145.25 18.9126C145.576 16.9324 144.423 15.4201 143.15 14.0819Z" fill="#16272B"/>
<path d="M136.785 17.4005C136.622 16.6171 136.306 15.8555 135.969 15.1483C135.338 13.7883 134.435 12.5915 133.467 11.46C133.086 11.0139 132.291 11.6123 132.64 12.1019C133.423 13.2008 133.891 14.4955 134.163 15.8229C134.293 16.4648 134.337 16.987 134.402 17.6507C134.435 17.9988 134.457 18.3579 134.478 18.7169C134.5 19.1304 134.467 19.5656 134.587 19.9681C134.935 21.1649 136.589 21.1649 136.937 19.9681C137.166 19.1848 136.948 18.1729 136.785 17.4005Z" fill="#16272B"/>
<path d="M146.74 75.1408C143.15 65.8384 142.867 55.6982 142.258 45.8627C141.735 37.4089 140.832 28.3568 136.644 20.8496C134.424 16.8784 131.421 13.56 127.733 10.9488C127.026 10.4483 126.416 11.6124 127.08 12.1129C133.38 16.911 136.263 25.4083 137.808 32.9699C139.636 41.9785 139.287 51.2374 140.375 60.3331C141.028 65.8166 142.247 71.0281 144.782 75.9459C145.337 77.0121 147.186 76.2941 146.74 75.1408Z" fill="#16272B"/>
<path d="M110.869 26.2132C110.51 24.3309 106.985 19.8484 105.407 22.9818C104.21 25.3754 104.711 28.0736 103.906 30.5434C103.47 31.8816 102.339 32.6215 101.316 33.568C100.239 34.5581 99.3578 35.744 98.8355 37.0714C97.8346 39.5847 98.7267 42.7072 101.479 43.8714C104.33 45.0791 107.235 43.9258 108.878 41.5757C109.813 40.2266 110.379 38.6272 110.716 36.9626C110.945 36.114 111.13 35.2653 111.239 34.4602C111.62 31.7728 111.38 28.8896 110.869 26.2132Z" fill="#16272B"/>
<path d="M128.124 32.8605C127.918 32.6647 127.711 32.4906 127.493 32.3274C126.264 31.37 125.328 30.0644 124.937 28.5412C124.708 27.6599 124.49 26.7677 124.24 25.8973C123.664 23.9063 121.618 18.7056 118.789 20.6423C117.549 21.4909 117.027 23.3623 116.755 24.7767C116.417 26.5066 116.374 28.3127 116.57 30.0644C116.961 33.5568 118.256 37.1255 120.65 39.7258C123.272 42.5764 128.005 41.0749 129.386 37.626C130.105 35.8743 129.452 34.1009 128.124 32.8605Z" fill="#16272B"/>
<path d="M66.0214 65.2287C59.5042 63.0527 55.9138 56.0895 51.7577 51.0303C49.647 48.4626 47.3078 45.9929 44.294 44.5458C40.301 42.6201 35.9382 42.8268 31.8582 44.3935C29.4537 45.3183 27.2124 46.613 25.0255 47.973C23.0236 49.2134 21.0108 50.5625 19.4658 52.3903C16.3542 56.0895 15.7993 60.8658 15.3206 65.5334C14.2543 75.8367 13.1881 86.1618 11.2841 96.3455C10.2178 102.036 8.8796 107.672 7.1932 113.21C5.46328 118.856 3.21113 124.22 0.904565 129.638C0.208245 131.27 2.43865 132.685 3.31993 131.042C5.72441 126.581 7.50872 121.696 9.0972 116.887C10.6966 112.045 12.0022 107.117 13.0902 102.123C15.2444 92.1894 16.5282 82.0927 17.1484 71.9417C17.3007 69.3958 17.3878 66.839 17.5292 64.293C17.6489 62.03 17.9426 59.7234 18.726 57.591C20.4233 52.9887 25.1452 50.7148 29.2143 48.6802C33.2182 46.6892 37.6898 45.1225 42.0854 46.711C44.8598 47.7119 47.2316 49.877 49.2226 52.0095C54.1513 57.2972 58.4163 64.2278 65.7494 66.197C66.3913 66.3602 66.6198 65.4246 66.0214 65.2287Z" fill="#16272B"/>
<path d="M43.6411 137.134C42.5531 135.981 40.9755 135.394 39.8222 134.262C38.7342 133.196 37.8964 131.966 37.2328 130.574C35.9816 127.963 35.122 124.862 32.5108 123.273C29.6385 121.522 25.7326 122.86 22.9038 124.013C19.7921 125.275 16.7784 126.744 13.6558 127.995C10.2286 129.377 6.59468 130.53 2.86284 130.128C2.0686 130.041 1.39404 130.878 1.39404 131.629C1.39404 132.51 2.0686 133.054 2.86284 133.131C9.77164 133.86 15.3313 129.747 21.2283 126.809C23.9592 125.449 27.9521 123.284 30.8027 125.319C33.0222 126.907 33.7076 130.041 34.8718 132.391C35.6334 133.958 36.6888 135.394 37.9617 136.569C39.2456 137.755 40.9864 139.191 42.8033 139.18C43.8369 139.18 44.3483 137.885 43.6411 137.134Z" fill="#16272B"/>
<path d="M42.3139 122.088C41.7808 116.963 41.2259 111.839 40.6492 106.715C39.5068 96.5853 38.223 86.4669 36.9609 76.3485C36.2428 70.6038 35.4812 64.8592 34.8284 59.1037C34.7849 58.7229 34.1865 58.712 34.23 59.1037C35.1331 69.3417 35.8512 79.5907 36.6454 89.8397C37.4396 100.099 38.3753 110.338 39.3763 120.576C39.942 126.32 40.3555 132.098 41.1062 137.81C41.3238 139.431 44.022 139.083 43.9024 137.44C43.5216 132.326 42.847 127.202 42.3139 122.088Z" fill="#16272B"/>
<path d="M43.3149 136.993C42.8036 135.742 40.8778 136.613 41.2042 137.875C41.6829 139.735 40.0292 141.041 38.6148 141.813C36.961 142.716 35.3399 143.521 33.8929 144.762C32.6852 145.795 31.6516 147.047 30.7812 148.396C30.9444 145.001 31.0097 141.607 31.0532 138.212C31.0858 135.644 31.1076 133.077 31.1076 130.509C31.1076 129.192 31.1076 127.876 31.0858 126.559C31.0749 125.287 31.3252 123.774 30.3895 122.784C30.0087 122.371 29.2689 122.349 28.8881 122.784C28.0068 123.785 28.2461 125.123 28.2679 126.375C28.2788 127.691 28.3005 129.007 28.3114 130.324C28.3441 132.957 28.3549 135.59 28.3549 138.223C28.3549 143.478 28.2461 148.744 28.3985 154.01C28.4311 155.141 30.1175 155.446 30.3786 154.271C31.1837 150.637 34.1105 147.46 37.1786 145.621C38.8868 144.598 40.8561 143.902 42.2161 142.357C43.5325 140.845 44.0765 138.876 43.3149 136.993Z" fill="#16272B"/>
<path d="M61.5822 177.543C60.1896 175.16 57.7851 173.158 55.6418 171.494C53.444 169.785 50.9742 168.328 48.5154 167.055C45.9694 165.738 43.3582 164.661 40.7253 163.562C38.2011 162.507 35.5355 161.538 33.5771 159.515C31.869 157.752 30.1499 154.608 30.9224 152.073C31.2923 150.865 29.508 150.43 29.0946 151.583C28.6594 152.78 28.3112 154.118 28.42 155.402C28.5397 156.773 29.051 158.133 29.7582 159.297C31.2706 161.778 33.5336 163.562 36.0904 164.813C38.8757 166.173 41.8786 166.793 44.7944 167.794C47.5253 168.73 50.1365 170.188 52.3995 172.016C53.7051 173.071 54.9563 174.203 56.164 175.378C57.3717 176.553 58.3944 177.935 59.6347 179.066C60.6357 179.991 62.333 178.816 61.5822 177.543Z" fill="#16272B"/>
<path d="M62.0066 177.891C61.7237 176.335 61.1253 174.845 60.6248 173.343C60.1026 171.788 59.613 170.21 59.156 168.632C58.2747 165.575 57.5131 162.485 56.8277 159.373C55.435 153.063 54.3035 146.698 53.1611 140.323C50.7566 126.853 48.276 113.405 45.7301 99.9686C44.3048 92.4288 42.5858 84.9433 41.2258 77.3926C41.1931 77.2294 40.9538 77.2947 40.9755 77.4579C42.0744 84.2688 42.8686 91.1232 43.8587 97.9558C44.8379 104.712 45.8933 111.458 46.9595 118.204C48.0366 125.004 49.1246 131.804 50.2018 138.604C51.2245 145.034 52.2146 151.496 53.5202 157.872C54.26 161.452 55.0869 165.02 56.0661 168.534C56.5448 170.232 57.0453 171.929 57.6002 173.604C58.1768 175.378 58.7426 177.26 59.7435 178.827C60.516 180.045 62.2568 179.295 62.0066 177.891Z" fill="#16272B"/>
<path d="M61.9088 177.913C61.7021 176.51 59.4173 176.814 59.4935 178.229C59.7328 182.722 55.7616 185.867 53.0416 188.793C51.7578 190.175 50.7351 191.687 49.9517 193.396C49.9299 190.175 49.832 186.944 49.7559 183.745C49.6797 180.884 49.5927 178.033 49.4621 175.182C49.3642 173.072 49.3968 170.852 49.1357 168.72C48.8855 168.687 48.6352 168.654 48.385 168.622C48.3741 168.622 48.3632 168.622 48.3523 168.611C48.3415 168.611 48.3197 168.6 48.3088 168.6C48.2435 168.589 48.1783 168.567 48.113 168.556C48.0477 168.535 47.9824 168.513 47.9171 168.491C47.5799 168.372 47.2535 168.219 46.9271 168.067C46.8074 168.012 46.6768 167.947 46.568 167.86C46.5136 167.817 46.4701 167.773 46.4157 167.74C46.2743 170.254 46.6333 172.854 46.7747 175.356C46.9379 178.207 47.0903 181.068 47.2099 183.919C47.4602 189.62 47.4167 195.365 47.7757 201.066C47.841 202.143 49.5927 202.546 49.7559 201.327C50.0605 198.966 50.5175 196.496 51.8013 194.462C52.9546 192.634 54.7607 191.165 56.2839 189.675C57.8941 188.108 59.4608 186.454 60.6032 184.496C61.8218 182.428 62.2679 180.296 61.9088 177.913Z" fill="#16272B"/>
<path d="M210.453 63.9557C207.646 55.9589 206.885 47.6357 206.145 39.2255C205.427 30.9349 204.524 22.4485 201.477 14.6584C200.128 11.2204 198.366 6.5746 194.688 5.1602C192.588 4.35508 190.282 5.02964 188.182 5.4866C186.18 5.9218 184.178 6.4114 182.252 7.12948C178.412 8.56564 175.159 10.8831 172.939 14.4408C170.872 17.7375 169.838 21.5999 169.066 25.397C167.978 30.7173 167.075 36.0812 166.139 41.4232C165.138 47.0917 164.333 52.8037 163.299 58.4613C163.212 58.9074 163.876 59.1032 163.985 58.6463C165.073 53.9135 166.389 49.2242 167.51 44.5023C168.609 39.8892 169.653 35.276 170.73 30.6629C172.395 23.5474 173.614 15.0066 180.544 11.1768C182.231 10.2412 184.037 9.63189 185.875 9.13141C187.79 8.62005 189.803 8.06517 191.772 7.83669C193.72 7.60821 195.004 8.52213 196.048 10.1324C197.082 11.71 197.887 13.4725 198.605 15.2133C201.608 22.5247 202.348 30.5106 203.218 38.3007C204.208 47.1896 205.089 56.4376 208.68 64.7064C209.104 65.7183 210.823 65.0111 210.453 63.9557Z" fill="#16272B"/>
<path d="M234.661 60.6596C234.52 60.3006 234.074 60.1156 233.726 60.1048C230.755 59.9851 227.948 58.5054 225.413 57.0366C222.802 55.5243 220.398 53.74 218.243 51.6075C213.522 46.9291 210.214 41.0539 207.461 35.0046C206.635 33.1877 205.84 31.3598 205.09 29.5211C204.306 27.628 203.447 25.7784 202.739 23.8635C202.467 23.1128 201.282 23.4065 201.543 24.179C202.75 27.6932 203.708 31.2728 205.035 34.7435C206.352 38.1924 207.875 41.5652 209.724 44.7531C213.021 50.4651 217.493 55.6657 223.172 58.9841C226.175 60.7358 229.439 61.443 232.779 62.1176C233.073 64.4568 231.8 66.7633 230.233 68.4171C228.242 70.506 225.729 72.0075 223.607 73.9441C219.451 77.7412 216.807 82.9201 214.294 87.914C213.63 89.2196 215.6 90.362 216.242 89.0456C217.58 86.3147 218.918 83.5729 220.604 81.0488C222.28 78.5246 224.304 76.4465 226.752 74.7057C229.221 72.954 231.778 71.322 233.541 68.7653C235.195 66.3717 235.76 63.3796 234.661 60.6596Z" fill="#16272B"/>
<path d="M228.797 86.8587C227.796 85.1287 226.795 83.3988 225.783 81.6689C225.315 80.8529 224.837 80.0369 224.369 79.2318C223.868 78.3614 223.411 77.2625 222.617 76.6315C221.714 75.9243 220.517 76.5553 220.713 77.7521C220.866 78.7204 221.529 79.5691 222.008 80.396C222.508 81.2555 223.02 82.115 223.531 82.9854C224.173 84.0734 224.815 85.1723 225.457 86.2603C223.792 86.3691 222.128 86.6302 220.517 87.0654C219.506 87.3483 218.461 87.9031 217.417 88.0011C216.329 88.1099 216.252 86.7063 216.024 85.8903C215.284 83.3444 214.468 80.8311 213.609 78.3179C212.738 75.7502 211.694 73.2369 210.878 70.6475C210.736 70.1905 210.062 70.3646 210.171 70.8324C210.845 73.7591 211.291 76.7511 211.911 79.6996C212.499 82.474 213.01 85.3899 213.924 88.0772C214.327 89.2632 215.077 90.2315 216.318 90.547C217.427 90.8299 218.559 90.46 219.593 90.1009C222.226 89.1761 224.902 88.7409 227.687 88.8171C228.634 88.8388 229.276 87.6855 228.797 86.8587Z" fill="#16272B"/>
<path d="M228.96 87.761C228.743 86.6512 226.904 86.8688 227.002 88.0221C227.339 91.7322 224.935 95.2899 222.411 97.6944C219.745 100.24 216.688 102.362 213.881 104.745C208.549 109.26 203.458 114.221 199.53 120.085C197.332 123.371 195.548 126.951 194.492 130.78C194.057 132.347 196.484 133.011 196.897 131.422C198.703 124.405 202.718 118.453 207.788 113.449C210.366 110.903 213.163 108.585 216.046 106.388C219.038 104.103 222.291 102.046 224.935 99.3373C226.425 97.8032 227.72 96.0624 228.503 94.0496C229.308 91.9933 229.385 89.9043 228.96 87.761Z" fill="#16272B"/>
<path d="M196.755 125.83C196.701 124.263 196.658 122.697 196.592 121.13C196.451 117.931 196.32 114.732 196.168 111.545C195.852 105.158 195.548 98.7606 195.232 92.3741C194.601 79.5248 193.84 66.6755 193.089 53.8371C192.675 46.6237 191.979 39.432 191.609 32.2185C191.587 31.8813 191.087 31.8813 191.098 32.2185C191.326 38.6704 191.239 45.1331 191.424 51.5849C191.609 57.9824 191.74 64.3689 191.946 70.7555C192.371 83.6048 192.839 96.4432 193.328 109.292C193.47 112.926 193.622 116.56 193.785 120.194C193.861 121.946 193.959 123.708 194.046 125.46C194.144 127.321 194.155 129.203 194.503 131.02C194.775 132.434 196.658 131.966 196.788 130.715C196.951 129.094 196.81 127.451 196.755 125.83Z" fill="#16272B"/>
<path d="M210.562 134.839C208.745 132.032 208.005 128.365 207.244 125.134C206.852 123.491 206.526 121.837 206.265 120.173C206.134 119.357 206.025 118.552 205.927 117.725C205.829 116.822 205.829 115.864 205.59 114.994C205.198 113.59 203.392 113.982 203.251 115.298C203.153 116.191 203.36 117.159 203.468 118.051C203.566 118.856 203.686 119.661 203.817 120.466C204.099 122.24 204.469 124.013 204.894 125.754C205.318 127.451 205.829 129.105 206.406 130.748C206.537 131.118 206.667 131.488 206.809 131.858C205.721 131.444 204.556 131.183 203.501 131.064C202.163 130.911 200.803 130.922 199.465 131.053C198.681 131.129 196.984 131.499 196.549 130.639C196.027 129.606 194.34 130.291 194.688 131.412C195.646 134.415 198.91 133.881 201.336 133.892C202.642 133.892 203.947 134.023 205.209 134.404C206.537 134.806 207.429 135.557 208.451 136.46C209.529 137.407 211.454 136.199 210.562 134.839Z" fill="#16272B"/>
<path d="M209.159 140.007C208.897 140.42 208.593 140.812 208.266 141.204L208.245 141.226C206.776 142.934 205.002 144.381 203.218 145.73C200.063 148.123 196.538 149.973 193.415 152.41C193.252 152.541 193.089 152.671 192.926 152.824C192.458 153.194 192.001 153.596 191.555 154.01C190.935 154.564 190.325 155.163 189.76 155.783C189.063 156.523 188.421 157.284 187.812 158.079C187.116 158.949 186.474 159.863 185.886 160.81C185.843 160.864 185.799 160.929 185.767 160.973C185.092 162.028 184.483 163.138 183.917 164.248C183.688 164.705 183.471 165.151 183.253 165.608C182.47 167.272 181.774 168.97 181.143 170.7C181.045 170.961 180.958 171.233 180.86 171.494C180.229 173.311 179.663 175.139 179.097 176.977C178.499 178.881 178.053 180.916 177.204 182.722C177.063 183.016 176.867 183.19 176.66 183.277C176.323 183.418 175.942 183.32 175.637 183.081C175.387 182.907 175.18 182.624 175.115 182.308V182.298C175.072 182.134 175.061 181.993 175.082 181.83C175.148 181.373 175.235 180.927 175.322 180.47C175.409 180.089 175.507 179.719 175.616 179.338C175.985 178.054 176.432 176.792 176.834 175.574C177.422 173.757 178.064 171.962 178.771 170.199C178.847 169.992 178.923 169.786 179.01 169.579C179.521 168.295 180.076 167.011 180.664 165.76C181.338 164.291 182.056 162.855 182.851 161.452C183.09 161.027 183.329 160.603 183.591 160.189C184.211 159.156 184.864 158.166 185.571 157.197C186.18 156.349 186.833 155.511 187.529 154.706C188.117 154.01 188.737 153.324 189.4 152.693C189.988 152.106 190.597 151.54 191.239 151.007C191.272 150.974 191.304 150.952 191.337 150.92C191.707 150.615 192.077 150.31 192.447 150.017C195.004 147.982 197.691 146.143 200.335 144.218C201.184 143.597 202.032 142.966 202.859 142.303C202.979 142.216 203.088 142.129 203.207 142.031C203.74 141.585 204.273 141.139 204.774 140.671C205.492 139.996 206.254 139.3 206.863 138.506C206.993 138.353 207.168 138.092 207.342 137.809C207.635 137.341 207.886 136.765 207.733 136.395C207.635 136.177 207.614 135.949 207.657 135.742C207.712 135.296 208.027 134.937 208.397 134.774C208.843 134.589 209.365 134.687 209.67 135.274C209.898 135.72 210.04 136.166 210.094 136.612C210.236 137.831 209.822 138.963 209.159 140.007Z" fill="#16272B"/>
<path d="M179.021 152.018C178.803 141.867 178.074 131.749 177.541 121.609C176.997 111.273 176.801 100.948 177.03 90.5897C177.258 80.319 177.617 70.0374 178.074 59.7776C178.586 48.1469 179.206 36.5161 180.055 24.9072C180.087 24.4393 179.391 24.4393 179.347 24.8963C177.313 45.416 175.528 65.9792 174.549 86.5859C174.06 96.824 173.951 107.04 174.419 117.289C174.887 127.429 175.648 137.559 176.083 147.699C176.334 153.378 176.453 159.068 176.344 164.759C176.236 170.34 176.17 176.128 174.995 181.612C174.734 182.819 176.508 183.374 176.834 182.145C179.369 172.375 179.239 162.06 179.021 152.018Z" fill="#16272B"/>
<path d="M168.195 32.3166C167.205 35.2868 165.943 38.1374 164.746 41.0097C163.55 43.8929 162.244 46.7435 160.84 49.5396C159.557 52.1182 158.273 54.8164 156.434 57.0468C155.585 58.0804 154.552 59.2337 153.388 59.8865C152.06 60.6263 150.635 60.659 149.199 60.2238C147.817 59.8103 146.392 59.0596 145.282 58.113C144.183 57.1665 143.53 56.1982 143.041 54.8164C142.649 53.7393 140.995 53.8046 140.995 55.0884C140.995 58.0586 143.813 60.1041 146.24 61.1159C147.654 61.7035 149.21 62.1386 150.755 62.0734C152.234 62.0081 153.671 61.562 155.031 60.9854C158.066 59.6798 159.84 56.666 161.352 53.8372C163.006 50.7364 164.474 47.5377 165.726 44.241C167.184 40.4222 168.163 36.5271 169.109 32.5559C169.251 31.9467 168.391 31.729 168.195 32.3166Z" fill="#16272B"/>
<path d="M162.603 62.8132C161.657 65.4353 160.242 67.9268 158.773 70.2877C157.598 72.17 156.162 74.0957 154.291 75.3034C152.724 76.3153 150.679 76.8919 148.873 76.1521C146.697 75.249 146.707 72.8772 145.532 71.1473C145.163 70.6033 144.205 70.5815 144.053 71.3431C143.541 73.9325 145.021 76.881 147.328 78.0778C149.536 79.242 152.224 79.1332 154.454 78.0778C156.989 76.881 158.654 74.3895 159.84 71.9089C161.221 69.0148 162.07 65.9684 162.973 62.9002C163.038 62.6609 162.679 62.5847 162.603 62.8132Z" fill="#16272B"/>
<path d="M89.914 43.1858C88.4778 48.2777 87.5966 53.4892 85.7361 58.4614C84.8548 60.8006 83.7668 63.303 82.1674 65.2396C80.5354 67.2198 78.0766 68.014 75.6394 68.3295C75.2042 68.3839 75.3022 69.1346 75.7374 69.102C78.4138 68.917 80.938 68.917 83.1031 67.0348C85.105 65.294 86.378 62.6284 87.379 60.1913C89.5441 54.8818 90.5124 49.0175 90.7518 43.2838C90.7626 42.7942 90.0446 42.718 89.914 43.1858Z" fill="#16272B"/>
<path d="M90.1533 45.1121C90.0989 44.753 89.5766 44.7313 89.4243 45.0142C88.8041 46.1457 88.7389 47.5601 88.3472 48.7895C87.9555 50.0407 87.3136 51.3137 86.6064 52.4017C85.1158 54.6756 83.103 56.362 80.7856 57.7003C76.0419 60.4529 70.4605 61.3559 65.1075 60.3332C62.1046 59.7675 58.8733 58.81 56.2838 57.1345C55.7833 56.8081 55.3699 57.6023 55.8377 57.9505C57.0454 58.8535 58.2422 59.7892 59.5696 60.5073C60.9078 61.2254 62.3657 61.7585 63.8237 62.161C66.7069 62.9662 69.775 63.0858 72.7235 62.705C78.2614 61.9652 84.3977 59.2343 87.7705 54.5124C88.7171 53.185 89.2176 51.5095 89.5222 49.9102C89.7942 48.387 90.3817 46.6788 90.1533 45.1121Z" fill="#16272B"/>
<path d="M177.4 179.567C177.4 179.654 177.4 179.73 177.389 179.817V179.839C177.356 180.85 177.28 181.884 176.889 182.809C176.812 182.961 176.747 183.135 176.66 183.277C176.388 183.777 176.029 184.256 175.637 184.669C175.409 184.93 175.159 185.181 174.898 185.42C174.462 185.812 174.016 186.171 173.548 186.497C172.939 186.921 172.308 187.302 171.655 187.65C171.188 187.911 170.72 188.151 170.241 188.39C169.762 188.63 169.262 188.858 168.772 189.097C168.587 189.195 168.38 189.271 168.196 189.38C167.684 189.609 167.162 189.859 166.661 190.131C166.074 190.436 165.486 190.762 164.921 191.121C164.116 191.611 163.332 192.166 162.603 192.786C162.571 192.818 162.538 192.84 162.505 192.873C161.733 193.526 161.015 194.265 160.405 195.081C159.883 195.778 159.557 196.561 159.187 197.334C159.187 197.344 159.176 197.355 159.176 197.366C159.035 197.638 158.904 197.91 158.741 198.171C158.621 198.367 158.469 198.487 158.306 198.541C157.849 198.704 157.272 198.378 157.228 197.812C157.207 197.725 157.207 197.638 157.228 197.54C157.403 196.539 157.968 195.571 158.469 194.679C158.523 194.581 158.567 194.505 158.621 194.407C159.132 193.46 159.676 192.557 160.308 191.698C161.722 189.805 163.463 188.39 165.541 187.335C165.845 187.182 166.161 187.03 166.476 186.878C166.966 186.649 167.477 186.421 167.967 186.192C168.707 185.855 169.425 185.518 170.132 185.137C170.654 184.865 171.166 184.571 171.655 184.234C171.764 184.18 171.851 184.103 171.949 184.049C172.526 183.647 173.059 183.168 173.548 182.646C173.777 182.417 173.995 182.178 174.201 181.917C174.539 181.503 174.898 181.111 175.213 180.665C175.257 180.6 175.3 180.535 175.333 180.48C175.452 180.317 175.55 180.132 175.637 179.947C175.724 179.762 175.79 179.567 175.844 179.36C176.051 178.479 177.411 178.642 177.4 179.567Z" fill="#16272B"/>
<path d="M167.532 204.351C166.868 202.056 166.346 199.695 165.954 197.334C165.562 194.983 165.367 192.536 164.681 190.251C164.29 188.967 162.549 189.239 162.451 190.544C162.277 193.014 162.919 195.604 163.593 197.954C163.909 199.053 164.268 200.141 164.649 201.218C164.627 201.207 164.616 201.185 164.594 201.174C163.365 200.228 162.113 199.858 160.59 199.771C160.166 199.749 159.35 199.771 159.045 199.401C158.73 199.031 158.947 198.324 159.045 197.921C159.383 196.452 159.938 195.049 160.775 193.808C160.993 193.482 160.471 193.058 160.22 193.373C159.198 194.635 158.229 195.941 157.457 197.388C157.087 198.084 156.674 198.857 156.739 199.673C156.815 200.521 157.283 201.229 157.957 201.729C159.241 202.676 160.938 202.36 162.396 202.839C163.778 203.296 165.073 204.199 166.194 205.135C166.759 205.613 167.782 205.2 167.532 204.351Z" fill="#16272B"/>
<path d="M167.086 203.296C166.846 202.415 165.671 202.796 165.78 203.644C165.911 204.645 165.432 205.831 165.192 206.788C164.92 207.876 164.638 208.943 164.202 209.976C163.463 211.739 162.44 213.349 161.352 214.894C159.143 218.017 156.575 220.715 153.551 223.032C147.23 227.885 139.799 231.464 134.641 237.742C133.303 239.374 132.139 241.148 131.269 243.084C130.442 244.945 129.56 247.186 129.952 249.242C130.137 250.2 131.628 250.439 132.041 249.525C132.814 247.828 132.988 245.891 133.684 244.15C134.391 242.388 135.37 240.712 136.458 239.156C138.798 235.795 141.877 233.075 145.141 230.692C148.459 228.255 151.973 226.122 155.313 223.718C158.349 221.542 161.559 219.279 163.887 216.287C165.247 214.535 166.378 212.555 167.14 210.455C167.553 209.302 167.891 208.029 167.88 206.799C167.869 205.526 167.412 204.493 167.086 203.296Z" fill="#16272B"/>
<path d="M159.307 105.202C159.317 104.897 158.86 104.897 158.839 105.202C157.947 117.703 157.131 130.193 156.652 142.716C156.184 155.098 155.879 167.49 155.814 179.882C155.792 183.386 155.825 186.889 155.847 190.392C155.858 192.144 155.901 193.896 155.966 195.647C156.032 197.41 156.217 199.14 156.391 200.902C156.499 202.045 158.077 202.077 158.153 200.902C158.371 197.769 158.512 194.657 158.491 191.513C158.469 188.379 158.469 185.257 158.469 182.123C158.458 175.867 158.436 169.611 158.447 163.345C158.469 150.952 158.632 138.571 158.871 126.179C159.024 119.204 159.089 112.198 159.307 105.202Z" fill="#16272B"/>
<path d="M80.6116 223.805C79.7194 221.52 77.7393 219.442 76.0638 217.712C74.2903 215.895 72.2775 214.252 70.1886 212.816C65.3905 209.519 60.0484 207.463 54.9239 204.808C53.6074 204.123 52.3018 203.339 51.29 202.219C50.3543 201.185 49.201 199.705 49.3534 198.215C49.4295 197.464 48.211 197.301 48.0695 198.041C47.8302 199.346 47.6234 200.587 48.0478 201.892C48.4721 203.209 49.299 204.319 50.3108 205.222C52.4977 207.18 55.37 208.377 58.0138 209.541C63.1818 211.804 68.9591 213.567 73.3002 217.353C74.4209 218.332 75.4654 219.398 76.3466 220.606C76.7818 221.204 77.1626 221.857 77.5108 222.51C77.8916 223.217 78.0983 223.99 78.4682 224.686C79.0775 225.85 81.1121 225.078 80.6116 223.805Z" fill="#16272B"/>
<path d="M82.4611 209.074C82.0259 202.458 81.0467 195.909 80.5245 189.305C79.48 175.955 79.9261 162.583 79.5344 149.212C79.3168 141.65 78.751 134.143 77.8262 126.636C77.7827 126.298 77.2713 126.298 77.304 126.636C77.9785 133.055 78.0438 139.605 77.9133 146.057C77.7936 152.498 77.6086 158.938 77.4454 165.379C77.2931 171.875 77.2496 178.381 77.5433 184.866C77.8262 191.263 78.6749 197.595 79.3059 203.96C79.6541 207.485 79.8608 211.021 80.024 214.568C80.111 216.396 80.1328 218.213 80.0458 220.051C79.9914 221.172 80.0893 223.196 79.0557 223.946C78.4137 224.414 78.7728 225.404 79.5779 225.252C82.2218 224.773 82.1565 221.02 82.3197 218.953C82.5917 215.645 82.6787 212.37 82.4611 209.074Z" fill="#16272B"/>
<path d="M79.85 223.032C79.2407 223.739 78.2397 224.109 77.4237 224.545C76.586 224.991 75.7917 225.48 75.0519 226.089C74.2903 226.699 73.6484 227.406 73.1044 228.222C73.2567 226.503 73.5178 224.795 73.6157 223.087C73.6919 221.737 73.6701 220.388 73.4852 219.05C73.3111 217.799 73.0935 216.395 72.5712 215.253C72.321 214.709 71.418 214.959 71.4615 215.558C71.5703 216.918 71.7661 218.201 71.7117 219.583C71.6573 220.856 71.6029 222.118 71.5376 223.391C71.4071 226.079 71.4941 228.679 71.7008 231.355C71.7444 231.965 72.6365 232.367 72.9412 231.693C73.3437 230.822 74.0944 230.061 74.7472 229.386C75.4109 228.701 76.0964 228.015 76.858 227.439C77.5652 226.905 78.305 226.427 79.0013 225.861C79.7303 225.263 80.1981 224.49 80.6986 223.696C81.0032 223.174 80.2525 222.575 79.85 223.032Z" fill="#16272B"/>
<path d="M111.652 262.342C109.367 259.872 109.03 256.293 107.452 253.399C105.766 250.298 103.035 248.677 99.6298 248.231C96.2896 247.784 92.0029 248.383 89.3155 245.87C88.6518 245.239 88.3798 244.51 88.184 243.617C87.9664 242.649 87.6182 241.877 87.1069 241.028C86.2582 239.635 85.0832 238.428 83.7885 237.459C82.015 236.132 79.9587 235.262 77.9894 234.304C76.5098 233.586 73.224 232.672 73.3654 230.507C73.4307 229.517 71.9075 229.332 71.679 230.289C70.5366 235.109 76.303 235.991 79.5126 236.97C81.4928 237.568 83.4186 238.406 84.833 240.005C85.4314 240.669 85.9101 241.507 86.0189 242.421C86.1386 243.411 86.0515 244.466 86.3235 245.434C87.4333 249.329 92.4272 249.634 95.6694 249.873C97.5082 250.015 99.3686 250.08 101.153 250.646C102.785 251.168 104.101 252.213 105.092 253.627C106.169 255.161 106.865 256.945 107.801 258.567C108.715 260.144 109.694 261.765 110.956 263.071C111.402 263.517 112.087 262.81 111.652 262.342Z" fill="#16272B"/>
<path d="M130.779 245.097C130.496 246.446 130.083 247.74 129.735 249.068C129.397 250.373 129.104 251.722 128.472 252.93C127.319 255.161 125.437 256.858 123.685 258.577C121.89 260.329 120.16 262.102 119.137 264.452C118.67 265.518 118.354 266.628 118.245 267.792C118.126 269.033 118.419 270.164 118.811 271.339C118.985 271.851 119.768 271.666 119.627 271.122C119.018 268.728 120.53 266.149 121.999 264.419C123.577 262.559 125.459 261.036 127.178 259.317C129.006 257.478 130.3 255.476 131.214 253.028C131.649 251.853 131.987 250.635 132.15 249.383C132.335 248.045 132.291 246.663 132.368 245.314C132.411 244.368 130.964 244.172 130.779 245.097Z" fill="#16272B"/>
<path d="M118.278 265.997C117.212 264.811 115.58 264.648 114.252 263.941C111.119 262.276 109.237 259.252 107.561 256.194C107.409 255.911 106.898 256.096 107.017 256.423C108.225 259.567 109.454 263.179 112.207 265.279C112.86 265.769 113.556 266.193 114.318 266.487C115.003 266.748 115.754 266.824 116.428 267.096C117.157 267.379 117.277 268.064 117.56 268.728C117.919 269.588 118.409 270.447 119.007 271.154C119.203 271.383 119.551 271.187 119.573 270.915C119.66 269.37 119.344 267.172 118.278 265.997Z" fill="#16272B"/>
<path d="M87.8576 209.628C86.737 197.845 85.7469 186.04 84.8765 174.224C84.3869 167.631 84.0169 161.038 83.7885 154.434C83.7667 153.922 83.0051 153.922 83.016 154.434C83.3424 166.249 83.5491 178.087 84.3107 189.891C84.6915 195.865 85.1593 201.816 85.7033 207.767C86.2365 213.599 86.6934 219.376 86.5302 225.241C86.3453 231.867 85.7795 238.482 86.7587 245.075C86.9001 246.021 88.456 245.815 88.3907 244.857C88.0099 238.939 88.3145 233.009 88.5104 227.09C88.7062 221.248 88.4125 215.47 87.8576 209.628Z" fill="#16272B"/>
<path d="M108.965 248.469C108.867 245.347 108.812 242.213 108.758 239.091C108.649 232.802 108.508 226.524 108.366 220.247C108.094 207.68 107.801 195.114 107.376 182.558C107.137 175.519 106.756 168.49 106.604 161.451C106.593 161.146 106.136 161.146 106.147 161.451C106.234 167.729 106.114 174.018 106.136 180.295C106.158 186.573 106.19 192.862 106.256 199.139C106.386 211.76 106.539 224.392 106.778 237.013C106.843 240.516 106.898 244.019 107.006 247.523C107.115 250.961 107.159 254.606 107.996 257.957C108.16 258.61 109.052 258.435 109.095 257.815C109.302 254.736 109.063 251.57 108.965 248.469Z" fill="#16272B"/>
<path d="M119.627 257.141C119.529 253.083 119.42 249.035 119.246 244.977C118.909 236.795 118.322 228.635 117.604 220.475C117.201 215.862 116.646 211.26 116.331 206.647C116.32 206.44 115.993 206.429 116.004 206.647C116.483 214.796 116.331 222.989 116.505 231.138C116.679 239.309 116.864 247.48 117.07 255.65C117.125 257.903 117.19 260.144 117.266 262.385C117.299 263.571 117.364 264.757 117.44 265.943C117.517 267.107 117.723 268.162 117.941 269.305C118.06 269.969 119.159 269.99 119.257 269.305C119.399 268.358 119.605 267.466 119.638 266.509C119.671 265.453 119.703 264.387 119.703 263.332C119.693 261.265 119.682 259.208 119.627 257.141Z" fill="#16272B"/>
<path d="M132.324 224.871C132.291 216.461 132.193 208.05 132.15 199.629C132.041 182.863 131.976 166.097 131.737 149.331C131.606 139.844 131.367 130.367 131.225 120.891C131.214 120.466 130.583 120.466 130.583 120.891C130.442 137.657 130.137 154.423 130.126 171.189C130.115 187.955 130.039 204.721 130.061 221.476C130.072 230.801 130.126 240.114 130.115 249.427C130.115 250.178 131.323 250.395 131.432 249.601C132.585 241.419 132.357 233.129 132.324 224.871Z" fill="#16272B"/>
<path d="M135.087 40.1396C134.913 39.1278 133.26 39.106 133.096 40.1396C132.509 43.7409 130.877 46.9614 128.32 49.529C127.743 50.1057 126.96 50.5953 126.536 51.3025C126.057 52.0967 126.122 53.0324 126.111 53.9246C126.09 55.0452 126.09 56.155 126.079 57.2756C125.709 56.7425 125.339 56.1985 124.969 55.6654C124.186 54.5338 123.304 52.6407 121.694 52.8475C120.954 52.9454 120.247 53.2826 119.507 53.4023C118.604 53.5438 117.69 53.6091 116.776 53.6308C115.079 53.6743 113.393 53.6091 111.717 53.3044C111.151 53.2065 110.695 53.4676 110.444 53.8593C110.281 53.9354 110.118 54.0443 110.009 54.1966C109.585 54.7732 109.335 55.5239 109.041 56.1767C108.725 56.8948 108.355 57.5911 107.985 58.2875C107.583 59.0599 107.137 59.7998 106.691 60.5505C106.658 60.0827 106.636 59.6148 106.604 59.1687C106.538 58.0807 106.484 56.9927 106.342 55.9156C106.234 55.0779 106.168 54.0334 105.722 53.2935C105.265 52.5428 104.439 52.3687 103.688 52.0532C102.284 51.4548 100.859 50.6388 99.7383 49.5943C98.6503 48.5825 97.5297 47.3966 96.9639 45.9822C96.7572 45.4491 96.3329 45.0683 95.7889 45.0465C95.0926 44.731 94.1351 45.0574 94.2113 46.0257C94.6791 51.8791 96.2785 57.5367 99.0638 62.6939C99.4446 63.4011 100.598 63.4663 100.968 62.6939C101.871 60.7899 102.73 58.875 103.601 56.9601C103.699 56.7534 103.797 56.5358 103.884 56.3291C103.971 57.1451 104.025 57.9719 104.101 58.7879C104.188 59.8433 104.308 60.8878 104.428 61.9431C104.536 62.8462 104.656 63.7166 105.2 64.4673C106.125 65.7511 107.877 66.5127 109.28 67.1003C115.101 69.5047 122.173 68.7867 127.189 64.8372C127.874 64.3041 128.505 63.6513 128.886 62.857C129.299 61.9866 129.223 61.0292 129.169 60.1044C129.071 58.3419 128.984 56.5902 128.886 54.8276C130.126 55.7959 131.236 56.9601 132.041 58.3092C132.487 59.0599 133.488 58.8532 133.76 58.0807C135.838 52.2055 136.165 46.2433 135.087 40.1396Z" fill="#16272B"/>
<path d="M135.251 212.066C135.817 220.541 136.23 229.049 137.024 237.514C137.644 236.665 138.308 235.86 138.994 235.142C137.829 221.314 136.763 207.463 136.219 193.591C135.915 186.628 135.936 179.654 135.371 172.702C134.968 166.108 134.141 159.515 134.283 152.9C133.521 159.526 133.706 166.185 133.728 172.843C133.76 185.932 134.511 198.999 135.251 212.066Z" fill="#16272B"/>
<path d="M141.561 232.748C142.268 232.117 143.008 231.475 143.77 230.855C142.987 225.796 142.203 220.759 141.474 215.797C140.212 204.21 139.353 192.579 138.134 180.992C138.417 192.819 138.297 204.689 139.472 216.472C140.136 221.901 140.8 227.33 141.561 232.748Z" fill="#16272B"/>
<path d="M147.719 228.081C146.131 219.061 144.575 210.042 143.106 201.011C143.803 210.336 144.347 220.867 145.543 229.484C146.251 228.962 146.979 228.494 147.719 228.081Z" fill="#16272B"/>
<path d="M179.217 143.913C179.565 151.214 180 158.503 180.653 165.782C180.718 166.456 180.783 167.12 180.849 167.795C181.066 167.261 181.295 166.739 181.556 166.239C181.959 165.455 182.459 164.498 183.036 163.464C182.97 162.801 182.905 162.148 182.84 161.484C182.557 158.525 182.307 155.555 182.1 152.574C181.502 143.336 180.729 134.099 180.25 124.862C179.608 115.135 179.413 105.376 178.314 95.6929C178.597 103.657 178.205 111.621 178.238 119.585C178.281 127.702 178.749 135.807 179.217 143.913Z" fill="#16272B"/>
<path d="M183.569 160.211C183.612 160.875 183.678 161.538 183.732 162.202C184.32 161.179 184.983 160.091 185.701 158.992C185.647 158.394 185.582 157.807 185.538 157.208C184.211 142.183 183.221 127.125 182.187 112.078C181.752 126.875 182.329 141.693 183.33 156.457C183.406 157.719 183.482 158.971 183.569 160.211Z" fill="#16272B"/>
<path d="M187.638 156.251C188.247 155.457 188.868 154.684 189.531 153.955C189.477 153.542 189.433 153.128 189.379 152.715C188.411 144.827 187.355 136.95 186.561 129.04C186.605 137.581 186.833 146.165 187.508 154.728C187.54 155.239 187.595 155.74 187.638 156.251Z" fill="#16272B"/>
<path d="M191.392 152.062C191.783 151.703 192.197 151.366 192.599 151.05C192.534 150.713 192.48 150.375 192.414 150.038C191.794 146.546 191.109 143.053 190.358 139.583C190.782 143.358 191.032 147.155 191.304 150.952C191.337 151.311 191.37 151.692 191.392 152.062Z" fill="#16272B"/>
<path d="M201.162 118.291C200.291 109.946 199.301 101.623 198.387 93.2886C197.082 80.2435 196.375 67.1548 194.938 54.1206C195.058 69.7552 195.058 85.3897 196.864 100.937C197.571 108.314 198.29 115.31 199.236 122.251C199.758 120.902 200.4 119.575 201.162 118.291Z" fill="#16272B"/>
<path d="M206.656 133.849C206.743 133.914 206.798 133.958 206.852 134.001C207.081 132.978 207.32 131.978 207.516 130.998C207.57 130.77 207.625 130.541 207.679 130.313C207.635 130.041 207.592 129.758 207.548 129.475C206.885 130.52 206.308 131.531 205.927 132.347C206.014 132.739 206.101 133.12 206.199 133.512C206.297 133.588 206.395 133.653 206.493 133.729C206.243 133.533 206.177 133.479 206.656 133.849Z" fill="#16272B"/>
<path d="M203.131 115.385C203.762 114.559 204.437 113.764 205.144 113.024C204.545 108.683 203.969 104.364 203.468 100.045C202.446 91.3733 200.618 82.789 199.628 74.1611C200.041 84.4319 201.238 94.6482 202.043 104.886C202.391 108.39 202.728 111.893 203.131 115.385Z" fill="#16272B"/>
<path d="M208.909 109.793C207.668 103.657 206.112 97.5751 205.046 91.417C205.732 97.858 206.515 104.364 207.559 110.816C208.006 110.446 208.452 110.098 208.909 109.793Z" fill="#16272B"/>
<path d="M115.406 265.171C116.244 265.366 116.994 265.747 117.604 266.302C117.223 261.33 116.82 256.347 116.418 251.375C115.482 240.299 115.471 229.136 113.665 218.147C114.35 226.677 114.024 235.251 114.253 243.802C114.535 250.755 114.905 257.979 115.406 265.171Z" fill="#16272B"/>
<path d="M112.131 263.234C112.142 263.528 112.163 263.821 112.174 264.104C112.827 264.311 113.48 264.703 114.013 264.898C113.556 257.206 112.914 249.536 111.989 241.887C112.239 249.003 111.826 256.118 112.131 263.234Z" fill="#16272B"/>
<path d="M90.3599 247.415C91.165 247.643 91.9919 247.796 92.8514 247.926C92.4597 238.885 92.0245 229.854 91.4696 220.824C90.6971 209.65 88.989 198.585 87.9119 187.455C88.1077 202.252 89.7506 216.994 90.0552 231.791C90.2511 236.992 90.2619 242.203 90.3599 247.415Z" fill="#16272B"/>
<path d="M94.6574 248.165C95.5278 248.285 96.3765 248.426 97.1816 248.622C96.9531 246.87 96.7138 245.14 96.4853 243.454C95.2123 232.432 94.0155 221.4 92.5793 210.4C93.0581 220.813 93.1669 231.257 94.0264 241.648C94.2113 243.802 94.4289 245.978 94.6574 248.165Z" fill="#16272B"/>
<path d="M98.0521 241.854C98.0521 244.237 98.15 246.62 98.3132 248.992C98.8572 249.198 99.3903 249.438 99.8581 249.775C99.8908 249.797 99.9126 249.819 99.9452 249.84C99.8255 248.948 99.6949 248.045 99.5753 247.186C99.1618 243.715 98.7593 240.255 98.4764 236.774C98.4111 235.196 98.0847 233.542 98.4873 231.986C97.7039 235.174 98.1391 238.58 98.0521 241.854Z" fill="#16272B"/>
<path d="M52.1711 144.663C52.1928 144.74 52.2037 144.816 52.2255 144.892C52.1928 143.989 52.1602 143.097 52.1275 142.194C51.7467 128.507 50.6587 114.874 49.1247 101.285C49.1029 110.794 49.1899 120.314 49.3314 129.823C50.2453 134.741 51.7576 139.659 52.1711 144.663Z" fill="#16272B"/>
<path d="M54.9565 205.374C54.5431 200.565 54.184 195.756 53.9664 190.925C53.5639 191.36 53.1504 191.774 52.7587 192.144C52.28 192.59 51.7469 192.927 51.1812 193.156C51.3552 196.713 51.5946 200.271 51.8992 203.818C52.8784 204.036 53.8903 204.525 54.9565 205.374Z" fill="#16272B"/>
<path d="M53.4006 149.451C54.4886 153.607 55.631 157.763 56.6973 161.941C55.7181 147.264 54.9021 132.685 53.3571 118.236C53.2592 127.702 53.1178 137.178 53.2592 146.655C53.3027 147.59 53.3462 148.515 53.4006 149.451Z" fill="#16272B"/>
<path d="M57.8069 207.604C58.7534 208.29 59.7326 208.931 60.875 209.573C60.1352 200.793 59.2648 192.024 58.4161 183.255C58.2965 183.298 58.1659 183.331 58.0462 183.353C58.068 183.668 58.0571 183.984 57.9701 184.321C57.6328 185.692 56.9256 187.063 56.0552 188.336C56.2837 190.838 56.5121 193.33 56.7624 195.832C57.1758 199.76 57.4913 203.687 57.8069 207.604Z" fill="#16272B"/>
<path d="M60.3421 179.512C60.7991 180.328 60.5271 181.34 59.9069 182.134C60.2116 186.116 60.5162 190.109 60.8208 194.092C61.2996 199.51 61.7456 204.928 62.2352 210.346C63.2906 210.945 64.3133 211.543 65.3469 212.12C64.7268 205.222 63.9869 198.335 63.4756 191.426C62.5943 181.547 61.8871 171.646 60.9188 161.778C59.896 152.78 58.6122 143.826 57.7962 134.806C57.6765 147.569 58.3402 160.309 59.2432 173.039C59.6567 175.193 60.0375 177.347 60.3421 179.512Z" fill="#16272B"/>
<path d="M68.1757 213.512C68.8176 213.773 69.4487 214.121 70.058 214.513C69.8186 212.62 69.5792 210.727 69.329 208.845C67.5447 194.015 65.6733 179.534 63.4973 164.911C64.3133 181.046 65.7604 197.127 67.4794 213.186C67.7188 213.294 67.9363 213.414 68.1757 213.512Z" fill="#16272B"/>
<path d="M32.0976 161.648C32.1846 161.68 32.2608 161.735 32.3369 161.778C32.6633 161.822 32.9789 161.963 33.2835 162.203C33.055 157.035 32.968 151.856 32.9136 146.688C32.8048 146.666 32.696 146.633 32.5763 146.612C31.9561 148.167 31.7821 149.952 30.9661 151.421C31.151 154.859 31.4557 158.275 31.9126 161.593C31.9888 161.604 32.0432 161.626 32.0976 161.648Z" fill="#16272B"/>
<path d="M37.3416 164.759C37.4721 164.825 37.6027 164.89 37.7333 164.955C37.1784 158.667 36.6126 152.378 36.0577 146.078C35.3397 146.481 34.6216 146.699 33.947 146.742C34.2517 152.378 34.7195 157.992 35.3723 163.584C36.0251 164.009 36.6779 164.411 37.3416 164.759Z" fill="#16272B"/>
<path d="M42.5859 164.302C42.76 164.335 42.9123 164.389 43.0646 164.422C42.6947 162.028 42.3574 159.711 42.0637 157.502C41.5088 152.084 40.9213 146.666 40.3555 141.247C39.8659 142.063 39.2893 142.879 38.6474 143.728C38.5821 143.804 38.5168 143.869 38.4624 143.956C38.8758 150.833 39.5395 157.676 40.5187 164.476C41.1389 164.215 41.8461 164.139 42.5859 164.302Z" fill="#16272B"/>
<path d="M47.1445 193.743C47.3186 194.265 47.4709 194.788 47.6559 195.31C47.917 196.028 48.1999 196.822 48.461 197.486C48.102 196.082 47.8082 194.657 47.558 193.232C47.4274 193.417 47.2969 193.591 47.1445 193.743Z" fill="#16272B"/>
<path d="M45.4473 165.314C45.6649 165.412 45.8498 165.521 46.013 165.641C44.7074 156.447 43.1842 147.275 41.7916 138.125C41.5305 138.952 41.1714 139.779 40.7253 140.595C41.5305 148.7 42.7055 156.806 44.1199 164.759C44.5551 164.922 44.9794 165.107 45.4473 165.314Z" fill="#16272B"/>
<path d="M48.3849 185.486C48.2435 183.788 48.0694 182.091 47.8953 180.394C47.7756 180.807 47.6451 181.232 47.5254 181.667C47.7974 182.94 48.0912 184.213 48.3849 185.486Z" fill="#16272B"/>
<path d="M40.1162 126.364C39.9203 124.884 39.7354 123.404 39.5613 121.925C39.583 122.795 39.6157 123.676 39.6374 124.547C39.8006 125.156 39.953 125.754 40.1162 126.364Z" fill="#16272B"/>
<path d="M5.03905 132.26C5.18049 132.26 5.31105 132.26 5.4525 132.26C8.62946 125.917 11.0666 119.204 13.025 112.361C16.6698 100.61 19.1287 88.218 17.8992 75.8801C18.0298 86.1291 15.4403 95.8776 12.5027 105.767C9.84801 115.135 6.89953 123.817 3.18945 132.304C3.80961 132.26 4.42977 132.249 5.03905 132.26Z" fill="#16272B"/>
<path d="M10.4027 131.281C15.8318 117.551 19.259 103.048 20.2056 88.2727C17.7576 103.254 13.0139 117.649 8.06348 131.967C8.8686 131.793 9.64108 131.553 10.4027 131.281Z" fill="#16272B"/>
<path d="M14.6461 129.475C17.2573 119.726 19.5312 109.88 21.5658 100.001C18.6499 108.977 16.0061 118.062 13.3514 127.125C13.0467 128.224 12.7638 129.333 12.481 130.443C13.199 130.128 13.9171 129.801 14.6461 129.475Z" fill="#16272B"/>
<path d="M17.6489 128.257C17.7686 128.213 17.8774 128.191 17.9971 128.159C19.1939 121.946 20.2819 115.701 21.4243 109.478C19.3571 115.853 17.6163 122.316 16.2019 128.812C16.6806 128.616 17.1593 128.42 17.6489 128.257Z" fill="#16272B"/>
<path d="M173.537 182.657C173.527 183.418 173.537 184.191 173.548 184.963C174.245 184.67 174.952 184.408 175.637 184.191C175.637 183.821 175.637 183.462 175.637 183.092V182.766C175.637 181.83 175.626 180.894 175.626 179.959C175.616 179.763 175.616 179.556 175.616 179.36C175.616 178.968 175.616 178.599 175.605 178.207C175.528 169.253 175.289 160.32 175.006 151.388C174.44 137.45 172.798 123.589 172.493 109.641C171.361 125.232 172.993 140.791 173.429 156.36C173.603 165.118 173.516 173.888 173.537 182.657Z" fill="#16272B"/>
<path d="M171.644 185.834C171.623 181.601 171.579 177.369 171.503 173.137C171.416 162.355 171.514 151.551 170.589 140.801C170.676 150.343 169.936 159.874 169.936 169.416C169.893 175.008 169.98 180.829 170.186 186.639C170.654 186.345 171.155 186.084 171.644 185.834Z" fill="#16272B"/>
<path d="M166.629 189.565C167.064 189.043 167.564 188.564 168.097 188.107C168.054 187.476 168.01 186.845 167.956 186.203C167.336 178.207 166.357 170.253 165.791 162.289C165.758 170.46 166.009 178.685 166.465 186.889C166.52 187.781 166.574 188.673 166.629 189.565Z" fill="#16272B"/>
<path d="M218.058 83.9208C218.146 83.7793 218.602 83.1156 218.94 82.6696C217.721 79.9822 216.601 77.284 215.665 74.564C212.346 64.9243 210.54 54.8494 207.831 45.0356C210.225 61.7691 212.216 72.6491 217.819 84.3233C217.906 84.1819 217.971 84.0404 218.058 83.9208Z" fill="#16272B"/>
<path d="M219.484 81.9186C219.843 81.2223 220.158 80.5477 220.517 79.9276C219.832 78.1868 219.168 76.4242 218.505 74.5855C216.263 68.4709 213.837 62.4216 211.977 56.1765C213.478 64.4671 215.839 72.6271 218.885 80.4824C219.07 80.9611 219.277 81.4399 219.484 81.9186Z" fill="#16272B"/>
<path d="M222.563 77.5228C220.604 73.5081 218.755 69.4499 217.112 65.3699C218.352 69.8307 219.669 74.2915 221.453 78.5673C221.758 78.1865 222.117 77.8384 222.563 77.5228Z" fill="#16272B"/>
<path d="M152.278 62.465C149.286 62.6935 146.468 61.7143 144.02 60.5937C142.736 59.9953 141.583 59.3534 140.506 58.6462C140.789 59.3969 141.072 60.1585 141.322 60.931C150.494 67.8615 160.471 64.8151 162.755 52.7927C160.982 58.3633 156.771 62.1386 152.278 62.465Z" fill="#16272B"/>
<path d="M153.018 65.5773C148.992 65.9907 145.315 64.968 141.833 62.6941C141.942 63.064 142.062 63.4122 142.16 63.793C142.236 64.0976 142.323 64.4023 142.421 64.7178C148.035 68.3735 155.488 68.1559 160.014 61.8455C158.012 63.7603 155.629 65.1856 153.018 65.5773Z" fill="#16272B"/>
<path d="M152.224 68.3625C148.775 68.8086 145.467 67.7314 142.802 65.8818C142.986 66.4367 143.182 66.9916 143.378 67.5574C144.597 68.4278 145.957 69.0806 147.447 69.3634C150.809 69.951 154.704 69.1676 157.13 66.6543C155.673 67.7858 153.79 68.1558 152.224 68.3625Z" fill="#16272B"/>
<path d="M144.988 71.2123C147.915 72.3547 151.614 72.2459 153.975 70.0482C152.561 71.0709 149.993 70.9947 148.753 70.8098C146.892 70.5378 145.228 69.7544 143.748 68.6555C144.151 69.9394 144.477 71.245 144.553 72.507C147.121 74.3022 150.428 74.7266 153.812 72.9422C150.668 73.9323 147.534 72.9966 144.988 71.2123Z" fill="#16272B"/>
<path d="M147.132 74.5309C146.327 74.1936 145.391 73.6387 144.575 73.0947C144.575 73.4864 144.542 73.8781 144.477 74.2698C146.751 75.7277 149.395 76.3478 152.322 75.2381C150.505 75.5971 148.807 75.1837 147.132 74.5309Z" fill="#16272B"/>
<path d="M88.0751 56.1115C88.0751 55.9374 88.0859 55.7742 88.0859 55.6001C87.9227 55.7851 87.7704 55.9809 87.5963 56.1659C81.5362 63.042 71.9835 65.4683 63.0293 62.7156C70.4386 66.4801 79.6975 65.2724 85.3442 59.9412C86.1819 58.6247 87.0632 57.2756 88.0751 56.1115Z" fill="#16272B"/>
<path d="M83.9844 62.3127C80.2308 64.9131 75.4871 66.0663 70.3953 66.1534C74.0509 66.6756 77.9569 66.7083 81.4385 65.3483C82.385 64.9131 83.2663 64.4017 84.0823 63.8142C83.8973 63.3355 83.8538 62.8132 83.9844 62.3127Z" fill="#16272B"/>
</svg>
