<svg width="653" height="535" viewBox="0 0 653 535" fill="none" xmlns="http://www.w3.org/2000/svg">
<path d="M247.052 504.53C247.122 505.12 246.852 505.54 246.462 505.83C246.572 506.65 246.302 507.53 245.432 508.12C230.222 518.42 214.002 526.81 197.112 534.01C195.302 534.78 193.302 533.55 193.772 531.44C198.242 511.41 187.192 496.84 176.382 481.59C175.652 481.72 174.912 481.43 174.752 480.53C173.932 476.08 177.152 471.24 179.262 467.48C181.112 464.18 182.582 460.08 184.592 456.63C184.462 456.5 184.372 456.32 184.442 456.06C187.462 444.51 214.492 455.33 220.382 458.33C237.132 466.87 245.172 486.72 247.042 504.51L247.052 504.53ZM243.062 504.07C243.192 503.98 243.302 503.92 243.412 503.87C241.162 488.42 234.632 469.82 219.842 462.29C211.032 457.8 198.862 453.24 188.782 455.69C188.872 459.54 186.362 463.44 184.622 466.69C183.302 469.15 181.932 471.58 180.702 474.11C179.802 476 179.232 478.03 178.242 479.83C192.642 490.77 200.962 510.36 198.872 528.3C214.262 521.43 229.092 513.57 243.052 504.07H243.062Z" fill="#1D1D1B"/>
<path d="M243.402 503.87C243.292 503.92 243.182 503.98 243.052 504.07C229.092 513.56 214.262 521.42 198.872 528.3C200.962 510.36 192.642 490.77 178.242 479.83C179.232 478.03 179.802 476 180.702 474.11C181.932 471.58 183.302 469.14 184.622 466.69C186.362 463.45 188.872 459.54 188.782 455.69C198.862 453.23 211.032 457.8 219.842 462.29C234.632 469.82 241.152 488.42 243.412 503.87H243.402Z" fill="white"/>
<path d="M611.882 292.681C611.952 293.271 611.682 293.691 611.292 293.981C611.402 294.801 611.132 295.681 610.262 296.271C595.052 306.571 578.832 314.961 561.942 322.161C560.132 322.931 558.132 321.701 558.602 319.591C563.072 299.561 552.022 284.991 541.212 269.741C540.482 269.871 539.742 269.581 539.582 268.681C538.762 264.231 541.982 259.391 544.092 255.631C545.942 252.331 547.412 248.231 549.422 244.781C549.292 244.651 549.202 244.471 549.272 244.211C552.292 232.661 579.322 243.481 585.212 246.481C601.962 255.021 610.002 274.871 611.872 292.661L611.882 292.681ZM607.892 292.221C608.022 292.131 608.132 292.071 608.242 292.021C605.992 276.571 599.462 257.971 584.672 250.441C575.862 245.951 563.692 241.391 553.612 243.841C553.702 247.691 551.192 251.591 549.452 254.841C548.132 257.301 546.762 259.731 545.532 262.261C544.632 264.151 544.062 266.181 543.072 267.981C557.472 278.921 565.792 298.511 563.702 316.451C579.092 309.581 593.922 301.721 607.882 292.221H607.892Z" fill="#1D1D1B"/>
<path d="M608.232 292.021C608.122 292.071 608.012 292.131 607.882 292.221C593.922 301.711 579.092 309.571 563.702 316.451C565.792 298.511 557.472 278.921 543.072 267.981C544.062 266.181 544.632 264.151 545.532 262.261C546.762 259.731 548.132 257.292 549.452 254.842C551.192 251.602 553.702 247.692 553.612 243.842C563.692 241.382 575.862 245.951 584.672 250.441C599.462 257.971 605.982 276.571 608.242 292.021H608.232Z" fill="white"/>
<path d="M477.974 498.681C478.044 499.271 477.774 499.691 477.384 499.981C477.494 500.801 477.224 501.681 476.354 502.271C461.144 512.571 444.924 520.961 428.034 528.161C426.224 528.931 424.224 527.701 424.694 525.591C429.164 505.561 418.114 490.991 407.304 475.741C406.574 475.871 405.834 475.581 405.674 474.681C404.854 470.231 408.074 465.391 410.184 461.631C412.034 458.331 413.504 454.231 415.514 450.781C415.384 450.651 415.294 450.471 415.364 450.211C418.384 438.661 445.414 449.481 451.304 452.481C468.054 461.021 476.094 480.871 477.964 498.661L477.974 498.681ZM473.984 498.221C474.114 498.131 474.224 498.071 474.334 498.021C472.084 482.571 465.554 463.971 450.764 456.441C441.954 451.951 429.784 447.391 419.704 449.841C419.794 453.691 417.284 457.591 415.544 460.841C414.224 463.301 412.854 465.731 411.624 468.261C410.724 470.151 410.154 472.181 409.164 473.981C423.564 484.921 431.884 504.511 429.794 522.451C445.184 515.581 460.014 507.721 473.974 498.221H473.984Z" fill="#1D1D1B"/>
<path d="M474.324 498.021C474.214 498.081 474.104 498.131 473.974 498.221C460.014 507.711 445.184 515.571 429.794 522.451C431.884 504.511 423.564 484.921 409.164 473.981C410.154 472.181 410.724 470.151 411.624 468.261C412.854 465.731 414.224 463.292 415.544 460.842C417.284 457.602 419.794 453.692 419.704 449.842C429.784 447.382 441.954 451.951 450.764 456.441C465.554 463.971 472.074 482.571 474.334 498.021H474.324Z" fill="white"/>
<path d="M524.642 207.62C526.162 236.3 482.312 264.21 458.482 244.66C458.192 244.42 458.152 244.06 458.242 243.73C457.562 243.71 456.872 243.42 456.502 242.85C454.522 239.79 455.022 234.82 455.292 231.34C455.622 226.92 456.042 222.53 456.942 218.2C456.992 217.94 457.142 217.76 457.312 217.61C457.442 217.15 457.752 216.73 458.282 216.58C476.992 210.86 485.052 185.17 485.572 168.16C485.642 165.59 489.222 165.39 489.802 167.57C495.222 173.32 499.382 180.38 504.062 186.72C507.272 191.1 510.582 195.55 514.472 199.38C516.762 201.63 519.642 203.32 521.762 205.72C522.972 205.24 524.552 205.85 524.642 207.61V207.62ZM520.242 208.94C520.132 208.94 520.042 208.96 519.952 208.94C512.912 207.75 506.652 197.93 502.712 192.67C498.152 186.55 493.462 180.15 489.792 173.35C489.152 184.47 486.252 194.9 479.332 204.1C474.362 210.7 468.112 218.08 459.502 219.37C460.072 223.33 459.882 227.32 459.772 231.34C459.682 234.97 460.522 238.84 459.992 242.39C459.942 242.68 459.832 242.9 459.682 243.1C485.242 252.63 516.932 236.98 520.252 208.94H520.242Z" fill="#1D1D1B"/>
<path d="M519.942 208.94C520.032 208.96 520.122 208.94 520.232 208.94C516.912 236.98 485.232 252.63 459.662 243.1C459.812 242.9 459.922 242.68 459.972 242.39C460.502 238.83 459.662 234.97 459.752 231.34C459.862 227.33 460.042 223.33 459.482 219.37C468.092 218.09 474.342 210.7 479.312 204.1C486.242 194.9 489.132 184.47 489.772 173.35C493.442 180.15 498.132 186.54 502.692 192.67C506.632 197.93 512.902 207.75 519.932 208.94H519.942Z" fill="white"/>
<path d="M158.951 430.98C160.471 459.66 116.621 487.57 92.791 468.02C92.501 467.78 92.461 467.42 92.551 467.09C91.871 467.07 91.181 466.78 90.811 466.21C88.831 463.15 89.331 458.18 89.601 454.7C89.931 450.28 90.351 445.89 91.251 441.56C91.301 441.3 91.451 441.12 91.621 440.97C91.751 440.51 92.061 440.09 92.591 439.94C111.301 434.22 119.361 408.53 119.881 391.52C119.951 388.95 123.531 388.75 124.111 390.93C129.531 396.68 133.691 403.74 138.371 410.08C141.581 414.46 144.891 418.91 148.781 422.74C151.071 424.99 153.951 426.68 156.071 429.08C157.281 428.6 158.861 429.21 158.951 430.97V430.98ZM154.551 432.3C154.441 432.3 154.351 432.32 154.261 432.3C147.221 431.11 140.961 421.29 137.021 416.03C132.461 409.91 127.771 403.51 124.101 396.71C123.461 407.83 120.561 418.26 113.641 427.46C108.671 434.06 102.421 441.44 93.811 442.73C94.381 446.69 94.191 450.68 94.081 454.7C93.991 458.33 94.831 462.2 94.301 465.75C94.241 466.04 94.141 466.26 93.991 466.46C119.551 475.99 151.241 460.34 154.561 432.3H154.551Z" fill="#1D1D1B"/>
<path d="M154.261 432.3C154.351 432.32 154.441 432.3 154.551 432.3C151.231 460.34 119.551 475.99 93.9807 466.46C94.1307 466.26 94.2407 466.04 94.2907 465.75C94.8207 462.19 93.9807 458.33 94.0707 454.7C94.1807 450.69 94.3607 446.69 93.8007 442.73C102.411 441.45 108.661 434.06 113.631 427.46C120.561 418.26 123.451 407.83 124.091 396.71C127.761 403.51 132.451 409.9 137.011 416.03C140.951 421.29 147.221 431.11 154.251 432.3H154.261Z" fill="white"/>
<path d="M490.222 41.0803C503.322 68.1103 488.172 96.0203 468.232 115.63C466.582 114.24 463.872 113.72 461.942 113.01C459.482 112.09 456.972 111.45 454.392 111.18C456.092 106.64 454.902 100.53 449.962 98.6603C445.422 96.9403 442.832 100.29 442.282 104.14C439.332 102.89 436.432 101.5 433.412 100.42C440.962 92.6503 440.942 78.7603 440.212 68.8303C439.482 58.9303 436.752 46.0903 429.402 38.5903C437.222 40.9903 447.472 39.3403 455.442 39.7603C467.042 40.3803 478.602 41.2403 490.222 41.0803Z" fill="#2B2D42"/>
<path d="M183.762 79.8504C185.482 83.7205 185.192 84.0304 181.872 85.7504C181.432 77.9404 169.462 72.7005 166.882 81.6805C166.312 83.5905 166.172 85.5104 165.852 87.4704C165.192 91.5004 159.642 92.2004 156.382 92.9504C154.072 93.4804 150.962 93.9904 148.572 95.3104C148.312 95.2904 148.062 95.2904 147.862 95.3104C147.002 95.3504 145.572 95.3604 144.732 95.8404C140.952 94.6104 138.552 91.4804 136.282 88.4204C132.602 83.4504 130.122 77.6105 127.812 71.9305C120.852 54.7005 120.882 37.0004 125.522 19.3504C125.762 19.0404 126.032 18.8004 126.332 18.6204C128.552 19.0404 130.842 18.7304 133.172 18.7804C138.062 18.8904 142.942 19.5104 147.812 19.8204C157.852 20.4604 168.502 18.8904 178.652 18.4604C173.172 28.5904 172.512 39.7204 174.232 50.9704C175.292 57.9304 177.682 64.7005 180.152 71.2605C181.252 74.1605 182.512 77.0004 183.762 79.8404V79.8504Z" fill="#2B2D42"/>
<path d="M156.861 207.62C156.971 208.5 155.671 208.74 155.271 208.06C155.251 208.01 155.221 207.97 155.201 207.91C152.491 213.17 149.101 218.14 146.221 223.32C143.431 228.36 140.651 233.45 137.001 237.93C136.691 238.33 136.301 238.5 135.941 238.53C135.541 239.17 134.751 239.57 133.961 239.02C122.851 231.25 107.831 225.99 94.4708 231.51C86.9608 234.61 81.7508 242.71 74.3308 245.24C73.9608 245.48 73.5408 245.59 73.1608 245.57C71.9308 245.68 70.7008 244.27 71.5308 243.13C71.5808 243.06 71.6408 243 71.6808 242.95C70.1608 232.93 70.8208 222.35 70.6008 212.24C70.3308 200.49 70.0708 188.75 70.0508 177C70.0308 174.87 72.2908 174.21 73.7208 174.98C73.9208 174.87 74.1408 174.78 74.4208 174.72C93.3708 170.74 110.701 170.73 128.371 179.43C139.821 185.07 155.221 193.5 156.881 207.61L156.861 207.62ZM152.541 204.67C152.651 204.54 152.781 204.49 152.911 204.4C146.171 195.07 136.031 188.91 125.701 184C108.911 176.05 93.6108 176.45 75.6508 179.25C75.3808 179.31 75.1208 179.29 74.8608 179.25C74.9108 190.25 75.1508 201.24 75.4108 212.24C75.4508 214.26 75.2508 230.99 75.1408 238.79C90.7508 222.11 117.161 219.64 134.461 235.38C137.031 229.81 140.091 224.38 143.111 219.03C145.901 214.08 148.571 208.79 152.551 204.66L152.541 204.67Z" fill="#1D1D1B"/>
<path d="M152.902 204.39C152.772 204.48 152.642 204.54 152.532 204.66C148.552 208.78 145.882 214.08 143.092 219.03C140.072 224.38 137.012 229.81 134.442 235.38C117.142 219.64 90.7317 222.11 75.1217 238.79C75.2317 230.98 75.4317 214.25 75.3917 212.24C75.1317 201.24 74.9017 190.25 74.8417 179.25C75.1017 179.29 75.3517 179.31 75.6317 179.25C93.5917 176.45 108.892 176.04 125.682 184C136.022 188.91 146.152 195.07 152.892 204.4L152.902 204.39Z" fill="white"/>
<path d="M597.531 371.021C597.641 371.901 596.341 372.141 595.941 371.461C595.921 371.401 595.891 371.371 595.871 371.311C593.161 376.571 589.771 381.541 586.891 386.721C584.101 391.761 581.321 396.851 577.671 401.331C577.361 401.731 576.971 401.901 576.611 401.931C576.211 402.571 575.421 402.971 574.631 402.421C563.521 394.651 548.501 389.391 535.141 394.911C527.631 398.011 522.421 406.111 515.001 408.641C514.631 408.881 514.211 408.991 513.831 408.971C512.601 409.081 511.371 407.671 512.201 406.531C512.251 406.461 512.311 406.401 512.351 406.351C510.831 396.331 511.491 385.751 511.271 375.641C511.001 363.891 510.741 352.151 510.721 340.401C510.701 338.271 512.961 337.611 514.391 338.381C514.591 338.271 514.811 338.181 515.091 338.121C534.041 334.141 551.371 334.121 569.041 342.831C580.491 348.471 595.891 356.901 597.551 371.011L597.531 371.021ZM593.211 368.071C593.321 367.941 593.451 367.891 593.581 367.801C586.841 358.471 576.701 352.311 566.371 347.401C549.581 339.451 534.281 339.851 516.321 342.651C516.051 342.711 515.791 342.691 515.531 342.651C515.581 353.651 515.821 364.641 516.081 375.641C516.121 377.661 515.921 394.391 515.811 402.191C531.421 385.511 557.831 383.041 575.131 398.781C577.701 393.211 580.761 387.781 583.781 382.431C586.571 377.481 589.241 372.191 593.221 368.061L593.211 368.071Z" fill="#1D1D1B"/>
<path d="M593.572 367.8C593.442 367.89 593.312 367.95 593.202 368.07C589.222 372.19 586.552 377.49 583.762 382.44C580.742 387.79 577.682 393.22 575.112 398.79C557.812 383.05 531.402 385.52 515.792 402.2C515.902 394.39 516.102 377.66 516.062 375.65C515.802 364.65 515.572 353.66 515.512 342.66C515.772 342.7 516.022 342.72 516.302 342.66C534.262 339.86 549.562 339.45 566.352 347.41C576.692 352.32 586.822 358.48 593.562 367.81L593.572 367.8Z" fill="white"/>
<path d="M111.872 305.48C112.712 306.19 112.932 307.66 111.712 308.27C92.692 317.6 77.242 352.8 91.942 370.87C92.752 371.86 92.292 373.4 91.372 373.97C91.152 375.23 90.032 376.43 88.402 376.08C74.772 373.24 61.222 369.96 47.592 367.08C46.842 366.92 46.472 366.38 46.402 365.8C46.222 365.67 46.052 365.53 45.922 365.34C35.622 351.65 44.232 325.15 49.952 311.46C54.862 299.73 67.402 278.14 83.082 281.81C83.852 280.93 85.062 280.47 86.142 281.28C95.232 288.12 103.882 296.14 111.472 304.59C111.732 304.86 111.822 305.18 111.872 305.49V305.48ZM107.822 306.01C98.882 300.09 91.462 291.9 83.142 285.17C83.072 285.11 83.032 285.06 82.982 285.01C53.492 293.51 41.362 336.96 49.262 363.75C61.782 363.79 74.202 367.87 86.392 370.68C72.002 353.36 88.482 314.09 107.832 306.01H107.822Z" fill="#1D1D1B"/>
<path d="M83.1422 285.171C91.4622 291.901 98.8822 300.09 107.822 306.01C88.4722 314.09 71.9922 353.36 86.3822 370.68C74.1922 367.88 61.7722 363.79 49.2522 363.75C41.3522 336.96 53.4822 293.51 82.9722 285.01C83.0222 285.06 83.0622 285.121 83.1322 285.171H83.1422Z" fill="white"/>
<path d="M595.206 441.621C596.046 442.331 596.266 443.801 595.046 444.411C576.026 453.741 560.576 488.941 575.276 507.011C576.086 508.001 575.626 509.541 574.706 510.111C574.486 511.371 573.366 512.571 571.736 512.221C558.106 509.381 544.556 506.101 530.926 503.221C530.176 503.061 529.806 502.521 529.736 501.941C529.556 501.811 529.386 501.671 529.256 501.481C518.956 487.791 527.566 461.291 533.286 447.601C538.196 435.871 550.736 414.281 566.416 417.951C567.186 417.071 568.396 416.611 569.476 417.421C578.566 424.261 587.216 432.281 594.806 440.731C595.066 441.001 595.156 441.321 595.206 441.631V441.621ZM591.156 442.151C582.216 436.231 574.796 428.041 566.476 421.311C566.406 421.251 566.366 421.201 566.316 421.151C536.826 429.651 524.696 473.101 532.596 499.891C545.116 499.931 557.536 504.011 569.726 506.821C555.336 489.501 571.816 450.231 591.166 442.151H591.156Z" fill="#1D1D1B"/>
<path d="M566.465 421.321C574.785 428.051 582.205 436.241 591.145 442.161C571.795 450.241 555.315 489.511 569.705 506.831C557.515 504.031 545.095 499.941 532.575 499.901C524.675 473.111 536.805 429.661 566.295 421.161C566.345 421.221 566.385 421.271 566.455 421.321H566.465Z" fill="white"/>
<path d="M450.599 98.6381C445.081 95.1528 438.468 95.9125 433.552 100.001C429.151 103.687 426.426 109.295 423.32 114.031C418.249 121.761 412.462 129.335 405.112 134.965C402.521 63.2051 379.04 37.7361 368.987 26.6103C363.089 20.0867 356.342 14.0992 348.813 9.51931C340.613 4.55957 331.655 1.87863 322.182 0.716893C305.158 -1.36083 286.458 1.14135 270.507 7.39687C254.198 13.7864 240.592 24.3538 231.052 39.0989C222.116 52.9281 217.134 69.1031 213.805 85.0993C210.521 100.85 208.287 116.913 206.946 133.043C205.293 131.346 203.796 129.514 202.456 127.503C198.166 121.069 195.642 114.053 193.944 106.547C192.179 98.8168 191.911 90.5953 188.515 83.3121C185.186 76.2299 177.769 70.5776 169.659 71.4489C152.278 73.3033 154.065 95.0859 154.646 107.619C155.45 124.464 157.684 141.488 165.325 156.747C173.591 173.28 188.202 183.981 205.047 190.751C205.472 190.929 205.874 191.041 206.298 191.108C206.455 193.633 206.567 196.135 206.768 198.637C208.309 217.962 211.124 237.22 215.235 256.165C217.268 265.549 219.658 274.865 222.339 284.092C224.909 292.939 228.461 301.585 236.213 307.103C239.877 309.717 244.591 311.393 249.104 311.214C251.316 311.125 253.483 310.656 255.538 309.896C256.387 309.583 257.236 309.226 258.13 308.958C258.532 308.824 258.912 308.712 259.336 308.622C259.381 308.667 259.56 308.891 259.716 309.069C259.671 309.069 259.828 309.36 259.94 309.538C260.007 309.762 260.275 310.544 260.319 310.7C260.587 311.616 260.789 312.532 260.945 313.47C261.079 314.252 261.191 315.794 261.347 317.38C261.57 319.681 261.861 321.982 262.196 324.284C264.43 340.257 269.904 356.41 281.275 368.251C287.575 374.819 296.467 380.337 305.694 376.472C313.067 373.389 317.781 365.659 318.965 357.929C319.68 353.238 319.3 348.591 318.741 343.899C318.473 341.687 318.183 339.453 318.026 337.241C317.959 336.214 317.915 335.186 317.892 334.158C317.892 333.466 317.892 332.796 317.937 332.103C317.937 332.058 318.004 331.254 318.004 331.12C318.429 328.193 319.568 325.557 321.311 323.77C322.428 322.608 322.763 322.474 324.282 321.692C323.79 321.938 324.818 321.603 324.796 321.603C325.131 321.558 325.511 321.58 325.868 321.603C325.98 321.603 326.092 321.625 326.203 321.647C326.516 321.714 326.896 321.826 327.209 321.938C327.253 321.96 327.276 321.982 327.365 322.027C328.236 322.452 327.879 322.273 328.415 322.764C329.286 323.546 330.56 324.998 330.94 325.49C332.839 327.992 334.447 330.718 336.324 333.242C341.418 340.101 347.919 344.458 356.654 344.927C374.661 345.91 387.172 330.159 394.031 315.436C409.625 282.036 406.319 243.275 405.894 207.439L405.715 193.298C406.855 193.298 407.994 192.962 409.067 192.158C428.727 177.145 444.343 157.284 453.503 134.25C457.927 123.124 463.11 106.547 450.599 98.6381Z" fill="white"/>
<path d="M250.669 328.796C250.468 327.858 250.155 327.031 249.708 326.16C249.53 325.803 249.351 325.445 249.172 325.11C248.725 324.306 248.144 323.636 247.385 323.144C246.715 322.518 245.91 322.116 245.017 321.893C244.078 321.602 243.162 321.558 242.224 321.759C241.286 321.804 240.437 322.072 239.632 322.585C238.136 323.546 236.84 324.976 236.415 326.763C236.326 327.389 236.259 327.992 236.17 328.618C236.17 329.869 236.482 331.053 237.13 332.147C237.309 332.505 237.488 332.862 237.666 333.198C238.091 334.024 238.761 334.694 239.364 335.387C239.811 335.744 240.28 336.102 240.727 336.437C241.509 336.928 242.336 337.197 243.252 337.241C243.855 337.398 244.458 337.398 245.061 337.241C245.955 337.197 246.804 336.928 247.586 336.437C248.033 336.08 248.502 335.722 248.949 335.387L249.999 334.024C250.49 333.242 250.758 332.416 250.803 331.5C251.004 330.606 250.959 329.69 250.691 328.796H250.669Z" fill="white"/>
<path d="M262.04 360.811C261.861 360.052 261.437 359.314 261.102 358.622C260.945 358.287 260.789 357.952 260.633 357.617C260.275 356.969 259.806 356.432 259.203 356.053C258.667 355.561 258.041 355.226 257.304 355.047C256.567 354.824 255.829 354.779 255.07 354.958C254.332 354.98 253.64 355.204 252.992 355.628C251.808 356.388 250.758 357.55 250.423 358.957C250.088 360.454 250.244 361.906 250.981 363.269C251.16 363.582 251.339 363.917 251.518 364.229C251.92 364.944 252.322 365.525 252.858 366.173C253.238 366.464 253.595 366.754 253.975 367.022C254.601 367.424 255.293 367.648 256.008 367.67C256.5 367.804 256.991 367.804 257.46 367.67C258.198 367.648 258.868 367.424 259.493 367.022C260.275 366.508 260.945 365.838 261.459 365.056C262.241 363.85 262.331 362.174 262.018 360.834L262.04 360.811Z" fill="white"/>
<path d="M341.664 357.215C341.172 356.343 340.569 355.673 339.787 355.07C338.201 352.858 335.274 352.032 332.749 353.082C331.632 353.551 330.538 354.377 329.934 355.472C329.733 355.941 329.532 356.411 329.354 356.88C329.197 357.461 329.152 358.041 329.175 358.622C328.773 359.918 328.996 361.169 329.242 362.465C329.577 364.409 331.208 366.017 332.772 367C334.514 368.095 336.704 368.095 338.558 367.335C340.479 366.531 341.641 365.079 342.311 363.135C342.982 361.192 342.669 359.002 341.664 357.237V357.215Z" fill="white"/>
<path d="M387.644 351.629C387.107 350.333 386.169 349.082 384.896 348.412C383.354 347.585 381.41 347.139 379.712 347.742C378.64 348.099 377.836 348.502 377.054 348.993C374.44 349.976 372.809 352.568 372.072 355.181C371.603 356.857 371.826 359.091 372.787 360.566C373.613 361.861 374.708 362.822 376.138 363.425C377.523 364.006 379.221 364.252 380.695 363.783C382.349 363.247 384.114 362.197 384.873 360.566C384.985 360.342 385.119 360.119 385.253 359.918C385.32 359.828 385.387 359.739 385.454 359.65C386.638 358.734 387.666 357.55 388.023 356.03C388.358 354.534 388.291 353.081 387.688 351.652L387.644 351.629Z" fill="white"/>
<path d="M198.256 202.949C198.212 202.167 197.988 201.43 197.542 200.737C197.34 200.38 197.162 200.045 196.961 199.687C196.402 198.749 195.642 197.989 194.704 197.431C193.721 196.872 192.671 196.582 191.532 196.582L189.856 196.805C188.784 197.096 187.868 197.632 187.086 198.414C186.483 198.972 186.036 199.665 185.79 200.447C185.388 201.206 185.209 202.011 185.254 202.86C185.254 205.027 186.438 207.216 188.359 208.289C188.717 208.49 189.052 208.668 189.409 208.869C189.878 209.07 190.348 209.272 190.839 209.473C191.621 209.718 192.425 209.763 193.207 209.584C193.744 209.584 194.235 209.45 194.704 209.182C195.441 208.936 196.089 208.534 196.626 207.953C196.938 207.551 197.251 207.149 197.564 206.747C197.765 206.278 197.966 205.809 198.167 205.317C198.413 204.535 198.457 203.731 198.279 202.949H198.256Z" fill="white"/>
<path d="M176.676 185.434C169.549 185.434 169.527 196.515 176.676 196.515C183.825 196.515 183.825 185.434 176.676 185.434Z" fill="white"/>
<path d="M428.326 204.424C428.281 204.29 428.236 204.156 428.192 204.021C428.013 203.575 427.856 203.083 427.588 202.681C427.454 202.48 427.298 202.301 427.164 202.1C427.03 201.921 426.873 201.72 426.717 201.542C426.382 201.184 425.98 200.894 425.578 200.626C425.064 200.268 424.416 200 423.79 199.911C423.344 199.844 422.763 199.71 422.271 199.754C421.847 199.777 421.4 199.844 420.975 199.933C420.886 199.933 420.797 199.978 420.73 200C419.635 200.38 419.032 200.737 418.16 201.497C418.026 201.609 417.915 201.743 417.803 201.877C417.49 202.257 417.11 202.703 416.865 203.172C416.619 203.642 416.418 204.133 416.239 204.625C416.172 204.803 416.15 204.982 416.105 205.161C416.038 205.63 415.904 206.278 415.926 206.814C415.971 207.35 416.016 207.886 416.15 208.4C416.418 209.361 416.842 209.964 417.468 210.724C417.803 211.126 418.272 211.439 418.697 211.729C419.188 212.042 419.724 212.221 420.305 212.243C420.529 212.288 420.752 212.31 420.975 212.31C421.422 212.466 421.958 212.511 422.383 212.533C423.031 212.578 423.723 212.489 424.349 212.265C425.265 211.908 426.069 211.528 426.762 210.791C427.499 209.987 427.856 209.316 428.214 208.311C428.437 207.708 428.504 207.015 428.527 206.39C428.549 205.742 428.46 205.071 428.303 204.424H428.326Z" fill="white"/>
<path d="M433.241 187.422C426.114 187.422 426.092 198.503 433.241 198.503C440.39 198.503 440.39 187.422 433.241 187.422Z" fill="white"/>
<path d="M453.504 134.25C457.928 123.124 463.111 106.547 450.6 98.6378C449.572 97.9899 448.5 97.5432 447.405 97.1634C445.975 112.422 441.753 127.19 434.179 141.041C428.974 150.581 422.584 159.294 414.877 166.979C407.214 174.642 395.596 179.669 389.743 188.874C383.889 198.034 386.146 209.316 387.196 219.481C388.648 233.824 390.458 248.189 390.793 262.622C391.262 282.908 388.939 323.568 363.782 329.913C350.579 333.242 348.077 322.34 339.81 315.593C332.08 309.27 320.441 308.667 314.051 317.157C307.505 325.892 310.231 339.341 305.897 349.372C305.137 351.137 304.065 354.019 302.657 355.315C299.328 358.421 300.2 357.348 296.737 355.516C291.419 352.701 286.303 345.44 282.706 340.637C275.11 330.494 271.111 319.614 267.224 307.751C263.069 295.039 239.074 303.908 234.114 292.023C224.24 268.341 216.376 241.375 213.784 216.577C212.399 203.462 211.125 189.924 204.848 177.86C199.419 167.404 183.892 165.259 176.608 156.323C158.356 133.87 169.057 99.5986 164.768 72.7222C152.681 77.883 154.111 96.4261 154.647 107.619C155.451 124.464 157.685 141.488 165.326 156.747C173.592 173.28 188.203 183.981 205.049 190.75C205.473 190.929 205.875 191.041 206.3 191.108C206.456 193.632 206.568 196.135 206.769 198.637C208.31 217.962 211.125 237.22 215.236 256.165C217.269 265.548 219.66 274.865 222.341 284.092C224.91 292.939 228.462 301.585 236.215 307.103C239.878 309.717 244.592 311.393 249.105 311.214C251.317 311.124 253.484 310.655 255.54 309.896C256.389 309.583 257.238 309.225 258.131 308.957C258.533 308.823 258.913 308.712 259.338 308.622C259.382 308.667 259.561 308.89 259.717 309.069C259.673 309.069 259.829 309.359 259.941 309.538C260.008 309.762 260.276 310.544 260.321 310.7C260.589 311.616 260.79 312.532 260.946 313.47C261.08 314.252 261.192 315.794 261.348 317.38C261.572 319.681 261.862 321.982 262.197 324.283C264.431 340.257 269.905 356.41 281.277 368.251C287.577 374.819 296.469 380.337 305.695 376.472C313.068 373.389 317.782 365.659 318.966 357.929C319.681 353.237 319.301 348.591 318.743 343.899C318.475 341.687 318.184 339.453 318.028 337.241C317.961 336.214 317.916 335.186 317.894 334.158C317.894 333.466 317.894 332.795 317.938 332.103C317.938 332.058 318.005 331.254 318.005 331.12C318.43 328.193 319.569 325.557 321.312 323.769C322.429 322.608 322.764 322.474 324.283 321.692C323.792 321.938 324.819 321.602 324.797 321.602C325.132 321.558 325.512 321.58 325.87 321.602C325.981 321.602 326.093 321.625 326.205 321.647C326.517 321.714 326.897 321.826 327.21 321.938C327.255 321.96 327.277 321.982 327.366 322.027C328.238 322.451 327.88 322.273 328.416 322.764C329.288 323.546 330.561 324.998 330.941 325.49C332.84 327.992 334.449 330.718 336.325 333.242C341.419 340.101 347.92 344.457 356.656 344.927C374.663 345.91 387.174 330.159 394.032 315.436C409.001 283.354 406.566 246.357 405.962 211.729C405.449 208.266 405.203 204.848 405.828 202.211C405.784 199.24 405.761 196.269 405.717 193.297C406.856 193.297 407.995 192.962 409.068 192.158C428.728 177.145 444.345 157.283 453.504 134.25Z" fill="#DBDBDB"/>
<path d="M290.392 71.5382C266.487 63.9869 249.151 113.338 267.448 123.414C267.873 123.794 268.342 124.174 268.811 124.531C275.714 129.647 283.109 128.151 288.605 123.325C294.414 118.723 298.011 110.3 300.088 102.503C303.261 90.5728 303.507 75.6713 290.37 71.5158L290.392 71.5382Z" fill="#262626"/>
<path d="M352.031 96.2027C350.199 86.6854 344.815 77.1234 339.051 72.4318C332.282 66.9358 323.435 64.9698 316.151 70.3764C307.952 76.4531 307.059 89.0536 309.449 98.772C313.448 115.036 335.879 138.874 350.467 122.051C356.946 114.567 355.449 104.826 352.031 96.2251V96.2027Z" fill="#262626"/>
<path d="M322.538 143.79C322.203 138.003 319.164 132.686 314.004 130.988C309.714 129.581 305.335 130.944 301.895 133.915C298.052 137.221 296.131 142.427 296.533 147.811C297.024 154.469 299.415 161.707 305.581 163.852C308.418 164.835 311.122 163.897 313.132 161.931C319.343 160.032 322.94 150.782 322.538 143.79Z" fill="#262626"/>
<g style="mix-blend-mode:soft-light">
<path d="M290.391 82.4407C297.249 84.6078 300.444 89.7016 301.494 95.7784C302.924 85.5238 301.137 74.9341 290.391 71.5383C271.691 65.6402 257.013 94.5273 260.252 112.221C262.71 95.7561 275.221 77.6597 290.391 82.4407Z" fill="black"/>
</g>
<g style="mix-blend-mode:soft-light">
<path d="M316.174 81.2568C323.457 75.8726 332.304 77.8387 339.073 83.3122C344.837 88.0039 350.222 97.5659 352.053 107.083C353.036 109.541 353.841 112.088 354.377 114.634C355.896 108.692 354.444 102.168 352.053 96.1808C350.222 86.6634 344.837 77.1014 339.073 72.4098C332.304 66.9138 323.457 64.9478 316.174 70.3544C309.024 75.6493 307.416 85.9038 308.734 94.9073C309.583 89.4561 311.862 84.4516 316.174 81.2568Z" fill="black"/>
</g>
<g style="mix-blend-mode:soft-light">
<path d="M297.208 152.346C298.057 149.42 299.643 146.761 301.922 144.817C305.363 141.846 309.742 140.483 314.031 141.891C317.941 143.186 320.622 146.538 321.851 150.604C322.454 148.303 322.699 145.934 322.565 143.79C322.23 138.003 319.192 132.686 314.031 130.988C309.742 129.581 305.363 130.944 301.922 133.915C298.08 137.221 296.158 142.427 296.56 147.811C296.672 149.308 296.895 150.849 297.231 152.346H297.208Z" fill="black"/>
</g>
<path d="M327.143 11.4183C296.938 7.21819 265.66 13.0716 245.977 37.7362C242.582 42.0033 248.234 48.0801 252.121 43.88C271.201 23.3708 299.552 22.723 325.467 23.8624C332.46 24.1751 334.314 12.4013 327.143 11.4183Z" fill="#E8E8E8"/>
<path d="M342.091 17.9197C333.534 17.9197 333.512 31.2126 342.091 31.2126C350.67 31.2126 350.67 17.9197 342.091 17.9197Z" fill="#E8E8E8"/>
<path d="M320.152 172.364C315.148 173.816 310.523 178.485 305.318 174.263C301.408 171.113 296.002 176.162 299.688 179.893C303.196 183.445 308.021 185.277 313.003 184.986C317.74 184.718 323.95 182.328 324.799 176.988C325.224 174.285 323.168 171.47 320.152 172.341V172.364Z" fill="#DBDBDB"/>
<path d="M337.688 41.3111C326.45 39.2557 315.972 43.1206 310.208 53.3305C308.845 55.7434 308.622 59.0722 310.208 61.4627L310.566 61.9989C312.532 64.9479 315.28 65.7299 318.608 65.2608C323.278 64.6129 324.819 59.4744 327.835 56.5254C330.092 54.3136 332.974 52.4145 336.191 52.2135C342.044 51.8337 344.189 42.4951 337.665 41.3111H337.688Z" fill="#C4C7CE"/>
<path d="M300.491 53.7996C294.102 47.5664 284.249 45.6004 275.871 48.6388C267.694 51.5878 271.023 62.736 279.401 61.4626C282.216 61.0381 285.344 62.1775 287.556 63.8084C290.616 66.0648 292.716 68.2766 296.917 67.2266C299.866 66.4893 301.608 64.4787 302.524 61.619C303.373 58.9604 302.435 55.7433 300.469 53.7996H300.491Z" fill="#C4C7CE"/>
<path d="M257.327 237.265C256.165 243.655 255.384 250.089 255.093 256.568C254.959 259.673 254.847 262.779 255.004 265.884C255.093 267.56 255.182 269.235 255.361 270.888C255.562 272.653 256.165 274.217 256.791 275.87C257.595 278.015 261.527 278.752 261.929 275.87C262.153 274.24 262.555 272.542 262.533 270.888C262.51 269.458 262.332 268.029 262.265 266.599C262.108 263.382 261.907 260.142 261.885 256.925C261.795 250.603 262.131 244.28 262.823 238.002C263.158 234.897 257.908 234.16 257.327 237.265Z" fill="#DBDBDB"/>
<path d="M321.49 252.144C321.289 245.687 321.379 239.253 321.691 232.819C321.781 231.166 320.217 229.758 318.631 229.758C316.843 229.758 315.749 231.166 315.57 232.819C314.9 239.365 314.431 245.955 314.252 252.524C314.051 259.248 314.095 265.727 315.57 272.318C316.397 275.982 321.602 274.91 321.825 271.469C322.228 264.99 321.669 258.623 321.468 252.144H321.49Z" fill="#DBDBDB"/>
<path d="M322.539 285.231C315.412 285.231 315.389 296.312 322.539 296.312C329.688 296.312 329.688 285.231 322.539 285.231Z" fill="#DBDBDB"/>
<path d="M439.861 297.01C449.541 313.78 457.541 333.84 460.921 352.66C453.791 362.57 441.751 365.431 430.001 367.801C413.491 371.121 395.731 370.041 380.011 363.861C379.631 363.131 378.891 362.6 378.101 362.6C380.541 358 381.311 352.08 382.551 347.22C384.201 340.7 386.231 334.41 388.581 328.12C406.481 329.15 437.491 317.05 439.851 297L439.861 297.01Z" fill="#D90429"/>
<path d="M455.592 407.88C439.062 420.27 420.792 428.07 402.522 437.37C402.392 437.11 402.212 436.86 401.922 436.66C390.432 428.8 387.352 413.53 387.902 400.38C388.142 395.05 388.912 389.71 389.922 384.47C390.492 381.45 391.022 374.76 393.712 372.78C393.862 372.69 393.972 372.56 394.062 372.43C403.642 374.39 413.672 374.5 423.452 373.38C418.472 389.45 442.972 403.97 455.592 407.89V407.88Z" fill="#D90429"/>
<path d="M430.701 303.52C427.511 308.45 423.171 312.37 416.961 315.94C408.181 321.02 398.081 323.58 388.101 324.85C387.181 324.34 385.901 324.41 385.281 325.47C383.481 328.62 382.221 332.05 381.181 335.55C377.391 333.44 373.561 331.74 369.961 329.17C365.431 325.96 361.881 321.69 357.871 317.94C357.911 317.88 357.961 317.85 357.981 317.78C369.401 293.43 387.191 269.9 412.991 259.94C411.601 266.45 414.271 275.11 415.941 280.37C418.361 287.99 423.111 299.36 430.711 303.52H430.701Z" fill="#D90429"/>
<path d="M405.151 227.59C405.571 237.6 403.541 247.42 404.511 257.46C404.531 257.72 404.601 257.941 404.711 258.141C403.851 258.561 402.991 258.981 402.131 259.441C396.721 248.681 375.591 255.52 368.101 261.46C365.991 256.05 363.981 250.611 362.801 244.891C362.581 243.861 361.541 243.221 360.551 243.191C350.971 242.821 340.541 247.501 332.641 254.481C330.771 251.881 328.811 249.331 326.901 246.731C326.941 245.871 326.421 244.931 325.711 244.571C325.561 244.501 325.401 244.42 325.221 244.37C323.151 241.4 321.211 238.361 319.631 235.101C334.201 216.171 358.861 209.151 381.991 209.661C387.521 209.791 393.631 210.231 398.651 212.721C404.131 215.431 404.921 222.251 405.161 227.601L405.151 227.59Z" fill="#D90429"/>
<path d="M390.271 430.22C390.271 430.22 390.231 430.28 390.231 430.29C386.091 440.33 382.731 448.25 373.901 455.1C373.901 455.12 373.881 455.14 373.881 455.14C370.011 451.33 365.051 448.34 360.671 445.34C354.731 441.25 348.691 437.35 342.711 433.32C348.371 422.93 357.111 413.77 362.541 403.47C363.461 401.75 362.081 400.17 360.621 399.99C358.401 392.48 353.251 386.76 346.531 382.54C357.891 384.59 371.641 375.92 378.931 367.51C382.611 369.21 386.431 370.571 390.351 371.581C383.661 376.441 383.551 394.1 383.111 400.37C382.471 409.84 384.651 421.57 390.281 430.22H390.271Z" fill="#D90429"/>
<path d="M380.192 339.12C379.772 340.73 379.382 342.33 379.002 343.92C378.382 346.52 377.612 349.27 376.912 352.06C369.232 354.3 362.292 359.56 356.092 364.39C352.242 367.4 342.162 374.96 344.642 381.01C344.642 381.16 344.622 381.28 344.662 381.41C337.042 377.14 327.692 374.63 318.332 373.48C319.672 356.73 322.732 341.37 329.842 325.94C333.322 318.41 338.162 311.57 343.802 305.51C346.532 302.56 347.782 300.45 351.412 302.89C353.742 304.43 356.062 305.9 358.302 307.53C357.182 310.61 356.302 313.72 355.732 316.84C355.662 317.24 355.822 317.63 356.082 317.92C355.732 318.27 355.592 318.78 355.882 319.33C360.332 327.72 370.502 337.4 380.202 339.12H380.192Z" fill="#D90429"/>
<path d="M373.362 281.73C373.472 281.95 373.632 282.06 373.802 282.1C367.972 288.81 363.101 296.17 359.781 303.83C356.541 301.54 353.151 299.49 350.031 297.05C349.101 296.32 348.121 296.3 347.191 297.05C345.191 298.66 343.272 300.42 341.402 302.31C336.892 291 330.042 280.63 324.932 269.56C333.292 260.49 341.812 252.26 354.052 248.72C361.382 246.61 361.362 256.23 363.672 261.66C366.582 268.51 369.792 275.18 373.362 281.73Z" fill="#D90429"/>
<path d="M357.452 401.65C357.582 401.89 357.742 402.07 357.942 402.22C353.872 409.64 348.582 416.42 343.872 423.44C340.312 428.77 335.792 435.111 335.002 441.751C325.712 428.501 307.272 421.52 291.682 422.76C293.152 407.4 289.572 392.28 288.662 377C313.112 377.26 344.392 377.18 357.452 401.65Z" fill="#D90429"/>
<path d="M338.962 304.43C339.012 304.54 339.092 304.59 339.142 304.67C331.112 313.43 324.442 324.53 320.042 336.28C315.622 329.57 309.612 324.04 303.162 319.22C301.822 318.21 300.212 317.08 298.452 315.94C300.412 315.43 302.432 315.34 304.462 315.76C305.722 315.89 306.662 314.18 305.942 313.18C300.092 304.93 296.302 294.19 290.822 285.07C291.852 283.66 292.622 282.1 293.862 280.78C296.462 278.01 299.942 276.07 303.282 274.31C308.782 271.4 316.792 268.98 322.872 271.38C324.722 283.31 333.832 293.83 338.942 304.44L338.962 304.43Z" fill="#D90429"/>
<path d="M321.972 245.42C322.042 245.57 322.132 245.69 322.232 245.84C319.412 252.07 313.912 258.04 313.582 265.08C313.562 265.41 313.672 265.7 313.842 265.98C309.792 266.29 305.562 267.9 302.282 269.35C298.472 271 290.532 275.58 288.002 280.75C285.122 276.74 281.732 273.2 277.442 270.62C277.282 270.46 277.062 270.31 276.782 270.22C276.672 270.16 276.582 270.09 276.472 270.02C276.122 269.84 275.792 269.86 275.522 269.98C273.392 269.72 271.212 269.72 269.002 269.91C263.592 255.54 255.262 243.58 243.822 234.91C243.862 234.87 243.892 234.86 243.912 234.8C248.562 226.66 254.032 219 258.002 210.56C267.382 233.94 296.872 245.58 320.582 245.98C321.182 245.98 321.642 245.76 321.972 245.43V245.42Z" fill="#D90429"/>
<path d="M318.291 341.49C314.991 352.1 313.641 363.04 314.861 373.12C305.261 372.28 295.871 372.83 288.531 374.38C288.311 368.52 288.531 362.63 289.651 356.7C290.621 356.21 291.101 354.81 290.201 353.77C285.421 348.02 277.561 345.49 269.291 345.4C271.541 342.82 271.431 337.68 271.911 334.55C272.841 328.74 272.721 322.78 273.721 317.01C275.531 306.6 297.381 320.73 300.841 323.19C307.751 328.06 313.631 334.46 318.291 341.5V341.49Z" fill="#D90429"/>
<path d="M301.101 312.18C298.861 312.22 296.901 312.64 294.671 313.68C288.621 310.33 281.491 307.69 276.001 309.32C270.651 310.91 269.461 314.98 269.071 319.84C255.231 323.16 246.681 336.97 247.681 350.87C245.261 352.24 243.061 353.82 241.301 355.63C240.931 355.34 240.491 355.15 240.051 355.12C235.711 350.47 228.821 348.94 222.601 349.51C221.211 344.12 220.131 338.64 219.361 333.18C220.311 332.59 220.721 331.2 220.181 330.12C225.291 323.16 233.981 309.3 228.151 303.9C227.471 303.28 226.781 302.65 226.101 302.07C241.701 288.86 254.011 275.64 275.911 273.96C276.261 273.94 276.551 273.8 276.831 273.61C286.871 285.28 292.571 299.52 301.091 312.19L301.101 312.18Z" fill="#D90429"/>
<path d="M285.871 355.56C280.011 376.96 287.301 400.31 289.281 422.08C275.881 411.76 259.901 411.27 243.541 414.69C243.501 396.2 239.361 378.06 241.851 359.57C242.001 359.5 242.141 359.42 242.271 359.3C254.221 347.64 272.031 348.82 285.871 355.56Z" fill="#D90429"/>
<path d="M282.521 422.91C282.501 422.97 282.471 423.02 282.451 423.09C281.831 426.68 280.911 430.18 280.361 433.74C272.991 426.34 263.871 419.59 253.771 417.14C257.311 416.92 260.841 416.81 264.421 416.98C271.201 417.33 277.011 419.67 282.531 422.92L282.521 422.91Z" fill="#D90429"/>
<path d="M224.961 229.59C244.481 236.3 256.591 252.48 265.091 270.44C248.731 273.46 231.371 286.66 223.561 299.89C219.751 296.65 216.081 293.55 212.911 289.13C207.251 281.29 205.401 272.6 206.001 263.18C206.041 262.98 206.041 262.76 206.041 262.56C206.041 262.41 206.041 262.27 206.061 262.14C206.131 261.1 205.421 260.53 204.591 260.44C204.001 260.17 203.311 260.17 202.571 260.62C200.441 261.96 198.261 263.2 196.061 264.4C196.061 264.38 196.061 264.36 196.041 264.35C194.891 262.22 193.111 260.54 191.281 259C189.961 257.9 188.531 256.73 187.031 255.81C192.441 248.42 196.801 240.34 202.441 233.07C208.801 224.88 216.091 226.58 224.941 229.61L224.961 229.59Z" fill="#D90429"/>
<path d="M237.902 357.98C235.002 376.73 237.852 396.04 240.522 414.72C226.682 410.82 213.382 412.61 200.742 419.08C196.532 407.53 194.162 395.75 190.842 383.97C201.712 378.42 216.532 372.72 228.542 377.26C230.282 377.92 231.472 376.62 231.622 375.15C231.932 374.71 232.042 374.11 231.692 373.43C228.192 366.78 225.502 359.7 223.432 352.43C225.852 352.74 228.232 353.07 230.602 353.68C233.532 354.45 235.662 356.12 237.912 357.99L237.902 357.98Z" fill="#D90429"/>
<path d="M205.351 421.261C214.111 417.061 223.421 415.651 232.931 416.971C222.921 420.401 211.861 425.511 208.561 435.221C206.511 430.861 205.441 426.281 205.351 421.261Z" fill="#D90429"/>
<path d="M224.811 307.71C225.631 314.27 220.941 321.77 218.071 328.44C206.121 321.33 191.661 321.29 177.861 325.54V325.52C165.551 317.11 156.091 302.54 155.631 287.37C171.281 281.78 187.241 275.31 201.551 266.74C200.491 277.46 206.111 288.07 212.671 296.34C214.871 299.13 217.581 301.471 220.311 303.73C221.261 304.5 224.631 306.37 224.801 307.72L224.811 307.71Z" fill="#D90429"/>
<path d="M226.241 371.27C214.041 368.58 200.421 373.96 189.681 379.11C179.221 384.13 165.841 392.71 160.931 404.12C154.481 395.84 150.321 386.42 145.631 377.09C143.061 371.98 140.761 365.84 136.581 361.77C136.531 361.71 136.451 361.68 136.381 361.64C136.441 361.59 136.491 361.57 136.531 361.51C145.991 349.96 156.191 340.29 169.861 333.86C185.051 326.69 199.241 327.63 214.431 332.27C216.171 345.5 219.121 359.72 226.251 371.27H226.241Z" fill="#D90429"/>
<path d="M226.241 372.27C214.041 369.58 200.421 374.96 189.681 380.11C179.221 385.13 165.841 393.71 160.931 405.12C154.481 396.84 150.321 387.42 145.631 378.09C143.061 372.98 140.761 366.84 136.581 362.77C136.531 362.71 136.451 362.68 136.381 362.64C136.441 362.59 136.491 362.57 136.531 362.51C145.991 350.96 156.191 341.29 169.861 334.86C185.051 327.69 199.241 328.63 214.431 333.27C216.171 346.5 219.121 360.72 226.251 372.27H226.241Z" fill="#D90429"/>
</svg>
