<svg width="144" height="146" viewBox="0 0 144 146" fill="none" xmlns="http://www.w3.org/2000/svg">
<path d="M135.57 133.157C141.152 107.502 143.816 82.1084 135.57 57.2518C113.201 -10.4849 51.2489 -14.2466 38.5985 38.9751C33.4454 60.7084 50.4011 72.6601 57.5089 56.1568C61.9445 45.7234 54.5749 32.3651 41.5976 30.8101C25.2841 28.8501 10.8526 31.5434 1.27673 36.9684" stroke="#474747" stroke-width="2" stroke-linecap="round"/>
<path d="M130.454 127.039C130.593 127.094 130.721 127.186 130.831 127.309C130.941 127.431 131.03 127.582 131.094 127.752C131.203 128.085 131.242 128.567 131.211 129.197C131.203 130.712 131.329 132.277 131.591 133.89C131.834 135.495 132.185 136.994 132.644 138.387C132.972 139.417 133.342 140.289 133.755 141.002C134.519 140.581 135.256 140.079 135.959 139.502C136.861 138.76 137.723 137.938 138.538 137.04C139.297 136.222 140.023 135.352 140.712 134.434C141.064 134 141.358 133.709 141.596 133.56C141.698 133.494 141.81 133.455 141.924 133.447C142.038 133.439 142.152 133.461 142.259 133.512C142.594 133.663 142.848 133.933 143.02 134.322C143.17 134.724 143.184 135.155 143.061 135.615C143.007 135.822 142.934 136.021 142.843 136.212C142.653 136.524 142.447 136.817 142.225 137.09C141.732 137.725 141.215 138.329 140.678 138.9C140.064 139.575 139.4 140.252 138.686 140.934C137.974 141.589 137.245 142.212 136.501 142.802C135.758 143.366 135.052 143.832 134.383 144.199C134.033 144.4 133.77 144.499 133.593 144.497C133.403 144.487 133.216 144.441 133.037 144.36C132.895 144.293 132.76 144.206 132.632 144.1C132.48 144.005 132.299 143.794 132.09 143.467C131.624 142.845 131.197 142.007 130.807 140.954C130.367 139.84 130.002 138.679 129.716 137.484C129.398 136.222 129.147 134.934 128.967 133.627C128.786 132.407 128.679 131.169 128.649 129.927C128.661 129.444 128.676 129.09 128.695 128.867C128.715 128.645 128.762 128.395 128.835 128.119C128.952 127.682 129.149 127.347 129.428 127.114C129.707 126.88 130.049 126.856 130.454 127.039Z" fill="#474747"/>
</svg>
