<svg width="108" height="40" viewBox="0 0 108 40" fill="none" xmlns="http://www.w3.org/2000/svg">
<g filter="url(#filter0_d_676_3464)">
<path d="M2 7C2 3.68629 4.68629 1 8 1H100C103.314 1 106 3.68629 106 7V31C106 34.3137 103.314 37 100 37H8C4.68629 37 2 34.3137 2 31V7Z" fill="white"/>
<path d="M8 1.5H100C103.038 1.5 105.5 3.96243 105.5 7V31C105.5 34.0376 103.038 36.5 100 36.5H8C4.96243 36.5 2.5 34.0376 2.5 31V7C2.5 3.96243 4.96243 1.5 8 1.5Z" stroke="#E4E4E7"/>
<path d="M32 21V23.6667C32 24.0203 31.8595 24.3594 31.6095 24.6095C31.3594 24.8595 31.0203 25 30.6667 25H21.3333C20.9797 25 20.6406 24.8595 20.3905 24.6095C20.1405 24.3594 20 24.0203 20 23.6667V21M29.3333 16.3333L26 13M26 13L22.6667 16.3333M26 13V21" stroke="#18181B" stroke-width="1.33" stroke-linecap="round" stroke-linejoin="round"/>
<path d="M51.044 20.36C51.044 20.9573 50.9413 21.4987 50.736 21.984C50.5307 22.46 50.2507 22.866 49.896 23.202C49.5413 23.538 49.1213 23.7993 48.636 23.986C48.1507 24.1633 47.6233 24.252 47.054 24.252C46.4847 24.252 45.9573 24.1633 45.472 23.986C44.9867 23.7993 44.562 23.538 44.198 23.202C43.8433 22.866 43.5633 22.46 43.358 21.984C43.162 21.4987 43.064 20.9573 43.064 20.36V14.088H44.828V20.304C44.828 20.5467 44.8653 20.8033 44.94 21.074C45.0147 21.3353 45.136 21.578 45.304 21.802C45.4813 22.026 45.71 22.2127 45.99 22.362C46.2793 22.502 46.634 22.572 47.054 22.572C47.474 22.572 47.824 22.502 48.104 22.362C48.3933 22.2127 48.622 22.026 48.79 21.802C48.9673 21.578 49.0933 21.3353 49.168 21.074C49.2427 20.8033 49.28 20.5467 49.28 20.304V14.088H51.044V20.36ZM53.0555 17.28H54.6515V18.288H54.6795C54.9222 17.868 55.2488 17.5693 55.6595 17.392C56.0702 17.2053 56.5135 17.112 56.9895 17.112C57.5028 17.112 57.9648 17.2053 58.3755 17.392C58.7862 17.5693 59.1362 17.8167 59.4255 18.134C59.7148 18.4513 59.9342 18.8247 60.0835 19.254C60.2328 19.6833 60.3075 20.1453 60.3075 20.64C60.3075 21.1347 60.2282 21.5967 60.0695 22.026C59.9108 22.4553 59.6868 22.8287 59.3975 23.146C59.1175 23.4633 58.7768 23.7153 58.3755 23.902C57.9742 24.0793 57.5355 24.168 57.0595 24.168C56.7515 24.168 56.4715 24.1353 56.2195 24.07C55.9768 24.0047 55.7622 23.9207 55.5755 23.818C55.3888 23.7153 55.2302 23.608 55.0995 23.496C54.9688 23.3747 54.8615 23.258 54.7775 23.146H54.7355V27.192H53.0555V17.28ZM58.6275 20.64C58.6275 20.3787 58.5808 20.1267 58.4875 19.884C58.4035 19.6413 58.2728 19.4267 58.0955 19.24C57.9275 19.0533 57.7222 18.904 57.4795 18.792C57.2368 18.68 56.9615 18.624 56.6535 18.624C56.3455 18.624 56.0702 18.68 55.8275 18.792C55.5848 18.904 55.3748 19.0533 55.1975 19.24C55.0295 19.4267 54.8988 19.6413 54.8055 19.884C54.7215 20.1267 54.6795 20.3787 54.6795 20.64C54.6795 20.9013 54.7215 21.1533 54.8055 21.396C54.8988 21.6387 55.0295 21.8533 55.1975 22.04C55.3748 22.2267 55.5848 22.376 55.8275 22.488C56.0702 22.6 56.3455 22.656 56.6535 22.656C56.9615 22.656 57.2368 22.6 57.4795 22.488C57.7222 22.376 57.9275 22.2267 58.0955 22.04C58.2728 21.8533 58.4035 21.6387 58.4875 21.396C58.5808 21.1533 58.6275 20.9013 58.6275 20.64ZM61.9019 13.416H63.5819V24H61.9019V13.416ZM65.1746 20.64C65.1746 20.108 65.2679 19.6273 65.4546 19.198C65.6506 18.7593 65.9119 18.386 66.2386 18.078C66.5653 17.77 66.9526 17.532 67.4006 17.364C67.8486 17.196 68.3246 17.112 68.8286 17.112C69.3326 17.112 69.8086 17.196 70.2566 17.364C70.7046 17.532 71.0919 17.77 71.4186 18.078C71.7453 18.386 72.0019 18.7593 72.1886 19.198C72.3846 19.6273 72.4826 20.108 72.4826 20.64C72.4826 21.172 72.3846 21.6573 72.1886 22.096C72.0019 22.5253 71.7453 22.894 71.4186 23.202C71.0919 23.51 70.7046 23.748 70.2566 23.916C69.8086 24.084 69.3326 24.168 68.8286 24.168C68.3246 24.168 67.8486 24.084 67.4006 23.916C66.9526 23.748 66.5653 23.51 66.2386 23.202C65.9119 22.894 65.6506 22.5253 65.4546 22.096C65.2679 21.6573 65.1746 21.172 65.1746 20.64ZM66.8546 20.64C66.8546 20.9013 66.8966 21.1533 66.9806 21.396C67.0739 21.6387 67.2046 21.8533 67.3726 22.04C67.5499 22.2267 67.7599 22.376 68.0026 22.488C68.2453 22.6 68.5206 22.656 68.8286 22.656C69.1366 22.656 69.4119 22.6 69.6546 22.488C69.8973 22.376 70.1026 22.2267 70.2706 22.04C70.4479 21.8533 70.5786 21.6387 70.6626 21.396C70.7559 21.1533 70.8026 20.9013 70.8026 20.64C70.8026 20.3787 70.7559 20.1267 70.6626 19.884C70.5786 19.6413 70.4479 19.4267 70.2706 19.24C70.1026 19.0533 69.8973 18.904 69.6546 18.792C69.4119 18.68 69.1366 18.624 68.8286 18.624C68.5206 18.624 68.2453 18.68 68.0026 18.792C67.7599 18.904 67.5499 19.0533 67.3726 19.24C67.2046 19.4267 67.0739 19.6413 66.9806 19.884C66.8966 20.1267 66.8546 20.3787 66.8546 20.64ZM78.2555 23.076H78.2135C77.9708 23.468 77.6628 23.748 77.2895 23.916C76.9162 24.084 76.5055 24.168 76.0575 24.168C75.7495 24.168 75.4462 24.126 75.1475 24.042C74.8582 23.958 74.5968 23.832 74.3635 23.664C74.1395 23.496 73.9575 23.286 73.8175 23.034C73.6775 22.782 73.6075 22.488 73.6075 22.152C73.6075 21.788 73.6728 21.48 73.8035 21.228C73.9342 20.9667 74.1068 20.752 74.3215 20.584C74.5455 20.4067 74.8022 20.2667 75.0915 20.164C75.3808 20.0613 75.6795 19.9867 75.9875 19.94C76.3048 19.884 76.6222 19.8513 76.9395 19.842C77.2568 19.8233 77.5555 19.814 77.8355 19.814H78.2555V19.632C78.2555 19.212 78.1108 18.8993 77.8215 18.694C77.5322 18.4793 77.1635 18.372 76.7155 18.372C76.3608 18.372 76.0295 18.4373 75.7215 18.568C75.4135 18.6893 75.1475 18.8573 74.9235 19.072L74.0415 18.19C74.4148 17.798 74.8488 17.5227 75.3435 17.364C75.8475 17.196 76.3655 17.112 76.8975 17.112C77.3735 17.112 77.7748 17.168 78.1015 17.28C78.4282 17.3827 78.6988 17.518 78.9135 17.686C79.1282 17.854 79.2915 18.05 79.4035 18.274C79.5248 18.4887 79.6088 18.708 79.6555 18.932C79.7115 19.156 79.7442 19.3753 79.7535 19.59C79.7628 19.7953 79.7675 19.9773 79.7675 20.136V24H78.2555V23.076ZM78.1575 20.99H77.8075C77.5742 20.99 77.3128 20.9993 77.0235 21.018C76.7342 21.0367 76.4588 21.0833 76.1975 21.158C75.9455 21.2233 75.7308 21.326 75.5535 21.466C75.3762 21.606 75.2875 21.7927 75.2875 22.026C75.2875 22.1847 75.3202 22.32 75.3855 22.432C75.4602 22.5347 75.5535 22.6233 75.6655 22.698C75.7775 22.7727 75.9035 22.8287 76.0435 22.866C76.1835 22.894 76.3235 22.908 76.4635 22.908C77.0515 22.908 77.4808 22.7727 77.7515 22.502C78.0222 22.222 78.1575 21.844 78.1575 21.368V20.99ZM86.895 22.992H86.867C86.6244 23.412 86.2977 23.7153 85.887 23.902C85.4764 24.0793 85.033 24.168 84.557 24.168C84.0344 24.168 83.5677 24.0793 83.157 23.902C82.7557 23.7153 82.4104 23.4633 82.121 23.146C81.8317 22.8287 81.6124 22.4553 81.463 22.026C81.3137 21.5967 81.239 21.1347 81.239 20.64C81.239 20.1453 81.3184 19.6833 81.477 19.254C81.6357 18.8247 81.855 18.4513 82.135 18.134C82.4244 17.8167 82.7697 17.5693 83.171 17.392C83.5724 17.2053 84.011 17.112 84.487 17.112C84.795 17.112 85.0704 17.1447 85.313 17.21C85.565 17.2753 85.7844 17.3593 85.971 17.462C86.1577 17.5647 86.3164 17.6767 86.447 17.798C86.5777 17.91 86.685 18.022 86.769 18.134H86.811V13.416H88.491V24H86.895V22.992ZM82.919 20.64C82.919 20.9013 82.961 21.1533 83.045 21.396C83.1384 21.6387 83.269 21.8533 83.437 22.04C83.6144 22.2267 83.8244 22.376 84.067 22.488C84.3097 22.6 84.585 22.656 84.893 22.656C85.201 22.656 85.4764 22.6 85.719 22.488C85.9617 22.376 86.167 22.2267 86.335 22.04C86.5124 21.8533 86.643 21.6387 86.727 21.396C86.8204 21.1533 86.867 20.9013 86.867 20.64C86.867 20.3787 86.8204 20.1267 86.727 19.884C86.643 19.6413 86.5124 19.4267 86.335 19.24C86.167 19.0533 85.9617 18.904 85.719 18.792C85.4764 18.68 85.201 18.624 84.893 18.624C84.585 18.624 84.3097 18.68 84.067 18.792C83.8244 18.904 83.6144 19.0533 83.437 19.24C83.269 19.4267 83.1384 19.6413 83.045 19.884C82.961 20.1267 82.919 20.3787 82.919 20.64Z" fill="#18181B"/>
</g>
<defs>
<filter id="filter0_d_676_3464" x="0" y="0" width="108" height="40" filterUnits="userSpaceOnUse" color-interpolation-filters="sRGB">
<feFlood flood-opacity="0" result="BackgroundImageFix"/>
<feColorMatrix in="SourceAlpha" type="matrix" values="0 0 0 0 0 0 0 0 0 0 0 0 0 0 0 0 0 0 127 0" result="hardAlpha"/>
<feOffset dy="1"/>
<feGaussianBlur stdDeviation="1"/>
<feColorMatrix type="matrix" values="0 0 0 0 0 0 0 0 0 0 0 0 0 0 0 0 0 0 0.05 0"/>
<feBlend mode="normal" in2="BackgroundImageFix" result="effect1_dropShadow_676_3464"/>
<feBlend mode="normal" in="SourceGraphic" in2="effect1_dropShadow_676_3464" result="shape"/>
</filter>
</defs>
</svg>
